/* XPM */
static char *seamless_textured_grass_natural_grass_pattern_172107_1308__1___4_1706203827[] = {
/* columns rows colors chars-per-pixel */
"50 50 39 1 ",
"  c #000000",
". c #47273C",
"X c #45283C",
"o c #663A2F",
"O c #68392F",
"+ c #663A31",
"@ c #683931",
"# c #546F00",
"$ c #557300",
"% c #597601",
"& c #567800",
"* c #5B7902",
"= c #5F7C08",
"- c #617D04",
"; c #676B6C",
": c #696B6A",
"> c #8F563B",
", c #91563B",
"< c #86B700",
"1 c #88B600",
"2 c #87B900",
"3 c #8CBC00",
"4 c #90BE01",
"5 c #8EC100",
"6 c #93C402",
"7 c #99C705",
"8 c #96C805",
"9 c #99CA05",
"0 c #97C608",
"q c #97C909",
"w c #9BCC09",
"e c #D79F64",
"r c #DA9F65",
"t c #D7A165",
"y c #D8A065",
"u c #847F86",
"i c #847E88",
"p c #858087",
"a c #EEC399",
/* pixels */
"6686556888888888 55565686  6566558  88696776666858",
"5666656668886686 5556668w  6666658  88877998655555",
"56866555668666  a  6566  aa 86665 aa 66879w8555655",
"568886565656  XX>XX 56 XX>>X  5  X>>.  86886556656",
"566666555522  X.,XX 66 XX>>X  w  X>>X  67666635656",
"656566655535  ,,>XX 55 ,,>>.  6  >>>X  56444686888",
"66556655366   uu+pu    uu++p     u@+u    334666888",
"65522222588   ui+pp    pi++p     p++u    334555686",
"     5266  >  ++uXX >, o+uu.  >  +upX  ,> 436     ",
"  aaa 666  +  pu@uu ++ uu++u  +  p++u  ++ 77 aaa  ",
"  aaa 868  +  uu@pu ++ uu++u  +  i++u  ++ 08 aaa  ",
"  yaaa  668   +++XX    @+++.     +++X    0  aaay  ",
"88 yy.++ 66*  ++@XX %- +@+@X  &  @++X  $# ++Xyy 66",
"68 yyX++ 68*  +++XX &% @@+@.  %  @@+X  ## ++Xyy 66",
"555  X::u  ==***o=**&%$$$+@###%-*&@@%&%  u::X  887",
"685  X::u  ***&*+*&*%*%%=+@####=&$+@%%&  p::X  8ww",
"      uu+++ 66&&&*&8998**=-$11446%%%-  +++uu      ",
"  aaa   .o+@  6665668866886414446767 ++++X   aaa  ",
"  aaa   Xo++  w8555666666644444449w7 ++++X   aaa  ",
"  yaaa   XXX+@w8566655688446044479w7+.X.X   aaay  ",
"86 yyX++   .  w656855888668800449668 XX   ++Xyy 88",
"36 yrX++   X  6556855588666804478556 XX   @oXyy 53",
"66&  X++u  $2223566586885665364796798&=  p::X  *88",
"      ::+++ 5536668558666623346456994  +++pp      ",
"      ::o++ 6663580885586555555566866  +++ui      ",
"  aaa   X+++  8623566666556555656666 ++o@X   aaa  ",
"  aaa   X+++  769664333<268866556666 ++@+X   aaa  ",
"  raaa   XXXo+86 66365335  w886656  +XXXX   aaay  ",
"48 ryX@+   X    a  6676  aa 88888 aa XX   +@Xey 56",
"47 ryX++   X    a  7686  aa 88888 aa .X   o+Xyy 55",
"87&  X+ou  *  aaayy 77 aaaat  5  aaay    u::X  &88",
"76&   uu:++   yrayy 78 ttaat  6  raay  +++uu   &86",
"68*   iu:++   yyayy 63 yyaay  8  eaay  ++@pu   %86",
"66&  >  X+++  ++y>> 64 @+yy,  8  +yy>  ++X  ,  &88",
"q0&  +++ XXX  XX>XX 46 XX,>X  9  X>,X  XX ++@  &56",
"qw-  +++ XXX  XX>XX 47 XX>>X  8  X>>X  XX +++  &68",
"q6$$$   &  X  @++XX 69 ++++X  8  +++.    &   &&%8q",
"033##$#$$**   pp+uu    uu++u     p++p    &*&=*%633",
"666$###&&&*   pp+pi    uuo+u     p++u    ******655",
"443606334  >>>  i::,>>>:;uu >>,>>>uu >>>, 56566656",
"46847w466  ,,,  p::,>>>:;pp ,>,,>,pp >>>, 66656835",
"6778ww444  +@+o+u  ++++  ip++++@+ ::u  ++ 85568865",
"69w77w44133   :: ::    ::  :     :  :    9wq888808",
"99w77743334   :: ::    ::  :     :  :    668856686",
"97767444744$  @+X   &%   XXX  *   XX.  %&862158645",
"w4464434341#  ++OX. %& ++@+X  %  +++.  &&562225864",
"73463111333#  +@@X. %% @+++X  &  @++.  %$22882<566",
"43674043444$$#$$@%&%%%*&*++*%%%&&&++&%&&&255332777",
"73563666436747%*&&&6468&%%%-64646***%72883688w9777",
"w468689w789w69**%&&6667&%%%%66647---*95ww568796877"
};
