/* XPM */
static char *bcc0a0c3ea3241b2ad0485ed9bfca7ddzfsFoPhvrdHuaTKn[] = {
/* columns rows colors chars-per-pixel */
"50 50 240 2 ",
"   c #9A641C",
".  c #9B562D",
"X  c #9D5B2E",
"o  c #985C27",
"O  c #8A593A",
"+  c #9B5635",
"@  c #955C34",
"#  c #9D5C35",
"$  c #955E3A",
"%  c #9C5D3B",
"&  c #99563C",
"*  c #A35C2D",
"=  c #A35D33",
"-  c #A25D3B",
";  c #A45A38",
":  c #996828",
">  c #987A2B",
",  c #8D663C",
"<  c #9C6334",
"1  c #9C6C34",
"2  c #95623D",
"3  c #9B623C",
"4  c #9C6B3C",
"5  c #946838",
"6  c #947B39",
"7  c #99763A",
"8  c #A2632D",
"9  c #A4662A",
"0  c #AB742A",
"q  c #A46235",
"w  c #A3613C",
"e  c #AA623C",
"r  c #A56B36",
"t  c #A8773E",
"y  c #B37738",
"u  c #B3702C",
"i  c #9A5E41",
"p  c #945E42",
"a  c #A15D41",
"s  c #A95F42",
"d  c #8E6244",
"f  c #8C6949",
"g  c #956242",
"h  c #9C6542",
"j  c #976C4B",
"k  c #9A6A47",
"l  c #8A7247",
"z  c #997347",
"x  c #996B53",
"c  c #9F7755",
"v  c #8F6654",
"b  c #A36342",
"n  c #A56C46",
"m  c #A46549",
"M  c #A86745",
"N  c #AC714F",
"B  c #94921C",
"V  c #93AF0C",
"C  c #86B600",
"Z  c #8CB703",
"A  c #86B900",
"S  c #8CBC00",
"D  c #90BF01",
"F  c #94B80D",
"G  c #94A619",
"H  c #98B916",
"J  c #8DA40E",
"K  c #958524",
"L  c #8F9124",
"P  c #999224",
"I  c #948433",
"U  c #948C34",
"Y  c #A48032",
"T  c #BB8639",
"R  c #B9852F",
"E  c #99A82B",
"W  c #A6BA29",
"Q  c #A8AA3B",
"!  c #BBAC37",
"~  c #A1B434",
"^  c #BDB83B",
"/  c #C48635",
"(  c #C3933C",
")  c #D49838",
"_  c #CB962E",
"`  c #C1BF2C",
"'  c #DDAD35",
"]  c #DAA739",
"[  c #DDAD3C",
"{  c #D5A93B",
"}  c #C6B837",
"|  c #DDB334",
" . c #D5B43D",
".. c #DDB33C",
"X. c #D0B935",
"o. c #C9A63E",
"O. c #E2AC36",
"+. c #E3AD3D",
"@. c #EAAD3D",
"#. c #E0A53D",
"$. c #E4B335",
"%. c #E8B235",
"&. c #E3B33C",
"*. c #E9B33E",
"=. c #E5B93E",
"-. c #E4AD2F",
";. c #8FC100",
":. c #93C402",
">. c #98C605",
",. c #96C905",
"<. c #99CA06",
"1. c #95C30A",
"2. c #99C60A",
"3. c #97C909",
"4. c #9BCB09",
"5. c #9DCB14",
"6. c #9EC91C",
"7. c #98C414",
"8. c #9DD10C",
"9. c #A2CB1D",
"0. c #ACC11E",
"q. c #A5D11A",
"w. c #99C125",
"e. c #A4CD24",
"r. c #A6CE2C",
"t. c #A8CE2A",
"y. c #A3C629",
"u. c #A9CA34",
"i. c #B9C132",
"p. c #B1D33F",
"a. c #AAD130",
"s. c #958749",
"d. c #999347",
"f. c #928553",
"g. c #BA924A",
"h. c #BAA24B",
"j. c #A9B844",
"k. c #BDA557",
"l. c #AFB154",
"z. c #B28769",
"x. c #B29272",
"c. c #ACAF60",
"v. c #B8A567",
"b. c #C69A45",
"n. c #D89F4E",
"m. c #D69C52",
"M. c #C5A24C",
"N. c #CCA84D",
"B. c #D4AB45",
"V. c #DCAC44",
"C. c #D1AB4D",
"Z. c #DDAC4D",
"A. c #D5A242",
"S. c #DDB444",
"D. c #D7BB46",
"F. c #DDB24C",
"G. c #DEB94A",
"H. c #C8A859",
"J. c #D7AF50",
"K. c #D9AB58",
"L. c #C7B753",
"P. c #DAB453",
"I. c #D2B35E",
"U. c #DAB45B",
"Y. c #D9B552",
"T. c #E3AD43",
"R. c #E9AD44",
"E. c #E6AF4B",
"W. c #EAAD4A",
"Q. c #E4B343",
"!. c #EAB444",
"~. c #E2BA41",
"^. c #E4B44A",
"/. c #E9B54B",
"(. c #E4B94C",
"). c #ECB94A",
"_. c #E4AB5A",
"`. c #E5AD51",
"'. c #E3B351",
"]. c #E4B856",
"[. c #F2BA43",
"{. c #D4B56E",
"}. c #D6B966",
"|. c #CBBB74",
" X c #D4B773",
".X c #CBAA65",
"XX c #E2BA63",
"oX c #ACC841",
"OX c #B6D34B",
"+X c #B6D647",
"@X c #BCCA50",
"#X c #BBD653",
"$X c #BDD95A",
"%X c #BFDA55",
"&X c #B2C343",
"*X c #BFDA64",
"=X c #C7D95B",
"-X c #E9C152",
";X c #C4C363",
":X c #DEC16B",
">X c #C2DD66",
",X c #C6D968",
"<X c #D6CB74",
"1X c #C9DE76",
"2X c #D4D978",
"3X c #EBC66F",
"4X c #E0C077",
"5X c #EBCB71",
"6X c #CEE479",
"7X c #D3E27D",
"8X c #DDBB9A",
"9X c #D7B9A2",
"0X c #CCDB83",
"qX c #DCD486",
"wX c #D4D29F",
"eX c #E4C68C",
"rX c #E6D58A",
"tX c #E4CD96",
"yX c #E5D697",
"uX c #FEDF9F",
"iX c #D8E486",
"pX c #D8E794",
"aX c #E7E89A",
"sX c #F6E89B",
"dX c #E4F097",
"fX c #E7E086",
"gX c #DDD0A6",
"hX c #F2D6A6",
"jX c #DDE9A9",
"kX c #E3ECAB",
"lX c #EAEBA4",
"zX c #FBE0A7",
"xX c #EBEBB5",
"cX c #F8E7BA",
"vX c #E2F0A5",
"bX c #F1EAC0",
"nX c #F4F8CB",
"mX c #F9F4C7",
"MX c #F7FAD2",
"NX c #EDF3C5",
/* pixels */
":.:.:.:.u.1XuX3XP.'.3XzXMXe.,.,.:.;.S ;.:.;.:.,.:.:.:.;.;.:.:.;.;.,.:.;.,.,.:.4.:.:.:.:.;.:.:.:.:.:.",
";.:.:.6.r.<X{.P.F.F.J.}.hXkX:.:.:.;.;.:.:.:.:.:.4.4.,.:.:.:.:.:.;.,.:.:.,.:.:.<.<.<.4.,.:.;.:.;.;.:.",
":.:.,.5.=XI.C.F.[ Q...B.}.sX>X:.;.:.:.:.:.:.:.:.:.;.:.,.,.:.:.:.;.:.:.:.:.:.:.:.<.4.4.,.:.;.;.:.:.:.",
":.:.,.5.;XU.^.Q.' =.~.!.F.<X#X:.;.,.,.:.;.;.:.:.:.:.,.4.,.:.S S ;.;.:.:.:.:.:.:.,.,.,.:.;.;.:.:.;.;.",
";.:.:.9.L.G.!.' &.&.O.*.^.I.$X:.:.,.,.,.:.:.:.;.;.;.:.,.<.<.<.4.;.;.:.:.:.:.:.:.>.:.:.:.:.:.;.:.:.:.",
":.:.:.OXL.S.&.$.....O.@.Q.C.,X:.:.,.,.:.:.;.;.;.:.:.,.,.:.:.D S ;.:.:.:.:.:.:.1.y.y.7.3.:.:.:.:.:.,.",
":.:.6.,X}. .&.=...../.W.T.U.2X:.3.,.,.:.:.S S S A S :.,.<.<.:.S :.<.,.:.3.5.j.s.s.l s.j.6.3.:.,.:.:.",
":.u.*X2XY.' ~...~.' E.E.T.U.rXt.4.,.:.:.:.S S S S :.:.:.<.4.<.:.:.8.4.:.9.l.v j d g p z j.7.:.:.:.:.",
"%XiXqX}.S.| ......=.R.W.Q.F.rX6X7.:.:.S :.:.:.;.:.:.:.4.>.:.4.:.;.;.:.w.;Xx k < 3 3 % 3 5 u.2.:.:.:.",
"dXqX{.J.&.$.....&.&.R.R.Q.S.:XaX6X7.:.S :.:.:.:.:.:.:.<.:.:.>.S ;.;.:.oXz.k # X # @ w w i d.2.:.:.:.",
"sX}.C.V.O.$.+.Q.$.@.@.W.!.V.F.:XyXdXp.,.,.:.:.<.4.:.:.,.:.:.:.S :.:.2.0Xv % = * w 3 # # % l 6.;.:.,.",
"5XY.F.Q.O.O.*.*.%.%.R.W.W.T.S.Y.I.rXlX=X5.:.:.4.>.:.:.:.:.:.:.:.:.:.*XwXx % = = @ 3 + w b j u.:.:.:.",
"F.'.^.T.@.@.!.O.%.&.T.R.W.W.Q.~.(.U.}.sX6X9.:.:.:.:.D S D D :.4.<.<.jXgXx - X q 2 h % - % O u.1.:.:.",
"{ ^.[ +.!.@.@.*.$.&.Q.T.T.W.Q.&.=.^.].I.eXaX+X2.:.:.D Z Z Z :.4.<.,.kX9Xg - # w 2 $ w # - m l.7.:.:.",
"A.T.....&.O.@.!.....| &.&.@.Q...+././.].U. XyX>Xt.4.S C Z C D 2.<.1XbXz.3 - - 3 3 3 w = ; # 2 l.9.,.",
"Z.V.G...| *.@.+.S. ...&.&.*.Q.Q.!.@.T./.'.U.}.qXdX#Xw.C Z C D 1.$XkX9Xk 3 w # % % 3 X = e # h d c.q.",
"5XN.P.(.[ !.Q.[ ..S.G.S.[ +.+.Q.&.=.Q.T.Q.^.(.Y.}.sXiXoXH Z 1.,XkX8Xc g 3 @ w - = X 8 = + a 3 , l @X",
"fXk.I.P.B.(.{ (.P.N.b.M.C.^.^.+.&.&.T.T.@.@.*.~.].I.tXxX0X1XpXxXx.k @ < 1 r # w q * * * - a % 3 O v.",
"9.,Xh.M.P.B.P.H. XzXmXtX.XM.S.&.....Q.!.Q.+.+.!.G.Y.U.4XuXmXhXc 4 : y g.( T 9 8 = = = # w - % 3 3 N ",
",.6.2Xv.h.M.H.tXmXxXNXnXcX|.h.o.G.S.Q.T.T.!.R.Q.Q.~.-XF.XX.X1 r   b._._.^.].K.y X = w # # % % % w # ",
":.:.+X,X7XiXdXlX+X:.,.5.nXnXyXk.b.V.^.Q.@.R.R.T.T.Q...!./.'._.n.`.W.T.!.+.] E._.y X # w X = - % 3 3 ",
";.:.:.:.e.t.2.>.4.:.:.,.:.OXNXcX{.N.A.F./.+.+.Q.).] Q.Q.[ Q.T.T.T.O.~.&.+.!.T.`.m.9 o w # = - % g z.",
":.:.;.:.>.>.:.:.:.S Z Z S S S MXmXeXH.M.Z.^.+.Q.] Q.V.^.!.Q.Q.[ Q.' $.$.*.Q.T.E.'.0 o < # # - i f |.",
",.:.;.;.:.:.:.:.:.:.:.S S S S :.OXnXcX Xb.B.Q.&.&.!.^.^.^.[ *.=.&.&.| $.T.V./.T.T.R 9 @ $ 3 3 d f.e.",
":.,.,.;.S :.:.;.;.:.:.:.:.:.:.;.:.,.$XiXeXb.{ *.$.$.+.&.!.Q.+.Q...~.| ' /.E.[ T.^.( 5 O f z 6 s.a.5.",
":.:.:.S S S S S ;.:.;.;.:.:.:.:.S ;.6.r.8Xt b._ ' $.&.+.+.Q.+.Q.....&.Q./.T.T.(.F.5X<Xv.f.d.j.t.,.,.",
":.:.;.;.;.S S ;.:.;.;.;.:.,.>.:.>.2.y.x.k 4 o / ) #.*.*.*.*.Q.Q.Q.[ Q.T.+.+.[ D.^ =X+Xp.e.5.:.:.:.:.",
":.:.:.:.:.:.:.,.:.:.:.:.:.,.,.:.:.&Xs.x n # q 8 u / ) +.Q.&.&.&.Q.@.!.+.@.). .^ W 1.6.:.:.:.:.:.:.:.",
"D ,.:.:.:.<.4.:.,.,.,.:.:.:.:.:.Q 7 n < . = ; = = r R A.~.......+.@.R.@.~.~.! W C S ;.:.,.:.:.;.:.:.",
":.,.,.:.:.,.,.:.,.,.,.,.:.:.7.E 7 @ q * * = ; s - q 0 ( ^.....&.@.@.+.&...} W C Z S :.3.4.<.:.:.;.;.",
",.,.:.:.:.:.:.:.:.:.:.:.:.W U z m @ # w X = M + M < : ( ^.T.Q.*.@.*.' &. .i.:.D :.D ;.:.:.:.;.;.,.,.",
",.:.;.;.K Y K G G F 7.~ U 7 m a & b - # = ; - M h < : T Z.T.!.@.T.Q.&.~.} :.:.,.4.:.:.,.:.:.:.:.:.,.",
":.,.<.P - ; w < 1 > > 4 h i % % i # w = = = M b g , .X{.U.^.O.*.W.R.O.~.i.:.,.,.,.:.:.,.3.:.:.:.,.,.",
":.:.S q = = - % # q q w - a % % % w . e e e 5 , s.&Xe.|.H.F.*.*.+.R.*.X.,.:.:.:.,.:.:.:.;.S S ;.:.,.",
">.,.F = * = % % # # # - - - % % - b M w t > I ~ S ,.2.<Xk.P.*.-.[.' &.` ,.:.:.:.:.:.:.:.S S S ;.:.:.",
"4.4.> * = q % % 3 3 # # - - - # - b b 4 K E 4.,.D <.<.#Xk.N./.+.' ..} :.:.:.:.:.:.:.:.:.;.S ;.;.:.:.",
"3.:.8 * = w % i $ 3 3 % - - - w m m 2 L H <.4.4.:.4.4.>XyXQ ! D.} 0.:.:.:.:.:.;.:.:.:.:.:.:.:.;.:.,.",
":.S K q = - % % $ 3 % - - - w b g 7 G :.:.:.>.,.:.,.:.1.vX@X:.<.<.:.:.,.,.:.:.:.:.:.:.,.,.,.:.:.S S ",
":.:.D 1 # % % % % % % = = - 3 k 6 H :.:.:.:.:.:.:.:.:.D :.$X9.4.,.,.:.,.,.,.:.:.:.:.:.,.,.,.:.:.;.;.",
":.:.D V % % w % 3 3 # = = % 2 I 4.:.:.:.,.:.:.:.4.>.:.:.:.D :.2.,.:.:.:.:.:.:.;.;.:.:.:.:.:.:.:.:.:.",
":.:.:.:.G % - % w w . q - % I :.:.:.:.<.:.<.:.,.,.:.:.S Z Z S Z :.;.S :.:.;.:.:.:.;.:.,.:.:.:.<.S ;.",
":.>.<.:.2.$ - e . = q q # 4 F :.D :.:.<.>.<.,.>.4.<.,.:.D :.,.4.;.:.:.:.:.;.;.:.:.,.,.;.S :.3.:.:.:.",
":.<.4.:.<.P - . w X = = w G :.:.D :.:.:.:.,.:.:.4.<.,.:.:.:.,.4.;.:.<.,.:.;.:.:.,.<.4.4.,.,.,.,.3.:.",
"<.<.<.:.:.H # e = = = q 1 >.<.:.:.:.:.:.D :.:.:.:.:.,.:.:.:.:.>.:.<.4.,.:.:.:.:.;.:.:.:.:.:.:.:.,.:.",
"4.:.:.:.:.:.- = # w = = P 4.4.,.,.,.,.:.:.:.:.:.Z :.:.>.,.:.,.2.:.,.<.:.:.:.:.;.S ,.:.A C ;.:.:.:.:.",
"4.D :.:.S Z + e w # # + Z 1.1.D S S :.:.:.:.:.:.:.:.<.<.:.:.,.2.:.:.:.:.:.;.;.;.:.:.:.S S S ;.:.:.;.",
"<.S :.:.S S J # % % w K S Z S Z S Z D S :.D :.:.<.<.<.>.:.:.:.:.;.;.:.:.;.;.;.;.S A S :.:.A C :.,.:.",
":.Z :.,.D :.:.1 % 3 1 S Z S Z Z ;.S :.S :.:.>.:.:.:.:.:.:.:.:.:.:.:.:.,.:.;.;.:.S S ;.:.;.S ;.:.>.:.",
",.S :.:.S :.:.:.K > :.>.S ,.:.,.:.;.:.;.;.:.,.:.:.:.:.:.:.:.:.:.:.<.<.<.:.,.S :.,.S :.,.>.4.4.>.>.>.",
"4.;.:.:.:.,.<.4.<.:.<.4.:.4.:.<.:.;.:.;.;.:.,.:.:.:.:.:.:.:.:.:.>.<.<.<.:.<.;.<.8.;.:.,.:.<.:.:.>.>."
};
