/* XPM */
static char *seamless_textured_grass_natural_grass_pattern_172107_1308__1___3_1706203826[] = {
/* columns rows colors chars-per-pixel */
"50 50 40 1 ",
"  c #1B0F26",
". c #1B0E28",
"X c #1B1026",
"o c #1C1028",
"O c #975F3E",
"+ c #9A5F3F",
"@ c #96603E",
"# c #98603F",
"$ c #975E40",
"% c #985F41",
"& c #996140",
"* c #86B401",
"= c #89B500",
"- c #87B900",
"; c #8CBC00",
": c #91BE01",
"> c #DC8F37",
", c #DB8F39",
"< c #DC903A",
"1 c #8EC100",
"2 c #93C402",
"3 c #98C705",
"4 c #96C905",
"5 c #9ACA06",
"6 c #97C509",
"7 c #99C609",
"8 c #97C909",
"9 c #9BCB09",
"0 c #9ED10D",
"q c #DED86C",
"w c #DFDB70",
"e c #E0D76E",
"r c #E1D86F",
"t c #E2DA70",
"y c #DFEFD5",
"u c #E1EED4",
"i c #E4EFDE",
"p c #E0F0D6",
"a c #E4F0DF",
"s c #E6F1E0",
/* pixels */
"22222124444444421111212424111221141144254542114422",
"12222112244422422112122200321221144144244592411111",
"12442112144221X XXXX .  XX.XoX22122214444558111421",
"124222211111X trwaapuuaaaqrtwtX1112211224442111111",
"1122221111;; .erwiapyuaasrrttt 9111422224221122114",
"2211222211;1..ttwssaaiyyuqqttto;122222::2:;2224244",
"221111111111. rttsasaisaatqqqqX;243222=:==:;222844",
"211---1-2243X.tttasaysaaitrqqq 4205222::;=:2111241",
"441111112288. <,,rewttttr<,<,, 2111-41::22:;144211",
"121112114454 o<<,ttrttrtt,<<,, ;112192223976894214",
"280424824842  ,<<ttettttt,,<,, ;124;5:266682444142",
"128414812222  OO$OOOOOO&%+&%&&.2245472::6268222212",
"249414511234..@O#+##$$+@+&&%#% 954556::;=::==;2112",
"224214412124 oOO#%+%%%+OO##&#&.954532::===;=;=;;12",
"1211111;1145. <,<rrrreerr<<,,,.93233::::::22222345",
"281122121125Xo,,>rrrrrerr<<<,,.63::2:22===67882655",
"23:377;*==:;XX,,,tttttttr,,<<< 222;:33;==-=606:624",
"433277::==:2..,,<rrrtrett,<<,,          oX  X=:911",
"24:::6::::86X.,,,ttrtrert,<<,,  XX X        .;:312",
"22:;:::22:88X.@@+O+++++$%++XX tqrtaaiiiiaieet  242",
"222;:2337267Xo&@+OOO$$OOO@+   rrrrsaaaasaattt. 244",
"122233337223oX$&@OO&$$OOOO+   rrrrasssaaaattt  41;",
"22;23323:::=oo<<,ttttrttrtt@@O<<<<tttttree<<,  244",
"341;232222::oo<<,qtttrttttt##@<<<<tttrrrrr<<<  344",
"144112211144XX<<<tttttttttt&&#<<<<tttrrrrr><> X544",
"122;;-1;1411XX<<<ttterttttt@#&<<,<rrttrtrr<<>  444",
"22:;11-11111XX,,<tttrretttt&#@<><,rtrrttrr<<<  421",
"222212421411XX,,,ttrrrttttt&OO<,,,tttttrrr<<> X122",
"124124544441.XO+&&%###OOOOO   O@%O++###O@$##@  121",
"144424444444  O@%%####O@OOO .o+#&O+&###@@O##O  211",
"482114412222 .@@####@&#O+O#X  ##%O+++OOOO#OOOXX124",
"411111111111.X<<<rrrttrrrtrO+O<,,>trtttttt,,<  224",
"24842;121211oo<<<wtttttrrtt%O+,,,,tttrrttt,,,. 344",
"411112212222Xo,<<ttqttwwrttO&@,,,<tttrtrrt,,,  124",
"4421;1224822  <<<tttttwtttt$%+O$O###O$OOO+OOO  ;12",
"890821;24231X <<<rrtttttttt#O+OOOO##OO$OO+OOOXX142",
"81;;21:;6121. OO+#O@#+O@@OO   OO#@O+$OO#O&++@  288",
"21;---       XO@#++O#@OOOOO   %OOO%$###+OOOO#  2;;",
"161;;=.     X @&#&+###@+OOO   O+O@%$O@#O+&++O  211",
"21;22.tttqtaasisarrrrrOOOOO   >,<<rrrrttte,,,  112",
":2225 ttrttaiisssttrtt@+OOO   <<<<rtqrrttt<,,o.911",
":3329 rrtttiisisitrttt++OOO  o<<<<twtwtttt<<<o 321",
"35935 <<,,,ttttet,<<,<        <<<<ttttrttq,<<. 342",
"55544 <<,,,ttttrt<,<,<        <,<<ttttttwt<<< o232",
"53324 >,<<,tttttr<<,,, 2;24342  X   o   .o..X1212;",
"9::2;X,,,<,tterrt<<<<, ::23333334222112;211;;;142:",
"5=:2=X<<<,<rreett<<<<< 233532::211221111;-;22--132",
"2::3:2X.        X. .X.432344222:222221111;111;123:",
"3;12;224:=33:3:42111144224;22122255554;24;24395333",
"9222245552504545211112224422222;355555150;24443233"
};
