/* XPM */
static char *a12d5fd3fdb14e108662bbb0509e3781CsNUo1ETvokkFAOE[] = {
/* columns rows colors chars-per-pixel */
"50 50 114 2 ",
"   c #000000",
".  c #1D1A37",
"X  c #1E1B38",
"o  c #312F3C",
"O  c #432614",
"+  c #573623",
"@  c #633C27",
"#  c #623C29",
"$  c #2E364D",
"%  c #33487D",
"&  c #464646",
"*  c #464648",
"=  c #646464",
"-  c #686866",
";  c #696768",
":  c #676968",
">  c #686868",
",  c #B66F15",
"<  c #B86E15",
"1  c #B67015",
"2  c #B77018",
"3  c #86B400",
"4  c #89B600",
"5  c #87B900",
"6  c #8CBC00",
"7  c #90BF01",
"8  c #D9992F",
"9  c #DA9931",
"0  c #8FC100",
"q  c #93C402",
"w  c #98C706",
"e  c #96C805",
"r  c #98C804",
"t  c #99C905",
"y  c #98CB04",
"u  c #9ACA04",
"i  c #99C806",
"p  c #98CA06",
"a  c #98CA07",
"s  c #9ACA06",
"d  c #9BCB07",
"f  c #9DCD07",
"g  c #9ACA05",
"h  c #97C409",
"j  c #97C608",
"k  c #96C709",
"l  c #95C308",
"z  c #98C709",
"x  c #9AC708",
"c  c #9AC70A",
"v  c #98C709",
"b  c #97C80A",
"n  c #96C809",
"m  c #9BC809",
"M  c #9AC909",
"N  c #99CB08",
"B  c #9BCA08",
"V  c #99C80A",
"C  c #98C90B",
"Z  c #9BC80B",
"A  c #99CB0A",
"S  c #9BCA0A",
"D  c #9ACC08",
"F  c #9ACC09",
"G  c #9BCD0A",
"H  c #9DCD09",
"J  c #9CCE0B",
"K  c #9DCF0B",
"L  c #9BCA0C",
"P  c #9DCA0D",
"I  c #9ECB0C",
"U  c #9CCA0F",
"Y  c #9BCB09",
"T  c #FFD433",
"R  c #FFD335",
"E  c #FFD534",
"W  c #FFD435",
"Q  c #FFD535",
"!  c #FFD536",
"~  c #FFD437",
"^  c #FFD435",
"/  c #3F548B",
"(  c #4767B0",
")  c #4868B1",
"_  c #ABABA9",
"`  c #AAAAAA",
"'  c gray67",
"]  c #ACAAAB",
"[  c #AAACAB",
"{  c #ABABAD",
"}  c #ACACAC",
"|  c #ACACAE",
" . c #ABABAB",
".. c #AEE3F5",
"X. c #ACE3F7",
"o. c #AEE2F7",
"O. c #AFE3F8",
"+. c #ADE4F8",
"@. c #D5D5D5",
"#. c #D6D6D4",
"$. c #D7D5D6",
"%. c #D5D7D6",
"&. c gray84",
"*. c #D7D7D7",
"=. c #D6D8D7",
"-. c #D6D6D8",
";. c #DFFFFC",
":. c #DEFEFD",
">. c #DFFFFE",
",. c #E0FEFE",
"<. c #FFFFFD",
"1. c #FEFEFF",
"2. c #FEFFFF",
"3. c white",
/* pixels */
"q q q q q q q e e e e e q e e e 0 0 0 0 q 0 q e q q q 0 q q q q 0 e q 0 e e q a q r e q 0 q q q q q ",
"0 q q q q 0 q q q e e q q q q q q 0 0 0 q q q q K F e q q q q q 0 e q 0 q q q a a a N e q 0 0 0 q q ",
"q q e e q q q q q q e q q q q q 0 q q q       q q q q q e q q q 0 q     q q q q w B N e q 0 0 q q q ",
"q q e e q q q q q q 0 0 0 q q q 0 e e   , , W     q e N e q 6 6 0   >.>.  q q q q w e q 0 0 q q 0 0 ",
"0 q q q q q 0 0 0 0 6 6 6 q q q q e a   1 , W     0 q e a a a K 0   >.>.  q q q e q q q q q 0 q q q ",
"q q q q q q q 0 0 0 6 6 0 q e q q     , 9 9 9 W R     e q q 7 6 0   +...>.    7 q 7 6 0 q q q e q e ",
"q q 0 0 0 0 0 0 0 q q 0 0 q q q   : > 3.3.3.3.9 9 ' |   a a q     ........>.>.    5 6 q q q q e q q ",
"q 0 6 5 5 5 6 5 q q e q q q q e   > > 3.3.3.3.9 9 [ '   a K a     ....O...>.>.    5 6 q q 0 0 q q q ",
"q e 0 6 0 0 6 q q q e N e q     & > ; | &.&.3.&.&.' '   a q   >.>...T W ......>.>.  q 7 q e e q q q ",
"q q q 0 q q q q e e e e     & & > ' ' ' &.&.&.3.3.&.&.{     w       , , W ....>.>.  w q e N e q q q ",
"q e F e q e e q e e e e     & & ; ' ' ' &.&.&.3.3.&.&.'     q       , , W ....>.>.  h e q h q 0 e e ",
"q q N e q q e 0 q q q q     > > ' ' ' ' ' ' &.&.&.&.-.' ' '   q q   W W , >.,.    l e q q e q q q q ",
"q e N e q e a 0 0 q q   > > < , W { '                         L a   W W   >.>.    4 4 4 4 6 0 0 q q ",
"q e e q q e e q q q q   > > , , W | '                         I a   W W   >.>.    4 5 3 5 5 6 6 q q ",
"0 q 0 6 0 q 0 6 0     & > - , , , 9 9 9 W W             W W ,       W W       4 4 7 q l q q q e q q ",
"q e q 0 q q 6 7 6     & > > , , , 9 9 9 W W             W W <       W T       4 5 6 e N N e e e f f ",
"q e q q N w 4 3 4 4 7       & & > , , 9 9 9 W T W W W 9 , ,   l q   W W   l 4 5 6 3 4 h I e 7 q e e ",
"q e q q x x 7 5 3 5 7 q q q       , < , 9 9 9 9 9 9 9 ,     7 7 q   T W   N l 6 5 3 3 6 6 4 7 I 6 0 ",
"q e q 7 q e q 7 4 7 e N q q       1 , , 9 9 9 9 9 9 9 <     6 7 q   W W   x l 4 3 3 4 7 7 6 q x 0 q ",
"q q 6 5 6 q           N q q F e   , , , , , 9 9 9 , ,   e q 7     a     9     7 4 4 4 7 x N e q q q ",
"q q q 6 q q     W W W           , & & . , , , 1 , . . ,       9 9       9     7 x l 7 q e N e q e e ",
"0 q q q w N     W R W           , & & . , , , , , . . 1       9 9       9     q N x l q 7 q q e 6 6 ",
"q q 0 q a e     , 9 9 W &.&.3.3.W & & 3.. . . . . 3.3.& 9 9 &.' '       9     x e w w e q 6 7 q e e ",
"e q 0 7 q q q q   & & ' -.&.&.=.W & & &.3.3.3.3.3.&.&.& W W ] ' ' =     9     q x w q q 7 7 q q e q ",
"q e e 0 6 q q 0   & * ' &.&.&.&.W & & &.3.3.3.3.3.&.&.& W W ' ' ' =     9     q q e e q q q a F a e ",
"q q q 6 6 6 6 6   ' ' &.' | W W 9 & & &.&.&.3.&.&.&.&.& 9 9 W ] ' = , , 9     w e w q q 0 q q q e q ",
"q q 0 0 0 6 0 0   ' ' &.' ' W W 9 & & &.&.&.3.&.&.&.&.& 9 9 W ' ' = , 1 9     w w N a q q q q q q q ",
"q q q q q q     & [ ' ' &.&.9 9 . & & ' &.&.&.&.&.] ' & . . 9 W W 9 . . ,     6 6 6 q q q q q q q q ",
"q e q q q e     , 9 9 W 9 9 9 9 . & & ' ' ' &.' ' ' ' & . . . / / % # @ #         5 0 q e e q 0 q q ",
"q e e q q a     , 9 9 W 9 9 9 9 . & & ' ' ' &.' ' ' ' & . . . / / % # # #         6 q b N e q q 0 0 ",
"e e q q q q q q   % % ) % % $ $ . X . > | ' [ ' ' = = . . . % % % W # # # O O     7 0 q q q 0 0 q e ",
"w q 0 0 0 0 0 0 0     % ) ) % % $ . . = ' ' W ' ' = = .       , , 8 # # O O O     e q e q q q q q q ",
"q e a e q 0 0 q 0     % ( ) % % $ . . = ' ' T ' ' = = .       , , 9 # # O O O     q q e e q q e e e ",
"q q 6 6 0 q q q q     9 W W , , , # # # 9 9 , 9 9 # # O     r     , , < ,     q e q q q 0 6 6 0 q e ",
"e e q q q 0 q q b e q   # # # # @ # @ # # # W # # # # O     a a q       2     q q q 0 q 6 5 6 0 q q ",
"N G G e q 0 q q e e e   @ # # # # # # # # # W # # # # O     q q 0       ,     q q 0 q q 0 6 0 q q q ",
"b q 6 6 0 q 0 6 q q q   # # # # # . . . = = ' = = . . .     q q q q     9     0 q q q q q q q q q e ",
"q 6 5 5 4 5 6 6 6 q q q     O O O . . . = = ' = = . . X     q a e e     9     q q q q e e e q q 6 6 ",
"q q q 6 5 5 4 6 7 q x w     O O O . . X = = ' = = . . .     q F e a     9     q q q q q e e q q 0 0 ",
"q q 7 q q q 6 4 6 q q w a a     9 , < . = = ' = = . . 9     q N e e     9     0 0 q q q q q q q q q ",
"q q q q a N 7 q q 7 q a a q     9 , , . = = ' = = X . 9     5 5 q 0     9     q q 0 q e q q q N 6 0 ",
"q r a q N K q q 6 4 q q q q     , , , $ = = = = = $ $ <     e N 0 q     9     q q e e 0 6 q e q q q ",
"q a K q a K q 4 5 4 6 q q q     $ $ $ $       $ $ $ $ $     w I 0 q     9     0 e a F N e e e e b q ",
"u a K q q a q 6 6 6 6 7 q w     $ $ $ $       $ $ $ $ $     e w q a     9     q 0 q q e q 0 q q e q ",
"f q q q q q q q q q 7 6 q N a e   $ $ o     q q 6     $ $ $   N q e a q   9 9     q q 5 3 0 q q q q ",
"K 6 q q 6 4 4 6 7 6 4 4 6 l l 7   # # #     q q q     # # #   w q q q q   9 9     q q 6 6 6 q q q 0 ",
"a 6 q q 4 4 4 4 4 4 5 4 4 4 6 4   # # #     q q a     # # #   q q q q q   9 9     5 6 q q 5 3 0 e q ",
"q 4 q q 7 q q 7 7 7 q 6 4 5     + + + +     q q q     + + + +     0 q e   , ,     6 0 q 0 6 0 q w q ",
"e 6 q q 6 q q q 7 4 q a 6 e                 e q q                 u u a           6 q e w K d w w w ",
"N 0 q q q e f K u q f K q f                 e q q                 f f a           0 q e q a q q w w "
};
