/* XPM */
static char *seamless_textured_grass_natural_grass_pattern_172107_1308__1_1706203853[] = {
/* columns rows colors chars-per-pixel */
"50 50 226 2 ",
"   c black",
".  c #1C160A",
"X  c #13131E",
"o  c #0F191C",
"O  c #281C0F",
"+  c #1F2900",
"@  c #212C01",
"#  c #352515",
"$  c #373810",
"%  c #0D1220",
"&  c #161821",
"*  c #0A1D36",
"=  c #2A2A2B",
"-  c #252739",
";  c #352630",
":  c #1E3239",
">  c #48331E",
",  c #513A24",
"<  c #5A2E35",
"1  c #603331",
"2  c #314201",
"3  c #394613",
"4  c #264037",
"5  c #494A0B",
"6  c #475A04",
"7  c #494710",
"8  c #584F1A",
"9  c #4D5D1B",
"0  c #4D6607",
"q  c #536E02",
"w  c #526307",
"e  c #5E7E00",
"r  c #567004",
"t  c #536915",
"y  c #5D4329",
"u  c #42532B",
"i  c #56453C",
"p  c #42413E",
"a  c #67492D",
"s  c #644A34",
"d  c #6E4F32",
"f  c #6B5139",
"g  c #6D5034",
"h  c #785532",
"j  c #785738",
"k  c #72532C",
"l  c #5A6F39",
"z  c #6C7E2A",
"x  c #153152",
"c  c #3A3A5A",
"v  c #323842",
"b  c #1B3E6F",
"n  c #081E53",
"m  c #583A4E",
"M  c #663241",
"N  c #3F4655",
"B  c #3E425D",
"V  c #234154",
"C  c #414244",
"Z  c #4C4C4D",
"A  c #43435C",
"S  c #4B4959",
"D  c #555759",
"F  c #4C534C",
"G  c #715D48",
"H  c #526343",
"J  c #556254",
"K  c #766857",
"L  c #6E6455",
"P  c #454A62",
"I  c #4D4E63",
"U  c #464A65",
"Y  c #534F63",
"T  c #4D5164",
"R  c #525365",
"E  c #575A69",
"W  c #545A76",
"Q  c #4B5471",
"!  c #625D66",
"~  c #5C626E",
"^  c #5B6478",
"/  c #6B6B6C",
"(  c #686869",
")  c #716B66",
"_  c #74716E",
"`  c #7C7368",
"'  c #656D78",
"]  c #737373",
"[  c #797979",
"{  c #845D34",
"}  c #865F38",
"|  c #92452D",
" . c #A5552B",
".. c #8E663D",
"X. c #886637",
"o. c #976A3B",
"O. c #9F703F",
"+. c #916B27",
"@. c #A66C2F",
"#. c #A87339",
"$. c #AF7A35",
"%. c #906317",
"&. c #85394F",
"*. c #84694D",
"=. c #936D45",
"-. c #9B7449",
";. c #887159",
":. c #8E7358",
">. c #A77744",
",. c #B17B41",
"<. c #BC7B4A",
"1. c #965877",
"2. c #867668",
"3. c #837D79",
"4. c #917F6B",
"5. c #985058",
"6. c #DF2219",
"7. c #5F8100",
"8. c #638302",
"9. c #6E9400",
"0. c #719501",
"q. c #739A02",
"w. c #759A1D",
"e. c #7CA701",
"r. c #7CA414",
"t. c #6C8B27",
"y. c #799D20",
"u. c #668032",
"i. c #91871F",
"p. c #83AC02",
"a. c #83AA0B",
"s. c #86B501",
"d. c #89B601",
"f. c #87B900",
"g. c #8CBC00",
"h. c #8DBA0C",
"j. c #90BF01",
"k. c #9AAC19",
"l. c #A2B81A",
"z. c #9E9D2B",
"x. c #B6883B",
"c. c #A8963A",
"v. c #A88B30",
"b. c #A6A32D",
"n. c #B0B12D",
"m. c #8FC100",
"M. c #93C402",
"N. c #98C706",
"B. c #96C905",
"V. c #99CA06",
"C. c #9CC50A",
"Z. c #97C908",
"A. c #9BCB09",
"S. c #95C308",
"D. c #9DD10C",
"F. c #AD824E",
"G. c #B88A4A",
"H. c #BB8E52",
"J. c #BF9153",
"K. c #A98A56",
"L. c #BCA243",
"P. c #8A8279",
"I. c #94887A",
"U. c #99836B",
"Y. c #B28E67",
"T. c #A48D75",
"R. c #AD8B67",
"E. c #92AC5A",
"W. c #C79855",
"Q. c #C89855",
"!. c #C3914D",
"~. c #D8B151",
"^. c #CAB362",
"/. c #B7D771",
"(. c #103DA5",
"). c #1B51A3",
"_. c #326DA5",
"`. c #5B6685",
"'. c #626E88",
"]. c #617181",
"[. c #767B82",
"{. c #506FBA",
"}. c #2676F5",
"|. c #7C848B",
" X c #7D8186",
".X c #7C8794",
"XX c #378EF4",
"oX c #4198F6",
"OX c #828282",
"+X c #8B8680",
"@X c #8F8B85",
"#X c #958D81",
"$X c #968E84",
"%X c #9A958D",
"&X c #858E97",
"*X c #949492",
"=X c #8D9297",
"-X c #A89C8A",
";X c #A39F99",
":X c #A8A298",
">X c #8A99A9",
",X c #969FA7",
"<X c #9AA8B6",
"1X c #92A7B1",
"2X c #ABABAC",
"3X c #A1A6A8",
"4X c #B2ACA2",
"5X c #B5B4B3",
"6X c #B2B2AD",
"7X c #D19399",
"8X c #CBA780",
"9X c #CBBCAC",
"0X c #E0B7B5",
"qX c #D0C4B8",
"wX c #91A9C1",
"eX c #BFC7CF",
"rX c #B6C6D6",
"tX c #D4D4D4",
"yX c #D9D7D4",
"uX c #D0CFCE",
"iX c #E3DFD8",
"pX c #E1D3C3",
"aX c #CDDCE3",
"sX c #E7E7E7",
"dX c white",
"fX c #F7FCFF",
/* pixels */
"M.M.B.M.M.m.M.B.B.B.B.B.B.B.B.B.M.m.m.m.B.m.m.B.B.m.m.m.m.m.B.m.m.B.B.m.D.B.B.V.M.B.M.M.m.B.B.m.B.m.",
"m.M.M.M.m.m.M.M.M.B.B.B.M.M.M.M.M.M.m.m.m.m.B.B.D.D.B.m.m.B.m.m.m.B.m.m.B.m.M.B.B.D.V.B.m.m.m.m.B.m.",
"m.M.B.B.M.M.m.m.M.M.B.M.m.M.M.M.m.m.B.m.m.m.B.m.m.m.m.m.m.B.B.B.m.M.M.M.m.m.B.B.V.V.B.B.B.m.m.m.m.m.",
"m.M.B.M.M.M.m.M.m.m.m.m.m.m.m.m.m.B.B.B.B.m.m.B.m.B.B.D.B.m.m.m.m.m.M.M.B.m.M.M.B.B.B.M.m.m.m.M.m.m.",
"m.m.M.M.M.M.m.m.m.m.m.m.m.M.M.M.B.B.B.m.m.B.m.m.m.g.M.B.B.B.V.D.m.m.M.M.M.M.j.M.B.M.M.M.M.g.m.M.m.B.",
"M.M.m.m.M.M.M.m.m.m.g.f.m.M.M.M.B.B.B.B.m.m.m.m.B.B.M.B.B.M.m.m.m.M.M.M.M.M.j.j.M.j.g.M.M.M.B.M.B.B.",
"M.M.m.m.m.m.m.m.m.M.M.m.m.m.M.M.B.B.B.B.m.m.f.e.9 5 8.8.8.8.m.m.M.V.V.M.M.M.j.g.d.d.g.j.M.M.M.B.B.m.",
"M.m.m.f.f.f.g.f.M.M.B.M.m.M.M.B.D.B.B.m.m.m.f.7.L *.Z Z F   r M.M.D.A.M.M.M.g.g.d.g.g.j.M.m.m.M.m.B.",
"B.B.m.9.e w O e 8.M.V.V.B.M.M.m.B.m.m.f.m.m.M.7.G.x.uXdXdX3XZ 8.m.m.M.f.B.m.j.j.M.S.M.M.M.B.B.M.m.m.",
"m.M.q.$ k X.O.k , r N.N.M.M.m.M.m.m.m.m.q.2 2 @ L.x.uXdXdXdXZ e m.m.M.g.A.M.S.C.N.N.N.N.B.V.B.M.B.B.",
"M.B.8.2XdXdXdX5X5X2 B.M.m.g.m.M.m.m.Z.2 v wX<X].Z ' ] _ ] ] 2Xe m.M.B.m.V.M.j.j.S.C.2 2 M.Z.B.g.B.M.",
"m.M.D dXdXdXsX5X5X] 8.B.M.m.m.m.m.B.8.].>X&X) N v.%.N ) &X>XD 8.M.B.V.M.A.M.j.p.7 # h > # 7 0.M.m.M.",
"M.q f 8X8X8XY.Y.Y.*.2 Z.Z.m.M.B.m.M.@ ~ _ 3.%X[.^.x.[.%X[ _ E @ Z.B.D.V.C.j.j.e I.9XK.G 9XI.2 M.m.M.",
"M.B.o x o...h { # 2 q 7 s.B.B.A.e.u ' ! / ` T.U.~.x.U.P.` K F ' u s.V.B.j.9.7 D dXsXR.K sXdX2Xq.m.M.",
"m.m.x XX..{ h h # t 2 y @ 2 2 2 @ ' ) :.-.>.$...~.+.g y y y :.) ' @ 2 2 $ . O =.T.2.-.s 2.T.R.5 B.V.",
"M.B.4 ).$.j s ...X_.  =.*.O.....O.) O.O.o.} ..O.@.k , d j ,.#.*./ #...X.O.o.o.    ..O.a X.V * p.A.A.",
"B.B.p.@ ,.j j ..{.).  ....O.....O.3.I.O.=.#.,.=.h g *.$.=...} I.3.O.....-.O.o.: _.X.o.y } oX).q.M.B.",
"M.N.N.2 , o...{ . 0 /.L 6XfXyXZ K ]  XU.-.2.2.;...>.-.4.2...R.|.S # i tXtXi # n }.-.d k O.(.b a.m.m.",
"M.B.j.0.O a { > 6 g.m.aX3XsXyX= *X*X_ K K =XeXqX,.=.9XuX&X,.-.I - 6 = yXtX= 6 9 n O.j j =.@ 0.N.m.M.",
"M.B.j.d.e # , $ p.j.B.E.] tXyX= 4 ( ] L ` P.4XpX=.j uX:X+X;.) c $ h.= tXtX= 8.e.+ { O.>.} 2 Z.j.M.M.",
"M.M.M.g.j.0.2 V.C.M.S.8.D tXtX= 8./  XE ^ ( $XyXrXrXtX$X_ / m % V.M.= tXtX; e j.q > y y > r N.M.B.B.",
"g.M.j.M.V.C.V.C.N.S.N.p.3 OX X0 e.7 C 1X[.S Y %X2X2X:XR Y I U % B.g.0 OXOXw p.M.D.6 . . w j.M.B.m.m.",
"m.M.M.m.V.V.M.N.j.j.g.g.f.0 0 m.B.M.: ] &X3X] I Y Y I E Q T c % B.M.V.r q B.V.C.C.C.S.M.j.j.j.M.B.B.",
"B.M.M.g.M.M.M.N.j.M.j.g.f.m.m.M.m.B.2 - *XOX&X/ #X#XP.' ^ Q B & M.m.V.V.g.M.N.M.N.C.M.M.j.j.M.M.B.B.",
"M.B.N.m.g.m.m.m.B.m.B.m.B.m.M.m.M.M.8.- c W =X X<X#X$X^ ].U P Q 3 h.Z.m.m.m.j.j.M.M.B.M.m.M.B.V.B.B.",
"m.M.m.g.g.g.g.m.m.m.m.m.M.B.M.M.g.g.e - U A S <X<X] ,X( '.^ c ~ F 7.B.m.M.M.B.N.N.B.B.M.m.M.M.B.B.B.",
"B.j.j.M.m.m.m.m.m.m.m.m.B.B.B.M.B.0.N A P R I Y ! ;X3X[ <XW &X[.2 M.M.M.M.M.N.N.V.C.B.B.M.M.M.B.M.m.",
"M.M.M.M.m.m.M.M.m.B.m.m.m.B.M.M.M.2 .XI I I E A P 3.3.3.=X,X' [.2 M.M.M.M.g.g.g.j.j.m.M.M.m.M.M.M.M.",
"m.M.B.m.M.Z.Z.B.B.B.m.m.m.M.B.M.9.J ^ T U T ] ' W Y I W E Y R - q.B.Z.B.M.g.f.d.d.d.g.N.B.M.m.M.m.m.",
"m.B.B.B.M.S.y.w.S.V.B.B.M.M.M.M.t R >XW P E [ *XOX|.[.[.R P P X B.Z.Z.Z.M.M.g.f.g.g.M.B.A.B.M.M.m.m.",
"B.B.m.m.m.H N N H M.M.m.M.M.B.B.= |..XB U R P.;X-X-X-X$X] A c X M.Z.Z.Z.M.M.j.j.M.M.t.t.B.m.m.m.B.B.",
"N.M.m.m.w.N N N N r.m.m.M.M.l.X.v [.[.N I _ +X-X-X-X-X@X/ E A X x.l.S.M.M.m.M.S.B.w.N A y.m.m.M.M.B.",
"M.B.V.B.N N N N N l m.m.m.M.b.$ W `.Q B T _ I.4XiXiX4X@X( A B < 1.<.n.j.B.m.B.Z.B.H N N H S.m.Z.B.B.",
"M.m.m.m.m.N N N N M.B.m.M.M.i...'.`.`.U R ( 3X2XE ! 2X:X_ m S 1.5.&.+.k.B.M.m.B.m.N N N N m.f.m.B.B.",
"B.B.M.m.g.N N N N B.M.S.B.A.z 1 W Q R B R / uX- % % : uX5.7XM 1 &.1 1 l B.M.M.M.t.N N N N t.f.m.m.m.",
"Z.A.A.Z.g.w.N N y.B.M.m.B.B.f @.s D <X^ P [ yXo % % % 0X7X6.7X .@.@.i.j.M.B.M.B.l N N N N l m.m.M.N.",
"Z.S.g.g.M.r.F F r.M.M.j.m.m.c.Q.#.4.P.G S ~ uX; ; ; ; uX5.7X| -.!.Q.!.b.M.M.m.m.M.N N N N m.m.m.B.Z.",
"S.m.f.d.f.g.r.r.g.M.M.M.M.M.z.l.W.>.>.J.=.;.tXs a s s tX*. .G.!.Q.n.L.c.B.B.M.m.M.u.N N u.Z.M.M.g.m.",
"m.M.M.g.f.d.g.g.j.S.N.B.N.V.C.c.L.Q.W.Q.!.<.#.f f f g #.!.J.W.Q.~.l.V.B.B.B.M.M.B.M.M.M.B.B.B.M.m.m.",
"m.M.g.M.S.M.j.g.g.M.B.N.V.V.C.C.k.b.k.L.Q.W.$.s f f f $.H.!.z.F.l.h.B.M.M.M.M.m.m.m.M.m.M.m.M.m.m.M.",
"j.M.M.M.V.V.j.M.M.j.M.N.N.j.M.N.M.N.z.V.M.n.v.8 8 8 8 v.k.g.f.d.M.m.m.m.M.m.m.M.M.m.m.B.M.m.M.B.g.m.",
"j.N.V.M.C.D.j.j.g.g.j.N.B.j.M.B.j.M.j.V.V.V.M.V.C.V.j.M.M.j.N.A.m.m.M.M.M.m.m.M.M.B.B.m.m.M.B.B.M.m.",
"N.V.A.N.V.A.j.j.d.g.g.j.M.M.M.M.j.j.j.N.B.N.M.M.V.V.N.j.j.M.N.A.m.B.V.B.M.m.m.m.B.B.D.D.B.B.B.B.Z.M.",
"V.V.V.N.N.V.j.j.g.j.j.j.M.N.N.M.N.M.M.j.j.M.M.M.M.N.N.N.j.j.C.N.m.B.D.B.M.M.M.m.m.m.M.M.B.m.m.M.N.M.",
"V.N.N.j.M.M.j.j.j.j.j.j.M.C.A.C.C.M.N.M.M.j.M.M.j.M.N.N.M.N.C.C.M.B.B.B.m.M.M.m.m.Z.m.s.f.m.M.m.M.j.",
"D.j.j.M.j.g.d.j.j.j.g.d.j.j.S.j.g.j.M.j.M.j.j.j.j.N.N.N.V.M.M.V.m.M.M.M.M.m.m.m.m.M.m.m.g.g.m.M.M.j.",
"V.j.j.N.g.d.d.j.j.d.d.d.d.j.j.d.d.g.j.j.M.j.M.j.N.V.V.N.M.M.j.M.m.M.m.M.m.m.m.m.m.f.f.M.S.s.f.m.M.M.",
"j.d.N.M.j.S.j.j.h.j.j.j.d.d.g.g.j.j.S.j.M.j.B.B.B.N.N.N.M.M.j.M.M.m.M.B.m.m.m.m.g.g.m.m.m.m.m.M.V.j.",
"V.j.m.M.g.M.M.M.j.g.M.N.j.N.j.N.M.m.m.M.m.M.B.M.B.B.m.M.M.m.M.m.M.V.V.V.V.B.g.M.B.f.M.B.N.A.V.N.N.N.",
"N.j.M.N.M.B.V.A.N.B.V.A.N.V.N.V.M.m.m.m.m.M.B.M.B.M.m.M.M.M.M.g.V.D.V.V.B.B.m.V.D.m.M.B.N.V.N.M.N.N."
};
