/* XPM */
static char *b226fab0f229456dc848e0d891420b00A1wwcWWCTG5UBTj9[] = {
/* columns rows colors chars-per-pixel */
"50 50 244 2 ",
"   c #85B200",
".  c #84B300",
"X  c #86B300",
"o  c #87B400",
"O  c #85B700",
"+  c #87B600",
"@  c #86B700",
"#  c #88B500",
"$  c #89B600",
"%  c #88B700",
"&  c #89B700",
"*  c #8AB700",
"=  c #86B800",
"-  c #87B800",
";  c #87B900",
":  c #89B800",
">  c #88B900",
",  c #8AB800",
"<  c #8BB800",
"1  c #8AB900",
"2  c #8BB900",
"3  c #88BA00",
"4  c #89BB00",
"5  c #8BBA00",
"6  c #8ABB00",
"7  c #8CB900",
"8  c #8CBA00",
"9  c #8DBA00",
"0  c #8CBB00",
"q  c #8DBB01",
"w  c #8EBB00",
"e  c #8ABC00",
"r  c #8BBC00",
"t  c #8BBD00",
"y  c #8BBF00",
"u  c #8DBC00",
"i  c #8CBD00",
"p  c #8DBD00",
"a  c #8FBC00",
"s  c #8EBD00",
"d  c #8EBC01",
"f  c #8FBC01",
"g  c #8CBE00",
"h  c #8DBE00",
"j  c #8CBF00",
"k  c #8DBF00",
"l  c #8EBE00",
"z  c #8FBE00",
"x  c #8FBF00",
"c  c #8EBF01",
"v  c #8EBC02",
"b  c #8FBD02",
"n  c #90BD00",
"m  c #91BE00",
"M  c #90BF00",
"N  c #91BF00",
"B  c #91BE01",
"V  c #90BF01",
"C  c #90BC03",
"Z  c #90BE03",
"A  c #91BE03",
"S  c #92BF02",
"D  c #91BD04",
"F  c #91BF04",
"G  c #92BE05",
"H  c #93BF06",
"J  c #8DC100",
"K  c #8EC000",
"L  c #8EC100",
"P  c #8FC100",
"I  c #8EC200",
"U  c #8FC200",
"Y  c #8EC300",
"T  c #8FC300",
"R  c #8FC201",
"E  c #8FC002",
"W  c #90C000",
"Q  c #91C000",
"!  c #91C100",
"~  c #92C000",
"^  c #92C100",
"/  c #93C001",
"(  c #92C101",
")  c #90C200",
"_  c #91C300",
"`  c #90C201",
"'  c #92C200",
"]  c #93C200",
"[  c #93C300",
"{  c #91C002",
"}  c #90C103",
"|  c #93C003",
" . c #92C103",
".. c #90C302",
"X. c #91C302",
"o. c #93C202",
"O. c #94C200",
"+. c #95C300",
"@. c #94C301",
"#. c #94C102",
"$. c #95C203",
"%. c #94C303",
"&. c #90C400",
"*. c #91C400",
"=. c #91C500",
"-. c #91C501",
";. c #92C400",
":. c #92C500",
">. c #92C401",
",. c #93C501",
"<. c #92C600",
"1. c #93C600",
"2. c #93C700",
"3. c #92C601",
"4. c #91C403",
"5. c #93C502",
"6. c #92C403",
"7. c #92C602",
"8. c #93C702",
"9. c #93C703",
"0. c #94C400",
"q. c #95C500",
"w. c #95C501",
"e. c #96C401",
"r. c #94C700",
"t. c #96C600",
"y. c #97C701",
"u. c #95C402",
"i. c #97C502",
"p. c #96C503",
"a. c #97C503",
"s. c #94C602",
"d. c #94C603",
"f. c #95C703",
"g. c #96C602",
"h. c #97C703",
"j. c #92C005",
"k. c #91C204",
"l. c #93C204",
"z. c #92C305",
"x. c #94C104",
"c. c #95C205",
"v. c #94C305",
"b. c #96C304",
"n. c #94C106",
"m. c #96C306",
"M. c #92C504",
"N. c #93C504",
"B. c #95C404",
"V. c #97C405",
"C. c #96C505",
"Z. c #95C704",
"A. c #94C605",
"S. c #97C604",
"D. c #95C406",
"F. c #97C407",
"G. c #96C507",
"H. c #95C706",
"J. c #97C606",
"K. c #99C702",
"L. c #98C603",
"P. c #98C604",
"I. c #98C705",
"U. c #99C705",
"Y. c #9BC605",
"T. c #98C506",
"R. c #99C607",
"E. c #98C707",
"W. c #95C801",
"Q. c #94C803",
"!. c #96C902",
"~. c #97CA03",
"^. c #94C804",
"/. c #95C904",
"(. c #95C905",
"). c #96C804",
"_. c #96C805",
"`. c #97C905",
"'. c #96CA05",
"]. c #97C906",
"[. c #96C807",
"{. c #96CA06",
"}. c #97CB06",
"|. c #97CB07",
" X c #98C802",
".X c #99C903",
"XX c #98C804",
"oX c #99C905",
"OX c #9AC805",
"+X c #98CB04",
"@X c #9ACA04",
"#X c #9BCB05",
"$X c #99C806",
"%X c #9AC806",
"&X c #9AC907",
"*X c #98CA06",
"=X c #98CA07",
"-X c #99CB07",
";X c #9ACA06",
":X c #9BCB07",
">X c #99CC05",
",X c #98CC07",
"<X c #9CCC06",
"1X c #9DCD07",
"2X c #9FCE06",
"3X c #95C308",
"4X c #96C308",
"5X c #97C409",
"6X c #97C608",
"7X c #99C609",
"8X c #98C709",
"9X c #9AC708",
"0X c #9AC70A",
"qX c #97C908",
"wX c #97C80A",
"eX c #99C808",
"rX c #9BC809",
"tX c #9AC909",
"yX c #99CB08",
"uX c #98CA09",
"iX c #9BCA08",
"pX c #99C80A",
"aX c #9BC80B",
"sX c #99CB0A",
"dX c #9BCA0A",
"fX c #9CCA08",
"gX c #9CCB09",
"hX c #9CC90A",
"jX c #9CCB0B",
"kX c #9ACC09",
"lX c #9BCD09",
"zX c #9BCD0A",
"xX c #9ACC0B",
"cX c #9CCC08",
"vX c #9DCD09",
"bX c #9ECE08",
"nX c #9DCC0A",
"mX c #9ECD0B",
"MX c #9CCE0A",
"NX c #9CCB0D",
"BX c #9CCA0F",
"VX c #9DCF0C",
"CX c #9DCC0E",
"ZX c #9DD10C",
/* pixels */
") >.d.>.) ) >._.Z._._.Z.Z._._.Z.>.P P P >.P >._.>.d.) P ) >.>.P P _.>.P _._.d.=Xd.d.d.) T >.>.>.>.>.",
"P >.d.>.) P ) >.>._._.Z.>.>.d.>.>.P P >.>.>.>.d.VXsXZ.) ) ) ) ) P Q.>.>.d.d.d.=X=X=X=XZ.>.T P P ) ) ",
") >.Z.Z.>.) ) ) ) d.Z.>.) ) ) ) P >.>.>.>.>.>.>.) ) >.d.Z.d.>.>.P >.>.>.>.>.d.d.E.jX=X_.>.P P >.) ) ",
") >.Z.Z.d.>.) ) ) ) ) P P ) ) ) P Q._.>.P >.>.>.>.>.Z.yX_.) g g P P >.>.) ) ) d.d.Z.Z.>.P P >.>.P ) ",
"P ) >.>.>.>.) P P P g t g ) >.) >._.|.9.) >.) ) P P ) Z.=X=X=XMXP P >.d.) ) @.) E.d.) ) ) ) P >.>.>.",
") ) ) ) >.>.) ) P P g t P >.d.>.>._._.9.) P P P d.d.d.Z.d.) g g P >.d.>.>.) ) n ) n g P >.d.>.>.d.Q.",
"d.>.P P P P P P P ) ) P P >.d.d.qX_._.Z.) g g g = t ) d.=X=X) g ) >X=X>.d.@.n g 3 3 9 ) >.>.>._.d.Q.",
">.P t 3 3 3 3 3 ) d._.d.) ) >.Z.sX_.N.N.) g t g g ) @.d.=XMX=Xd.) ZXsX) d.d.g 9 3 3 g ) ) P P >.>.>.",
">.Z.P g P P g ) ) d.=XyX_.>.) P N.) ) 3 ) ) d.P ) d.) MXE.) MX@.P P ) = =Xn ) ) ) @.) ) ) _._.>.) ) ",
") >.>.P ) ) ) ) Z._._.Z.>.) ) >.) g ) g d.) d.d.d.@.) =Xd.) E.n ) ) >.t yX) @.) E.yXE.Z._.yX_.>.d.d.",
">._.yX_.>._._.>._._.Z.>.P P P ) >.) Z.Z.=X) d.=XyX) ) Z.@.) @.g ) >.d.) yX) x.x.Z.9X5XZ.Z._.>.P Z.Z.",
") d.yX_.) d._.P >.>.d.d.>.P P ) ) >.Z.Z.Z.>.d.=XE.) ) ) ) @.) @.d.d.=Xd.yX) x.n x.x.Z.l.>.Z.Z.>.) ) ",
">.Z.yX_.) Z.=XP P ) d._.Z.>.>.d.g ) ) ) ) d.d.d.@.) ) g n ) x.yX=XQ.MX=XE.) n 9 9 9 9 3 3 g P P ) ) ",
">.Z._.d.>._._.) ) ) d._._.d.Z.yX>.d.) ) n d.) n ) ) g 3 9 9 x.VX=XQ.=X=Xx.n n 3 $ $ 3 $ $ 3 t g ) ) ",
"P ) P g P ) P g P ) >.=X_.d.Z.yX=X>Xd.Q.) d.) n @.Z.3 $ 9 $ H yX=X>.d.d.) ) n 3 9 n l.x.@.@.>.Z.d.d.",
">.Z.) P d.>.g P g P d.yX=X>.>.d.d.d.>.>Xd.d.) d.E.jXo o 9 o H 4XZ.P ) @.n ) ) 9 3 g Z.yXyXZ.Z.Z.MX<X",
">._.d.@.yXE.9 . $ 9 n ) @.) P ) >.>.>.=X<X=Xd.d.Z.yX9Xn 9 9 H x.) ) n @.9Xx.9 3 g . $ 5XBXZ.n x.d._.",
"d._.d.@.9X9Xn 3 $ 9 n @.) ) ) >.) P >.d. Xd.d.d.d.d.@.n 9 9 n n ) Z.E.E.jXjXx.g 3 . $ g g 9 H BXg P ",
"d.Z.) n ) Z.) n 9 n Z.yX@.d.yX=XP P ) >.>.) ) d.d.) n n g g g n ) =XyX=XE.9Xx.9 . . $ n n g ) yXP ) ",
"d.d.n 3 g ) x.x.@.n Z.yX) d.sX_.) ) >.>.) ) d.d.d.) ) d.Z.l.n ) E.=XjX=XE.E.x.n 9 9 9 @.9XyXZ.) d.d.",
">.>.) g ) Z.Z.9XyX) Z.yX) d.yX>.P >.>.>.) >.d._.d.>.d._.yX@.) ) :X>.d.d.) ) @.n 9Xx.n ) 5XyX_.>._._.",
"P ) ) ) E.yXE.E.yX@.@.Z.) ) >.P P >.>.) ) >.d._.>.>.d.Z.Z.) ) @.=Xg n d.n n @.@.yX9XZ.) n ) N.d.g g ",
") ) P ) E.E.d.d.n g g 3 3 3 t t P >.>.>.>.>.Z.d.) >.) P P ) ) ) =X>.d.=X@.@.jX=XZ.E.Z.Z.) g ) >._._.",
"_.d.P P d.d.@.d.) @.n g g t g ) P N.>.>.>.>.d.>.) ) g 3 3 P ) ) >.P =X=Xn ) =X@.9Xx.@.) ) n ) Z.d.d.",
") Z.Z.P g ) ) P ) ) >.) ) ) ) P ) N._._.N.) >.d.>.) P t P P P P d.d.d.>.) ) ) ) d.Z.Z.) ) >.=X=X=X_.",
") >.) g t t t t ) ) ) ) >.Z.d.) g P ) ) >.) >.>.g P >.>.>.>.>.P >.>.>.>.) @.d.E.Z.E.d.) P ) >.d._.d.",
"d.) P P P t t P >.T P P >._.E.d.d.@.) ) P g 3 o t ) _._.d.>.P P ) >.>.) ) ) Z.E.yXyX=Xd.>.>.d.d.) ) ",
"@.@.>.>.>.>.>.Q.>.>.) ) >.Z.Z.@.) ) n n ) P g 3 t ) _.=X_.d.>.>.) >.>.>.) g g g g n ) ) ) ) ) ) >.>.",
") Z.d.>.>._._.Q.Q._.Q.>.) >.@.@.n ) ) d.d.d.@.@.) @.Z._._.=X_.d.>._._._.) g 3 o $ 3 P Z.Z.d.>.P ) ) ",
") Z._.>.>._._.>._._._.>.) ) @.@.@.d.d.d.d.d.Z.Z.E.E.Z.N.Z._._.d._._.sXyXZ.P 9 3 9 g >.yXyX_.>.>.P P ",
"Z.Z.>.>.>.>.>.>.>.>.>.>.) d.Z.d.) @.d.L.E.E.E.yXE.Z.) ) ) >.) P _._.yXqXZ.) ) n ) n ) Z.d.) P P d._.",
"Z.) P P P P P P P P P P ) d.d.d.=X=X=XE.d.@.n g g g g 9 g ) ) ) >.>.N.>.) ) @.Z.yXZ.N.Z.N.) ) >.d.d.",
"d._.=Xd.) P P ) P >.>.) P ) >.d.@.) @.@.) 9 $ $ $ 3 $ 3 n d.L.=Xd.) P ) N.>.N._._.N.N.qXqXN.l.Z.d.Q.",
"d.) g g P ) ) ) >.>.>.) >.d.d.>.@.@.@.Z.@.) g n g ) ) n d.L.L.=X=X>.) d.Z.>.) N.Z.) ) >.P t t P d.Q.",
"_.Z.d.) P P ) >._.Z.N.>._.=X_.) d.d.d.) ) @.@.) g Z.Z.@.d.=X=X=X>.) P >.Z.d.>.d.>.) ) ) g 3 t P ) ) ",
"yXsXsX_.) P P N.Z.Z.N.>.Z._.d.) ) @.) n ) Z.E.Z.n yX=Xd.d.d.d.d.P g g ) d.>.>.d.) ) ) ) P g P ) d.d.",
"qXl.g g P ) P g l.l.) ) ) ) >.) ) @.) ) ) =XjXjX@.jXyX@.) @.d.d.>.>.) >.d.>.) P ) ) ) >.>.>.) ) d._.",
"l.g 3 = 3 3 t g g >.N.>.) >.>.d.L.d.) ) ) d.E.Z.) E.Z.) ) ) d.=X_._.d._._.d.>.) d.>.>.Z._._.>.) g P ",
") ) ) g 3 3 9 n n @.E.E.Z.=X=X=XMX=X@.) ) ) ) ) ) @.) n ) ) @.jX_._.d.d._._.d.>.d.d.d.d._.Z.d.>.P P ",
") ) n ) @.@.n 9 g ) d.=X=X X Xd.MXd.@.d.d.@.@.d.yXE.@.) @.n ) =XZ.d.d.>.>.>.) P P ) ) ) ) ) ) ) ) ) ",
") @.d.) =X=Xg ) @.n ) =X=X) )  X) d.d.:Xd.=Xd.Z.Z.d.@.n 9 3 3 3 ) P g ) >.) ) >.) P ) Z.d.) >.=Xg P ",
") L.=Xd.jXMX) ) g 9 ) d.d.) ) L.n @.@.=XL.:XZ.E.jX=XZ.) n ) Z.=XP ) >.>.>.P P ) ) _._.P g >._.d.Z.) ",
"d.=XMXd.=XMX) g 3 3 g ) @.) @.d.g ) ) d.@.Z.d.d.jX=XE.@.n ) E.MXP d.=X_.>.P ) ) Z.=XsXyX_._._._.yXN.",
" X=XMXd.L.=X) g g g g n @.E.=Xd.d.d.@.) n ) ) d.) @.E.d.) ) Z.E.) =XMX=X>.) ) ) P ) >.Z.d.) ) >.Z.) ",
"MXd.d.d.@.@.n ) l.) g g @.yXyXZ.Z.Z.Z.) ) ) ) ) g ) d.=XZ.d.Z.yX) _.=Xd.) ) ) P g N.) = o P N.) ) ) ",
"MX) ) ) g 9 3 g n g 3 $ g 4X4Xn g n ) ) d.) ) ) ) d.=X=XZ.d.Z.E.) >.>.) ) ) P P ) ) ) g t g ) >.) P ",
"=Xg ) ) 9 9 $ 3 9 9 3 $ 3 9 g 9 9 9 ) g @.n d.) =X=X=XL.d.) ) ) ) ) ) >.) P P P g = t >.l.= o P N.) ",
") 9 @.Z.n x.) n g H l.g 9 3 9 9 ) g l.g @.) L.d.d.L.L.d.d.) ) ) ) ) >.Z.>.P P ) g g P ) P g P @.E.) ",
"Z.g ) ) P ) @.d.n 3 @.E.g Z.) Z.>.P ) ) P >.Z.>.d.d.) >.>.) >.) ) =X=X=Xd.Z.t d.d.t ) _.E.MXyXE.E.E.",
"yXg >.d.) _.<XMX X) <XMXd.MXd.=X>.P >.P P >.Z.>.d.d.) >.>.) >.P L.<X<X=Xd._.) yXVX) >._.d.=Xd.@.E.E."
};
