/* XPM */
static char *_c7bfa574a3f420ec1d78ea10a2a8b60s4GYOmS4ki8eTJqW[] = {
/* columns rows colors chars-per-pixel */
"50 50 252 2 ",
"   c #0D0605",
".  c #140300",
"X  c #1A0704",
"o  c #160D17",
"O  c #191418",
"+  c #0F1215",
"@  c #260404",
"#  c #350A06",
"$  c #2B150A",
"%  c #391905",
"&  c #291918",
"*  c #391B17",
"=  c #2A0C17",
"-  c #26251E",
";  c #392517",
":  c #303217",
">  c #0B1626",
",  c #181A26",
"<  c #10122B",
"1  c #281C25",
"2  c #162432",
"3  c #2A2526",
"4  c #35292A",
"5  c #372C37",
"6  c #373738",
"7  c #20303D",
"8  c #481705",
"9  c #431B17",
"0  c #551E07",
"q  c #5A2506",
"w  c #452A17",
"e  c #593519",
"r  c #4F2E12",
"t  c #642706",
"y  c #6A3209",
"u  c #753708",
"i  c #6C3A15",
"p  c #713514",
"a  c #462A22",
"s  c #483327",
"d  c #573A27",
"f  c #483938",
"g  c #553D35",
"h  c #582B2B",
"j  c #673922",
"k  c #6A3B35",
"l  c #3B4A15",
"z  c #434C1B",
"x  c #4F5510",
"c  c #78431B",
"v  c #685D15",
"b  c #5B7613",
"n  c #4F6514",
"m  c #6A6C0C",
"M  c #4A4239",
"N  c #584438",
"B  c #514D32",
"V  c #69442A",
"C  c #754828",
"Z  c #694B39",
"A  c #754A36",
"S  c #78553C",
"D  c #6B513D",
"F  c #6A7731",
"G  c #3A3A43",
"H  c #333850",
"J  c #17304F",
"K  c #453C43",
"L  c #763F42",
"P  c #364A5B",
"I  c #324350",
"U  c #395166",
"Y  c #474649",
"T  c #574B49",
"R  c #59524F",
"E  c #474B54",
"W  c #585858",
"Q  c #534E59",
"!  c #674D43",
"~  c #685547",
"^  c #775B47",
"/  c #675854",
"(  c #745C54",
")  c #784A48",
"_  c #6A635B",
"`  c #766557",
"'  c #595C67",
"]  c #465363",
"[  c #67586A",
"{  c #4A657A",
"}  c #596771",
"|  c #696566",
" . c #786B68",
".. c #7A7367",
"X. c #676A74",
"o. c #736974",
"O. c #7A7674",
"+. c #6A747B",
"@. c #883D15",
"#. c #8E4F1B",
"$. c #99562B",
"%. c #87593B",
"&. c #8C522D",
"*. c #A45929",
"=. c #9A653B",
"-. c #9B753A",
";. c #926A2C",
":. c #A76537",
">. c #B8693C",
",. c #A8682F",
"<. c #807209",
"1. c #865C44",
"2. c #875854",
"3. c #896349",
"4. c #966847",
"5. c #886A57",
"6. c #936756",
"7. c #987359",
"8. c #8C735B",
"9. c #AA764A",
"0. c #B57747",
"q. c #A37553",
"w. c #A87959",
"e. c #BA7C56",
"r. c #AB6C4B",
"t. c #846D68",
"y. c #857265",
"u. c #88786B",
"i. c #987B66",
"p. c #837A74",
"a. c #877975",
"s. c #97736F",
"d. c #A67A63",
"f. c #B37B6D",
"g. c #C27548",
"h. c #72930B",
"j. c #7F806E",
"k. c #859517",
"l. c #8CBC00",
"z. c #88B802",
"x. c #90BF01",
"c. c #92B80B",
"v. c #86AE0D",
"b. c #968E30",
"n. c #A3BB2C",
"m. c #A98937",
"M. c #8FC100",
"N. c #93C402",
"B. c #99C705",
"V. c #96C805",
"C. c #99CA06",
"Z. c #9BCB09",
"A. c #97C60A",
"S. c #9BC717",
"D. c #A0CE1D",
"F. c #9EC922",
"G. c #A5CC26",
"H. c #ADD33A",
"J. c #AACB34",
"K. c #BA855C",
"L. c #B38F4F",
"P. c #AFB54B",
"I. c #9B836D",
"U. c #87827A",
"Y. c #988576",
"T. c #89896A",
"R. c #A98469",
"E. c #BB8C6C",
"W. c #B78666",
"Q. c #A78B78",
"!. c #B58D75",
"~. c #A9917C",
"^. c #B99477",
"/. c #B9B16D",
"(. c #C98758",
"). c #C7874E",
"_. c #CDB359",
"`. c #C58C69",
"'. c #C9966B",
"]. c #D99969",
"[. c #C68C72",
"{. c #C89877",
"}. c #D69C76",
"|. c #D38F6A",
" X c #E69570",
".X c #D6AC72",
"XX c #EAAA79",
"oX c #E39D58",
"OX c #B5D64A",
"+X c #B5CF4E",
"@X c #BEDB66",
"#X c #CACF5E",
"$X c #C5D86F",
"%X c #CCE273",
"&X c #486985",
"*X c #56758C",
"=X c #556E8C",
"-X c #727A82",
";X c #887994",
":X c #66899C",
">X c #6784A4",
",X c #7996B4",
"<X c #7DA2BF",
"1X c #7CA6CA",
"2X c #898787",
"3X c #99908A",
"4X c #A99586",
"5X c #B59A85",
"6X c #B18F8A",
"7X c #B8A28A",
"8X c #B8A598",
"9X c #A9A695",
"0X c #8699AA",
"qX c #AB9DA8",
"wX c #B7ACA8",
"eX c #B4AAB3",
"rX c #8BA9BB",
"tX c #C6938D",
"yX c #C7A589",
"uX c #D7AA89",
"iX c #C7AB96",
"pX c #D9B59A",
"aX c #CFB296",
"sX c #F6B388",
"dX c #F7BA94",
"fX c #E8B08C",
"gX c #C4B4A4",
"hX c #CBB7A7",
"jX c #D2BDAC",
"kX c #D7BAA5",
"lX c #CDAEAA",
"zX c #E4B0A8",
"xX c #FCC49C",
"cX c #D3E68A",
"vX c #D4C3B3",
"bX c #DCC8B9",
"nX c #D3C6AF",
"mX c #EECCB3",
"MX c #F0E2B2",
"NX c #D6D79A",
"BX c #90B1CD",
"VX c #8DABD2",
"CX c #C4BAC2",
"ZX c #98C2D9",
"AX c #ACC5D2",
"SX c #A9CFE7",
"DX c #D6CDCC",
"FX c #E5D4C5",
"GX c #E6DBD5",
"HX c #FCDFCA",
"JX c #F5EBD6",
"KX c #FEFDF1",
/* pixels */
"N.N.N.N.N.N.N.V.V.V.V.V.V.V.V.V.N.M.M.M.N.M.A.OXOX+X+XA.N.N.$XH.F.D.S.N.V.N.N.C.N.N.N.N.M.N.N.N.N.N.",
"M.N.N.N.N.M.N.N.N.V.V.V.N.N.N.N.N.M.N.N.OX@X@X%XcXcXcXcXcX$XOXG.S.D.S.S.V.N.N.C.C.C.Z.N.N.M.M.M.N.N.",
"N.N.V.V.N.N.N.N.N.N.N.N.A.OX%XcXcXcXcX%XOXH.G.G.G.G.G.G.H.H.G.G.J.P.P.P.G.N.N.N.B.Z.Z.V.N.M.M.N.N.N.",
"N.N.V.V.N.N.N.N.N.N.n.+X/..X_.#X#X%X$XOXOX+XP.+X+XP.n.G.G.G.J.;.m.K.'._.n.J.N.N.N.B.V.N.M.M.N.N.M.N.",
"M.M.N.N.N.N.l.z.k.b.;.-.L.L.L.b.<.b.#X#Xb.-.K.}.MXuXuXuXyX.X_.#.$.K.].}.P.J.S.N.V.N.N.N.N.N.M.N.N.N.",
"N.N.N.N.N.N.l.m m ;.9.'.fX'.K.>.u m.L.;.-.).].sXmXuXfXsX].(.oX,.u :.9.e.{.P.n.x.N.x.l.M.N.N.N.N.N.V.",
"N.N.M.M.M.M.c.m m -.(.'.K.9.&.&.$.(.0.#.L.XXsXsXMXfXdXXX].g.).>.u 0 q V A 6.b.c.z.z.l.N.N.N.N.V.N.N.",
"N.M.l.z.z.z.c.h.x -.K.:.c y t t $.>.,.*.;..XdXsXmXfXdX0.>.).0.g.y 8 8 8 9 % x m v.z.l.N.N.M.M.N.N.N.",
"N.V.M.l.M.M.%XS.m ;.i q 4.W.r.u *.*.@.0.=.0.sXXXxXXXsX|.K.}.g.>.@.q 8 # X * s.e k.N.N.N.N.V.V.N.N.N.",
"N.N.N.M.N.N.JXF.b.r q C S C y t #.#.$.`.&.`. X XsXXX}.[.0 t (.>.$.p j Z s t.| O.z Z.J.V.V.Z.V.N.N.N.",
"N.V.Z.V.N.V.H.H.G.v S 7.3.e t t #.#.r.0 # 1.e. XsX}.}.%.Z % &.g.:.0.`.%.Z +.U } 2XT.A.V.V.V.N.M.N.V.",
"N.N.Z.V.N.N.V.OXA.T.^ ^ e V i q #.#.%.@ d j [.fXxXxXuXR.Z % y :.:.$.|.}.R.AXZX&XE | z N.N.V.N.N.N.N.",
"N.V.Z.V.N.V.C.N.F ' ..8.^.pXW.y c p 8 8 V 3.uXuXw.W.uX^.^.4.0.>.#.$.|.`.!.ZX1X&XI R | z.z.l.M.M.N.N.",
"N.V.V.N.N.V.V.N.a.' X.I.^.E.W.y p 0 4.1.w.R.^.e 5.1.S uX{.fXXX*.$.#.(.K.^.:X&XU | O.W h.z.z.l.l.N.N.",
"M.N.M.l.M.N.M.l.s ` O.9XR.K.e.p t 8 t 4.3.!.` X M ; w zXf.}.0.).(.#.=.E.iXW | O.( s O b N.N.N.V.N.N.",
"N.V.N.M.N.N.l.h.u.Z M ..{.'.e.y c c 0 &.%.kX;   O X $ zXuXe.0.XXXX:.p V 5X2X( g ! u.- : Z.V.V.V.Z.C.",
"N.V.N.N.C.B.l.W U... .T iX4.&.q K.=.&.&.%.aXT & o f Z mXdXe.fXdXsXe.i A jXR ~ ` 5.u.W O A.V.x.N.N.V.",
"N.V.N.N.B.C.N.U.O.p.a. ./ V c c .Xw.9.y w.yXs.* = & ! mXfXe.`.dXsX'.C 3.O.3 ` u.y...2X3 x l.x.Z.l.M.",
"N.V.N.l.N.V.n N u.u.a.K 5 I.r q.W.W.&.i q.i.Q.g & s i.pXuX}.W.[.}.}.7.kXX.> f / _ W | 6 O z.N.Z.M.N.",
"N.N.l.z.l.n 4 N y.y. .& K FXA uXE.4.%.4.7.7.i.y.` t.d.{.{.[.f.e.W.E.^.HX>X> ,  .p.O.O.| O 3 V.N.N.N.",
"N.N.N.h.5 R 3Xa.u.u.N & G DXiXmX6.3.R.pXd.S ^ ! ; * k d.d.d.f.%.%.d.5XGXVXJ > W p.a.O.a./ 3 n N.V.V.",
"M.N.v.n | Y | p.p.U.f X G CXkXHX^ 5.3.iXiX! a . . @ @ 9 1.2.j 0 %.R.i.qXZX&X> K p.U.p. .N | , z.l.l.",
"N.N.n O | 6 G G Q  ...4 E CX5XbXD Z g d Q.N X . . X @ @ 9 # # A [.d.6.] <X>X2 -X .T 6 6 f ` o b V.V.",
"V.N., o | K } 0X} G _ & o.eXQ.5XZ D ; $ g T . . X . @ # # # e {.[.q.R.' rX&X2 ' 6 X.0X' f _ O l N.V.",
"N.V.3 o | E rXSXBXU | 3 [ qX5X^ S Z ; $ X * @ . @ . = 9 @ 9 d.{.w.W.!.X.0X=X2 } ] rXSXBXE | O : C.V.",
"N.N.- o | E *X:X*XI | 3 [ qXR.V C V d ; * . $ $ @ * h h # e yXW.r.`.{.X.,X=X2 ' P *X>X*XE | + : V.V.",
"N.N.z < | G E ' E ' | 4 [ eXkX7.i e V ^ ! @ h 9 a k s.L k 1.`.4.(.`.^.+.BX{ 7 X.] P { P I O.+ b N.N.",
"N.N.h.< o.Y Q [ p.p./ = ;XqXmXR.=.i 0 1.8.9 2.2.) f.tX2.A 4.9.9.`.`.E.=XBXU , W +.O.} E Y W + h.N.N.",
"N.V.v.< o.o.u.` g N f = ;XeX5Xd.q.C q d i.Z 2.f.tXtXzXk A E.9.K.W.{.6X>X,X2 + 6 T M _ p. .| l l.N.N.",
"N.V.V., 5 K M ! ` y.u.3 [ eXhXd.4.4.C r i.6X) f.zXzX6X6.6.d.W.{.{.{.iXBXU > , p... .~ g T 4 h.N.M.M.",
"V.V.N.l., O 4 ......a.5 Q qXGXi.w.w.A r Z gX8.6XtXtXlX) !.d.pXuXE.q.aX=X> > 6 / a.a.t.4 O O M.M.N.V.",
"V.N.M.M.M.+ & _ ..p.| U.T qXDXQ.S 1.A e w 4Xs.s.lXlX6X( tXiXmXmXE.d.vX2 , O p.u.~ / T 1 O N.N.N.N.N.",
"N.V.C.V.N.z O T p. .p.j.2XeXjXhXS %.S d d ~ 8Xg ( t.N 6X4XkXmXkXE.R.bX, O T ..` u.Y.T + - N.N.V.N.V.",
"N.N.l.l.N.N.O 4  .p.` T.9XDXeXbXR.7.^ D N N gX/ & & ( 4X4XvXmXpX!.^.bXO T a.a.` u.` 3 , M.l.z.M.N.V.",
"V.V.N.N.M.M.1 O T u.a.O...GXDXJX5X7.7.3.D s ! 8Xt.3X8Xa.8XhXbXiX^.R.iX/ R T p.2Xa./ o < l.z.z.l.N.N.",
"Z.Z.Z.V.N.M.O o T p.Q Y W GXGXJXyX!.R.8.D d ; ~ u.a.` Y.gXvXmXiXE.R.Q.8XY W I W  ./ O 2 M.l.M.N.N.N.",
"A.N.l.l.M.N.: W R Y ] ZXSXGXDXHXiXD Z ^ ~ w w * a g u.8XvXjXbXiXq.q.8.8X+.AXBX{ 6 / R + N.N.N.N.N.V.",
"N.l.z.z.z.z.n  .T G { <XVXAXFXFXkXS D D D s ; s a ( Y.8XvXFXvXiXq.q.i.Y.-XBXBX{ Y M _ O V.V.N.N.l.M.",
"N.N.N.l.z.z.h.x  .Q U =X*X0XFXjXkX^ ~ 5.D d w s Z ` 4X8XbXvXFXiXE.q.R.R.wX*X&XU Y ..& O V.V.N.N.M.M.",
"N.N.x.N.N.N.l.b z o.] P H 2XvX8XbX` ^ ( ^ g s N ~ y.8XgXjXFXvX5X4.4.w.!.5XP I P X.- & h.N.N.N.N.N.N.",
"N.N.N.N.C.Z.l.N.h.n o.Q Y 3XjX~.vX4Xy.y.( N N ~ y.Y.8XwXvXbXvXi.%.%.w.!.7XE E X.3 , z V.N.N.N.C.l.M.",
"N.N.C.N.Z.Z.N.N.l.l.b o.o.3XgXI.7X5X^ ^ ` ~ ! y.3X4XwXgXgXvXgXI.1.%.w.^.yXO.| 3 , , V.M.l.N.V.N.N.N.",
"N.C.Z.N.C.Z.N.l.z.z.l.h.B hX5X5.4XI.N s ~ ( T Y.4X8XgXvXhXvXvX~.3.4.W.{.yX_ 4 O , C.Z.Z.V.V.V.V.A.N.",
"C.C.Z.N.N.B.N.l.l.l.l.x.N.nX4X^ i.~ ; ; N s ` 4X4XhXgXhXhXiXhX~.3.q.'.{.yXaXo l M.N.N.V.N.N.N.N.V.N.",
"Z.N.N.N.N.N.x.N.N.N.l.l.N.NX~.S D r d % $ ; ~ Y.Y.gXhXgXjX4XI.5.%.K.{.{.{.7XH.M.l.N.N.z.z.M.N.N.N.M.",
"Z.x.N.N.l.l.z.x.l.l.z.z.l.aX~.A V r % s w $ M ~ ` u.~.I.~.5.d A 4.E.'.'.{.5XJX@XN.N.N.l.l.l.N.N.N.M.",
"C.l.N.N.l.l.z.z.z.l.z.z.z.aX~.A j j d d Z ` ^ N ~ Z ~ D ^ V e %.q.[.'.'.{.5XbXJXA.z.l.N.N.z.z.M.N.N.",
"N.l.N.V.x.N.N.l.l.x.N.l.l./.^.S C C S 3.8.8.i.y.( ` ` 8.7.1.%.4.W.{.{.'.!.!.gXKXJ.l.M.M.M.l.M.N.B.N.",
"V.l.N.N.l.N.N.N.x.z.N.B.l.P.iX3.V %.3.d.R.i.~.Q.~.Y.I.Q.5X!.R.R.[.'.'.E.E.^.7XMXOXl.N.V.C.Z.Z.B.B.B.",
"Z.M.N.N.N.V.C.Z.C.N.C.Z.N.+XiX3.1.4.7.^.5XQ.7X7X8X7X5X7XaXyX{.{.{.'.`.W.E.^.7XNXcXM.N.V.V.C.N.N.B.B."
};
