/* XPM */
static char *seamless_textured_grass_natural_grass_pattern_172107_1308__1___5_1706203853[] = {
/* columns rows colors chars-per-pixel */
"50 50 171 2 ",
"   c #000000",
".  c #1F170D",
"X  c #0F191B",
"o  c #281C10",
"O  c #1F2A00",
"+  c #222D02",
"@  c #353B0A",
"#  c #332313",
"$  c #3B2A18",
"%  c #343614",
"&  c #1D1A37",
"*  c #1E1B39",
"=  c #091D35",
"-  c gray17",
";  c #312F3C",
":  c #432614",
">  c #48331E",
",  c #6B2C1B",
"<  c #573623",
"1  c #503820",
"2  c #5E3B39",
"3  c #623C27",
"4  c #623C29",
"5  c #603330",
"6  c #324202",
"7  c #264037",
"8  c #49470F",
"9  c #454F0A",
"0  c #495C05",
"q  c #4D6507",
"w  c #526E02",
"e  c #536207",
"r  c #5F7E00",
"t  c #567004",
"y  c #5C4126",
"u  c #5F442A",
"i  c #42413D",
"p  c #4B4D33",
"a  c #67492C",
"s  c #76522A",
"d  c #6E4F32",
"f  c #674F37",
"g  c #704E33",
"h  c #785431",
"j  c #7A5938",
"k  c #6D553B",
"l  c #5A7039",
"z  c #637E2F",
"x  c #183753",
"c  c #2E364D",
"v  c #2D384E",
"b  c #3F3C5B",
"n  c #1C3E6E",
"m  c #3F4656",
"M  c #224155",
"N  c #33487D",
"B  c #464646",
"V  c #464648",
"C  c #48534C",
"Z  c #404656",
"A  c #54535B",
"S  c #555555",
"D  c #705A45",
"F  c #526341",
"G  c #766454",
"H  c #5A5961",
"J  c #646464",
"K  c #686868",
"L  c #6C6964",
"P  c #74696B",
"I  c #706B65",
"U  c #6F7374",
"Y  c #6E7378",
"T  c #8F4226",
"R  c #924229",
"E  c #914327",
"W  c #835C34",
"Q  c #885F36",
"!  c #A4552E",
"~  c #8D663D",
"^  c #956837",
"/  c #986B3C",
"(  c #9E703F",
")  c #A66B2F",
"_  c #84394E",
"`  c #9E6F41",
"'  c #9F7344",
"]  c #937457",
"[  c #947558",
"{  c #876B4E",
"}  c #B27B42",
"|  c #897866",
" . c #9F4E73",
".. c #5E8100",
"X. c #638302",
"o. c #678806",
"O. c #6D9300",
"+. c #739902",
"@. c #719501",
"#. c #769A1E",
"$. c #75971C",
"%. c #78A002",
"&. c #7DA415",
"*. c #6B8A26",
"=. c #799D20",
"-. c #658031",
";. c #83AD05",
":. c #85B501",
">. c #89B601",
",. c #87B900",
"<. c #8CBC00",
"1. c #8DBC0E",
"2. c #90BF01",
"3. c #A2BD16",
"4. c #AB953F",
"5. c #B7AC37",
"6. c #A6A42D",
"7. c #DA9931",
"8. c #8FC100",
"9. c #93C402",
"0. c #98C706",
"q. c #96C905",
"w. c #99CA06",
"e. c #97C909",
"r. c #9BCB09",
"t. c #96C409",
"y. c #9DD10C",
"u. c #FFD435",
"i. c #BB8A4F",
"p. c #BE8950",
"a. c #A88156",
"s. c #92AB58",
"d. c #BBA343",
"f. c #998D7F",
"g. c #B18E66",
"h. c #AF8F6D",
"j. c #C99855",
"k. c #CBA77F",
"l. c #B7D870",
"z. c #103CA5",
"x. c #3F558B",
"c. c #1D59A2",
"v. c #1546A3",
"b. c #617181",
"n. c #4868B1",
"m. c #4F6FBA",
"M. c #378FF3",
"N. c #4198F9",
"B. c #818181",
"V. c #98898C",
"C. c #97888B",
"Z. c #80ABBC",
"A. c #ABABAB",
"S. c #A0A7AD",
"D. c #B3B3B4",
"F. c #AEB4B4",
"G. c #CCBCAC",
"H. c #D5A6B8",
"J. c #D1B8BC",
"K. c #FFCA96",
"L. c #FFCA98",
"P. c #B0F2FF",
"I. c #D6D6D6",
"U. c #D7D6D8",
"Y. c #CCDBE2",
"T. c #DFFFFE",
"R. c #E4E5E5",
"E. c #EFEDEE",
"W. c LightCyan",
"Q. c #FFFFFF",
"!. c #F7FCFF",
/* pixels */
"9.9.9.9.9.8.9.q.q.q.q.q.9.q.q.9.8.8.8.8.9.8.9.q.9.q.8.8.8.9.q.8.8.q.9.9.q.q.q.q.q.q.9.9.9.9.9.q.8.q.",
"8.9.9.9.9.8.8.9.9.q.q.q.9.9.q.9.8.8.9.9.9.9.9.9.y.y.q.8.8.9.8.8.8.q.9.8.9.9.q.q.q.r.r.q.9.8.8.8.8.8.",
"8.9.q.q.9.9.8.9.9.9.q.9.9.9.8.9.8.9.9.9.9.8.q.q.8.8.q.q.9.q.q.9.8.8.q.8.9.9.9.q.w.r.r.q.9.8.8.9.8.8.",
"8.9.9.q.9.9.8.8.8.9.8.8.8.8.9.8.8.q.q.9.              r.q.8.8.<.8.8.8.q.9.9.9.9.9.9.q.9.8.8.8.9.8.8.",
"8.8.9.9.9.9.8.8.8.8.,.8.8.8.9.9.q.q.y.9.              0.w.q.w.r.8.8.9.9.9.9.9.9.q.0.9.<.9.8.8.9.8.q.",
"9.8.9.8.9.9.9.8.8.8.8.,.8.9.q.9.q.q.y.  V.V.J.J.J.V.V.  q.9.9.<.8.9.q.9.9.9.<.2.2.2.<.9.9.9.8.q.q.q.",
"q.9.8.8.8.8.8.8.8.8.8.8.8.9.9.9.q.    A A A A V.V.A A A     9.<.9.e.w.9.9.    9.<.>.<.2.9.9.q.q.q.q.",
"9.8.8.,.,.,.8.,.9.9.q.q.8.9.9.q.e.    S A A A V.C.A A A     w 9.9.y.r.9.9.    ,.>.<.2.2.8.8.8.9.q.8.",
"9.q.8.O.X.e o X...q.w.e.q.9.9.8.  B V V A.A.A.Q.Q.A.A.A.J J   X.9.8.9.,.  T.T.    9.2.9.9.q.q.9.8.8.",
"8.9.+.% s Q ( s 1 w q.q.9.9.8.9.  V V A.A.A.Q.u.u.u.u.I.J J   X.8.8.9.8.  T.T.    0.0.0.q.e.q.9.9.9.",
"9.q.o.A.Q.Q.Q.D.D.6 q.9.<.8.8.9.  V V A.A.A.Q.u.u.u.u.I.J J   r 8.8.q.8.  T.T.    r.6 6 9.q.9.8.q.9.",
"9.9.S Q.Q.Q.E.D.D.U X.9.9.9.8.9.  V V 7.7.7.u.u.u.u.u.u.7.7.  X.9.q.e.9.  W.T.    # h > # 8 +.8.8.9.",
"9.w k k.k.k.h.g.g.] @ q.q.9.9.9.  V V 7.R R   R R R R   R R   + q.q.r.w.  T.T.    G.a.D G.f.6 8.8.9.",
"9.q.X x ^ ~ h Q # 6 w 8 :.9.q.r.  V B 7.R R   R R R R   R R   Y p :.q.w.  T.T.    R.g.G R.!.A.+.9.9.",
",.8.x M.^ j h h # w 6 u + 6 6 6   B B 7.K.K.  L.K.K.L.  p.p.  L b.+     T.P.P.T.T.  ' k | h.g.9 9.w.",
"q.q.7 z.} j a ~ Z.c.  ~ { ( ~ ~   B B 7.K.K.  K.K.K.L.  p.p.  { I (     T.P.P.T.T.  ( d ~ M = %.r.y.",
"9.q.;.+ } j j ~ m.v.  ~ ~ (     7.7.7.7.K.K.K.K.K.K.K.K.p.i.7.    `     P.H.H.P.P.  / a Q N.c.+.9.q.",
"q.q.9.@ a ^ ~ W . q l.G F.!.          K.K.K.K.K.K.K.K.K.p.j.      $ p U.  H.H.    ( d d ` z.n &.8.8.",
"9.q.9.O.. a h > 0 <.q.Y.S.R.          K.K.K.K.K.K.K.K.K.p.p.      0 - I.  H.H.    ( j j ` O @.0.8.9.",
"q.9.2.>.r # 3 @ ;.<.q.s.U I.I.- i     & R R , , , , , R       b % ;.- U.  u.u.    Q ( ` Q 6 t.9.9.9.",
"9.9.8.<.2.+.@ 0.0.9.0.o.          7.7.B B B R R R T R B V B 7.      - U.  g g     > < u > t e.9.w.q.",
"9.9.9.9.0.q.q.q.0.9.2.;.          7.7.B B B R R R R R B V B 7.      q B.  g g     0 . . 0 9.9.9.8.<.",
"9.9.<.9.0.0.9.0.9.2.2.  U.I.Q.Q.Q.u.u.B Q.Q.Q.Q.Q.Q.Q.Q.B B u.I.I.A.      ] [     0.0.e.9.<.9.9.q.q.",
"q.9.9.<.0.0.2.9.9.    A.I.I.I.I.I.u.u.V I.I.Q.Q.Q.Q.Q.I.V V 7.A.A.A.J J   ] [     0.9.2.2.9.9.9.q.q.",
"9.9.9.8.<.9.9.8.8.    A.U.I.I.I.I.u.u.B I.I.Q.Q.Q.Q.Q.I.B B 7.A.A.A.J J   ] [     q.q.9.8.8.q.e.w.q.",
"9.9.9.<.,.<.8.,.9.    A.A.A.A.A.u.7.7.B I.I.I.Q.Q.I.I.I.B B 7.u.u.J J J 7.] [     0.9.9.8.8.q.q.q.9.",
"9.9.2.9.8.8.8.8.8.    A.A.A.A.A.u.7.7.B I.I.I.Q.Q.I.I.I.V B 7.u.u.J J H 7.] ]     r.w.9.9.9.q.q.9.8.",
"9.9.9.9.8.9.8.q.9.    V U.I.I.I.7.& & B A.A.I.I.I.I.I.A.B V & 7.7.u.u.u.& ] [     2.9.9.9.8.q.8.9.9.",
"8.9.e.9.q.e.q.9.  7.7.7.u.u.u.u.7.& & B A.A.A.I.U.A.A.A.B B & & & x.N N 4 4 3       9.9.q.q.8.8.8.9.",
"9.e.9.8.8.t.=.#.  7.7.7.u.u.u.u.7.& & B A.A.A.U.U.A.A.A.B B & & & x.N N 4 4 3       9.e.e.q.q.8.8.8.",
"t.e.8.8.8.F m m F     N n.n.N N c & & & K K A.A.A.A.A.J & & & N N x.V.V.4 4 3 : :   *.*.q.8.8.8.9.q.",
"q.9.8.8.&.m m m m &.8.  V.V.V.V.S & & & J J A.A.A.A.A.J & &       A P P 4 : : : :   Z Z =.9.8.9.9.q.",
"9.9.r.q.m m m m m l 9.  V.V.V.V.A * * * J J A.A.A.A.A.J & &       A P P 3 : : : :   m m F q.9.9.q.q.",
"9.9.<.<.8.m m m Z 9.9.  4 4 4 4 4 : : 3 4 4 ] u.u.7.7.4 : :    . .  A A A d g     Z m m Z ,.,.8.9.q.",
"q.e.q.8.8.m Z Z m q.9.  4 4 4 4 4 : : 4 4 4 ] 7.7.u.u.4 : :   5 _ 5       [ [     Z Z Z m *.8.8.9.8.",
"e.r.r.q.9.$.m Z #.q.9.  4 4 4 4 4 : : 4 4 4 ] 7.7.u.u.4 : :   ! ) )       [ [     Z Z m m l 8.8.9.q.",
"e.t.8.<.9.&.C C &.t.9.  4 4 4 4 4 & & & & * J A.A.J J & & &   ' j.j.p.6.  [ [     m m m m 9.8.8.e.q.",
"9.,.>.:.>.<.&.#.8.9.9.9.    : : : & & & & * J A.A.J J & & &   i.j.5.d.4.  [ [     -.m m z e.9.9.<.<.",
"9.9.2.2.<.:.<.2.<.q.0.0.    : : : & & & & & J A.A.J J & & &   j.5.3.e.q.  [ [     9.q.9.q.q.9.9.8.8.",
"9.9.2.2.9.t.<.<.<.2.0.0.w.w.      P P V.& & J A.A.J J & V.V.  i.3.3.q.9.  g d     8.9.8.9.9.9.8.8.9.",
"2.0.0.2.0.r.2.2.9.2.9.0.0.9.      P P V.* * J A.A.J J * V.V.  >.9.8.8.8.  g g     8.8.q.9.8.q.q.<.8.",
"2.0.0.0.r.r.2.2.2.<.2.q.q.2.9.q.  A A A c c J J J J J c A A   r.8.8.9.9.  g g     w.q.8.<.9.q.q.9.9.",
"0.w.w.0.0.r.2.2.>.>.2.2.0.2.2.q.  c c c c c           c c c   y.8.9.r.q.  g g     q.r.r.q.q.q.q.0.9.",
"0.w.w.0.0.r.2.2.<.2.2.2.2.0.q.0.  c c c c c           c c c   r.8.r.y.e.  g g     9.9.q.9.9.8.9.q.9.",
"w.q.0.0.2.0.2.2.2.2.2.2.0.r.r.2.  c c ;       9.2.    c c c   e.9.q.w.9.  g g     t.8.,.:.8.9.8.9.2.",
"r.2.2.2.2.<.<.2.2.2.>.>.2.2.t.2.  3 3 4     9.2.9.    3 3 3   e.8.9.9.9.  g g     9.8.8.,.8.8.9.2.2.",
"0.2.2.0.2.<.>.>.2.<.<.>.>.2.2.<.  3 3 3     9.9.0.    3 3 3   9.8.8.9.9.  g g     ,.,.q.t.,.,.8.q.9.",
"9.>.2.0.1.2.2.2.2.2.1.2.2.>.    < < < <     q.9.0.    < < < <     8.9.q.  g d     8.8.9.,.8.8.9.0.2.",
"0.<.9.9.<.9.9.9.2.2.9.0.2.0.                0.9.q.                w.w.w.          ,.9.q.e.r.0.q.0.0.",
"e.2.9.9.9.q.r.r.w.9.r.r.9.r.                9.9.9.                y.r.w.          9.9.w.q.w.0.0.0.0."
};
