/* XPM */
static char *_12461e6956f4a1fea4f63729d5cc246QKZ6MywhjRrgMUYK[] = {
/* columns rows colors chars-per-pixel */
"50 50 246 2 ",
"   c #0D0300",
".  c #140300",
"X  c #1A0602",
"o  c #1B110F",
"O  c #240000",
"+  c #270705",
"@  c #350A06",
"#  c #2B150A",
"$  c #3B1804",
"%  c #2C1615",
"&  c #391A16",
"*  c #300B13",
"=  c #392517",
"-  c #3B2806",
";  c #331A20",
":  c #481705",
">  c #551E04",
",  c #431B17",
"<  c #541E12",
"1  c #5A2506",
"2  c #452A17",
"3  c #4A311D",
"4  c #5A3419",
"5  c #512C0C",
"6  c #642706",
"7  c #6A3209",
"8  c #753708",
"9  c #6C3A15",
"0  c #763B18",
"q  c #6C2D0F",
"w  c #462A22",
"e  c #572B28",
"r  c #483224",
"t  c #5C3B22",
"y  c #513B2D",
"u  c #573925",
"i  c #563D37",
"p  c #502E35",
"a  c #673922",
"s  c #683B34",
"d  c #703B35",
"f  c #5B4E00",
"g  c #4F440A",
"h  c #78431B",
"j  c #655912",
"k  c #6C690D",
"l  c #5A4436",
"z  c #4C433A",
"x  c #69442A",
"c  c #754828",
"v  c #6B4D3D",
"b  c #674A36",
"n  c #754A36",
"m  c #6B513D",
"M  c #73543B",
"N  c #79543D",
"B  c #7B5438",
"V  c #7C6D38",
"C  c #763F42",
"Z  c #5F4744",
"A  c #664C42",
"S  c #6A5646",
"D  c #775B47",
"F  c #755C54",
"G  c #72514C",
"H  c #796455",
"J  c #883D15",
"K  c #88481E",
"L  c #934C1B",
"P  c #8F5717",
"I  c #875225",
"U  c #99562B",
"Y  c #825C3D",
"T  c #89583A",
"R  c #915A34",
"E  c #8D4E2E",
"W  c #A45929",
"Q  c #9B6327",
"!  c #8B6737",
"~  c #9A653B",
"^  c #947130",
"/  c #A76429",
"(  c #A76537",
")  c #B8693C",
"_  c #AB743E",
"`  c #807209",
"'  c #865C44",
"]  c #875854",
"[  c #896349",
"{  c #966847",
"}  c #896956",
"|  c #936756",
" . c #8D7359",
".. c #987359",
"X. c #AA764A",
"o. c #B57747",
"O. c #A37553",
"+. c #A87959",
"@. c #BA7C56",
"#. c #AB6C4B",
"$. c #866D67",
"%. c #857264",
"&. c #8A7669",
"*. c #987B66",
"=. c #977C74",
"-. c #956E6C",
";. c #A67A63",
":. c #B97D65",
">. c #AC7877",
",. c #C37749",
"<. c #C06E46",
"1. c #768B1B",
"2. c #859517",
"3. c #86B400",
"4. c #89B600",
"5. c #87B900",
"6. c #8CBC00",
"7. c #8FBC0B",
"8. c #90BF01",
"9. c #92B80B",
"0. c #8CB111",
"q. c #99892A",
"w. c #989534",
"e. c #A68D33",
"r. c #A3BB2C",
"t. c #8FC100",
"y. c #93C402",
"u. c #98C706",
"i. c #96C805",
"p. c #99CA06",
"a. c #96C50A",
"s. c #99C709",
"d. c #97C909",
"f. c #9ACA09",
"g. c #9BC717",
"h. c #A0CC1C",
"j. c #9EC922",
"k. c #A2CA23",
"l. c #A4CC2B",
"z. c #A6CA28",
"x. c #A6D029",
"c. c #AACA36",
"v. c #ADD339",
"b. c #B2C43E",
"n. c #8F8751",
"m. c #BD845C",
"M. c #B9875C",
"N. c #B38F52",
"B. c #B6B958",
"V. c #AEB045",
"C. c #9C826C",
"Z. c #998576",
"A. c #AD856A",
"S. c #A78468",
"D. c #BB8C6C",
"F. c #B78666",
"G. c #A78B78",
"H. c #B58E77",
"J. c #A9917C",
"K. c #BB9272",
"L. c #B89579",
"P. c #B9B16D",
"I. c #C7814D",
"U. c #C98758",
"Y. c #C79850",
"T. c #CDB359",
"R. c #C58C69",
"E. c #C9966B",
"W. c #D99969",
"Q. c #C68C72",
"!. c #C69573",
"~. c #C89878",
"^. c #D69C76",
"/. c #D38F6A",
"(. c #E69570",
"). c #DDA177",
"_. c #D1B371",
"`. c #E8A879",
"'. c #F1B07C",
"]. c #E39D58",
"[. c #B5C749",
"{. c #AED343",
"}. c #B4D54C",
"|. c #B6D548",
" X c #B8D757",
".X c #BFC25D",
"XX c #BEDA65",
"oX c #CED35F",
"OX c #C5CD5E",
"+X c #C5DC6A",
"@X c #C6DB76",
"#X c #CACF6F",
"$X c #CCE273",
"%X c #9D8D80",
"&X c #AB9484",
"*X c #A69689",
"=X c #B59B84",
"-X c #B69A86",
";X c #B18F8A",
":X c #B8A28A",
">X c #B8A698",
",X c #BCAEA1",
"<X c #C69C80",
"1X c #C69091",
"2X c #C5A58B",
"3X c #D8A989",
"4X c #C7AA95",
"5X c #CFB29C",
"6X c #D7B499",
"7X c #D3B58A",
"8X c #E6B389",
"9X c #F6B388",
"0X c #F7BA94",
"qX c #E9AE8D",
"wX c #C7AAA3",
"eX c #D6A5A7",
"rX c #C4B4A4",
"tX c #CBB7A7",
"yX c #D2BDAB",
"uX c #D7BAA5",
"iX c #CFBFB0",
"pX c #E4B0A8",
"aX c #CECD8E",
"sX c #FCC49C",
"dX c #CDE487",
"fX c #DAE696",
"gX c #D5E789",
"hX c #CFC2B2",
"jX c #D4C3B3",
"kX c #DBC9B8",
"lX c #DAD0AA",
"zX c #E5C6A9",
"xX c #FFD3AD",
"cX c #E6CCBA",
"vX c #E9D9BA",
"bX c #FBD0B4",
"nX c #DDE3A4",
"mX c #E8E6B6",
"MX c #F1E2B1",
"NX c #E0EC9C",
"BX c #E6D6C4",
"VX c #F8DFC7",
"CX c #EBF1CA",
"ZX c #F8E4D5",
"AX c #EDF1CE",
"SX c #FEFDF1",
/* pixels */
"y.y.y.y.y.y.y.i.i.i.i.i.i.i.i.i.y.t.t.t.y.t.a.{.}. X Xa.y.y.+Xv.j.h.g.y.i.i.y.p.y.u.y.y.t.y.y.y.y.y.",
"t.y.y.y.y.t.y.y.y.i.i.i.y.y.y.y.y.t.y.y.{.XXXX$XgXdXdXdXdX@X{.k.g.h.g.g.i.y.y.p.p.f.f.i.y.t.t.t.y.y.",
"y.y.i.i.y.y.y.y.y.y.i.y.a.|.$XgXfXNXgX@X Xv.k.k.l.k.k.x.v.v.x.x.c.V.V.V.k.y.y.y.u.f.f.i.y.t.t.y.y.y.",
"y.y.i.i.y.y.y.y.y.y.r..XP._._.OXOX+X+X{.|.[.V.[.}.B.b.x.x.l.b.^ e.M.E.T.r.l.y.y.y.i.i.y.t.t.y.y.t.y.",
"t.t.y.y.y.y.6.4.2.q.! ~ N.N.N.q.` w.oXoXw.q.N.).MX3X_._._._.T.P U m.W.^.B.b.g.y.i.y.y.y.y.y.t.y.y.y.",
"y.y.y.y.y.y.6.k k ^ X.E.8XE.M._ 8 e.V.q.e.Y.W.9XxX3X8X9XW.U.]./ 8 ( X.@.~.V.r.8.y.8.6.t.y.y.y.y.y.i.",
"y.y.t.t.t.t.7.k k ~ U.E.m.X.R E U U.o.P N.'.9X9XbX8X0X'.W.,.I.) 8 > 5 x n | q.9.5.5.6.y.y.y.y.i.y.y.",
"y.t.6.5.5.5.7.1.f ~ m.( h q 6 6 U ) / Q Q ).0X9XxX8X0Xo.o.I.) <.q : : , , - f k 0.5.6.y.y.t.t.y.y.y.",
"y.i.t.6.t.t.@Xg.k ! 0 1 { M.#.8 W W J o.~ o.9X'.sX`.9X/.m.`.<.) J 1 : @ + g w.j 2.a.y.y.y.i.i.y.y.y.",
"y.y.y.t.y.y.AXj.w.5 1 c B c q 6 L L U R.E R.(.(.9X`.^.Q.> 6 U.) U 0 a b 4 n.k.g.g.f.x.i.i.f.i.y.y.y.",
"y.i.f.i.y.i.v.v.k.j N ..[ 4 6 6 L h #.< $ ' @.(.9X).^.' b $ E ,.( o.R.T b c.s.k.c. Xs.i.i.i.y.t.y.i.",
"y.y.f.i.y.y.i.}.a.V.V D 4 x 9 1 I K T O t a Q.qXxXsX3XS.l $ 7 ( ( U /.^.A.k.a.a.a.a.i.y.y.i.y.y.y.y.",
"y.i.f.i.y.i.p.y.t.k.n. .K.6XF.q h 8 : : x [ 3X3X+.F.3XK.L.{ o.) L U /.R.K.k.8.6.6.6.6.5.5.6.t.t.y.y.",
"y.i.i.y.y.i.i.y.y.y.k.N.L.D.F.q 8 > { ' +.A.L.e } ' N 3X~.3X`./ U K U.@.L.l.8.5.4.4.5.4.4.5.6.6.y.y.",
"t.y.t.6.t.y.t.6.t.y.y.#XA.M.@.0 6 : 6 { [ H.H o z = 2 pX:.^.o.I.U.K ~ !.4Xk.8.5.6.8.y.a.y.a.y.i.y.y.",
"y.i.y.t.y.y.6.8.6.6.y.k.L.E.@.7 h h 1 I Y uX=   o X # pXqX@.o.`.`.( 9 a =Xg.y.6.4.6.i.f.f.i.i.i.f.p.",
"y.i.y.y.s.u.6.3.4.6.8.y.aX{ I 1 M.~ I I ! 5XZ % o p b bX0X@.qX0X9X@.0 n lXk.6.5.6.3.4.a.f.i.8.y.y.i.",
"y.i.y.y.s.s.8.5.3.5.8.y.c.x c h 3X+.X.7 +.2X=.; o % S zXqX@.R.0X9XE.c [ +Xf.y.6.5.3.3.6.6.6.8.f.6.t.",
"y.y.y.6.y.a.y.8.6.6.i.f.z.C.5 O.F.M.R 9 O.*.G.i % w *.6X3X^.F.Q.^.^...uX|.s.a.6.3.3.4.6.8.6.y.f.t.y.",
"y.y.6.5.6.y.a.a.y.8.i.f.k.VXM 3XD.{ T { ....=.%.H $.;.!.~.Q.:.:.F.D.L.VXg.u.a.8.6.6.6.y.s.f.i.y.y.y.",
"y.y.y.6.y.i.i.f.s.y.i.f.h.mX4XbX| [ A.6X;.M S A = & s ;.;.;.:.T T ;.-XmXy.y.y.8.s.a.8.8.i.f.i.y.i.i.",
"y.y.y.y.u.f.u.u.s.y.y.i.g.fXyXVXD } [ 4X4XS w . . + O , ' ] a < T A.*.@X8.8.y.y.s.s.a.y.8.y.y.y.6.6.",
"y.y.t.y.u.u.y.y.8.6.6.5.g.dX=XzXv v i y G.l X . . X O O , @ @ n Q.;.| c.y.y.f.s.i.u.i.i.y.6.t.y.i.i.",
"i.y.t.t.y.y.y.y.y.y.y.6.l.@XG.-Xb v = # i Z . . X . + * @ @ e ~.Q.O.A.|.8.y.u.y.s.a.y.y.8.8.y.y.y.i.",
"y.i.i.t.6.y.y.t.t.y.y.y.l.@X-XD N b = # X & + . + . * , O , ;.~.+.F.H. Xa.y.8.8.y.i.i.y.y.y.p.f.p.i.",
"y.y.y.6.6.6.6.6.t.y.y.t.k.@XS.x c x y = & . % # O & p e @ e <XF.#.R.~.|.i.y.y.u.i.u.y.y.t.y.y.y.i.i.",
"y.y.t.t.t.6.6.t.y.t.t.t.g.@XuX..9 4 x D G O e , w s -.C d ' R.( m.R.K.}.y.y.i.u.f.f.p.y.y.y.y.y.y.y.",
"y.y.y.y.y.y.y.i.y.y.y.y.g.+XcXA.~ 9 5 '  ., ] ] G >.1X] n { X.X.R.R.D.h.8.6.6.6.6.8.y.y.y.y.y.y.y.y.",
"y.i.y.y.y.i.i.i.i.i.i.y.l.XX-X;.O.c 5 t *.v ] >.1XeXpXd n D.+.M.F.~._.i.y.6.5.3.3.5.t.y.i.y.y.t.y.y.",
"y.i.i.y.y.i.i.y.i.i.i.y.{.+XtX;.{ { c 5  .&XG >.pXeX;X| | ;.F.~.~.!.7Xf.i.t.6.5.6.6.y.d.f.i.y.y.t.t.",
"i.i.y.y.y.y.y.y.y.y.y.y.{.@XVX*.+.+.n 2 b wX-.;X1X1XeXG H.;.6X3XD.O.5Xd.i.y.y.8.y.8.y.y.y.y.t.t.y.i.",
"i.y.t.t.t.t.t.t.t.t.t.t.v.dXmXG.N ' n 4 2 &X=.-.eXeX;XF 2X2XzXzXD.;.zXy.y.y.y.i.f.i.y.i.y.y.y.y.y.y.",
"y.i.p.i.y.t.t.y.t.y.y.y. XnXnXtXN Y N t u S >Xi F $.l ;X&XyXcXuXD.S.vXy.y.y.y.i.i.y.y.i.i.y.y.y.y.i.",
"y.y.6.6.t.y.y.y.y.y.y.y.}.CXnXcXS...D v l l wXG % % F *X&XjXcX6XK.L.vXy.i.y.y.y.i.y.y.y.t.6.6.t.y.i.",
"i.i.y.y.t.t.y.y.i.i.y.y.x.AXmXZX=X....H v y A >X$.%X>X=.>XtXkX4XK.A.4Xy.i.y.y.y.y.y.y.y.6.5.6.t.y.y.",
"f.f.f.i.y.t.t.y.i.i.y.y.g.AXCXZX2XA.S. .v y = S &.=.H Z.wXjXcX4XF.S.G.+Xy.y.y.y.y.y.y.y.t.6.t.t.y.y.",
"d.y.6.6.t.y.t.6.y.y.y.y.y.CXvXZX4XM b D S 2 w & w i &.>XjXyXcX4XO.O...>Xy.y.y.t.y.y.y.y.y.y.y.y.y.i.",
"y.6.5.5.5.5.6.6.6.y.y.y.y.fXvXBXuXM M m v r = r w F Z.>XjXBXjX4XO.O.*.Z.h.y.y.y.y.y.y.i.i.i.y.y.6.t.",
"y.y.y.6.5.5.6.6.8.y.i.i.i.+XBXyXuXD S } m y = r b H %X>XkXjXBX4XF.O.S.S.aXi.y.y.y.y.y.y.i.i.y.y.t.t.",
"y.y.8.y.y.y.6.5.6.y.y.i.p.v.jX>XkXH D H D y r l S %.>X,XiXBXjX=X{ { +.H.-Xy.y.t.t.y.y.y.y.y.y.y.y.y.",
"y.y.y.y.p.f.6.y.y.8.y.p.p.l.yXJ.jX&X%.&.H l l S %.Z.>X,XhXkXjX*.T R +.H.:Xt.t.y.y.t.y.i.y.y.y.p.6.t.",
"y.u.p.y.f.f.y.y.6.6.y.y.y. XrXC.:X-XD S H S A %.%X*X,XrXrXjXrXC.T R +.L.2Xt.t.y.y.i.i.t.6.y.i.y.y.y.",
"y.p.f.y.p.f.y.6.5.5.6.y.y.nX:X} &XC.l r S F A Z.*X>XrXjXtXyXhXJ.[ { F.~.2Xc.y.y.i.p.f.f.i.i.i.i.d.y.",
"p.p.f.y.y.p.y.6.6.6.6.8.y.lX&XD *.S = = l r H *X*XtXrXtXtX4XtXJ.[ O.!.~.<X5Xy.y.t.y.y.i.y.y.y.y.i.y.",
"f.y.y.y.y.y.8.y.y.y.6.6.y.aXJ.N v 3 u - # = S Z.Z.rXtXrXyX&XC.} T M.~.~.~.:Xv.t.6.y.y.5.3.t.y.y.y.y.",
"f.8.y.y.6.6.5.6.8.6.5.4.6.aXJ.n x 2 $ 3 2 # z S H &.J.C.J.} x n { D.!.!.<X=XZXXXy.y.y.6.6.6.y.y.y.y.",
"p.6.y.y.6.5.4.6.5.6.5.4.4.7XJ.n a a t u b H D l S b S m D x 4 Y O.!.!.!.~.=XkXAXa.5.6.y.y.5.3.t.y.y.",
"y.6.y.y.8.a.y.8.8.8.8.6.6.P.J.N x c M [ *. .*.&.F H H  ...' Y { F.~.~.!.K.H.rXSXl.6.t.y.t.6.t.y.u.y.",
"i.6.y.y.t.y.y.y.8.5.y.u.6.B.2X[ x Y [ ;.S.*.J.G.J.Z.C.G.=XH.S.S.!.!.E.D.D.L.:XnX X6.y.i.u.f.p.u.u.u.",
"f.t.y.y.y.i.p.f.p.y.p.f.y.[.4X} ' { ..L.L.G.:X:X>X:X=X:X5X2X!.~.~.E.R.F.D.L.:XnXfXt.y.i.y.p.y.y.u.u."
};
