/* XPM */
static char *_88373a3ee484b6ae0cf1669f945c180588SKulsWvMTyIQd[] = {
/* columns rows colors chars-per-pixel */
"50 50 106 2 ",
"   c #000000",
".  c #1D1A37",
"X  c #1E1A39",
"o  c #312F3C",
"O  c #432614",
"+  c #6B2C1B",
"@  c #573623",
"#  c #623C27",
"$  c #623C29",
"%  c #6E4F33",
"&  c #704E33",
"*  c #2E364D",
"=  c #2D384E",
"-  c #33487D",
";  c #464646",
":  c #464648",
">  c #54535B",
",  c #5A5961",
"<  c #646464",
"1  c #686868",
"2  c #74696B",
"3  c #924229",
"4  c #937457",
"5  c #947558",
"6  c #86B500",
"7  c #89B600",
"8  c #87B900",
"9  c #8CBC00",
"0  c #90BF01",
"q  c #DA9931",
"w  c #8FC100",
"e  c #93C402",
"r  c #98C705",
"t  c #96C905",
"y  c #99CA06",
"u  c #96C508",
"i  c #99C709",
"p  c #97C908",
"a  c #9CC90A",
"s  c #9CCB09",
"d  c #98CC08",
"f  c #9ACC08",
"g  c #9ACC09",
"h  c #9BCD0A",
"j  c #9CCC08",
"k  c #9CCE0A",
"l  c #9BCA0C",
"z  c #9CCB0D",
"x  c #9ECB0E",
"c  c #9CCA0F",
"v  c #9DCF0C",
"b  c #9ACB09",
"n  c #9DD10C",
"m  c #FFD433",
"M  c #FFD335",
"N  c #FFD435",
"B  c #FFD535",
"V  c #FFD536",
"C  c #FFD437",
"Z  c #FFD435",
"A  c #BF8850",
"S  c #BF8852",
"D  c #C08750",
"F  c #C08951",
"G  c #3F558B",
"H  c #4868B1",
"J  c #98898C",
"K  c #99898C",
"L  c #98898C",
"P  c #ABABA9",
"I  c gray67",
"U  c #AAAAAA",
"Y  c #ACAAAB",
"T  c #AAACAB",
"R  c #ABABAD",
"E  c #ACAAAD",
"W  c #ABABAB",
"Q  c #D5A6B8",
"!  c #D1B8BC",
"~  c #D1B8BE",
"^  c #FFC996",
"/  c #FFCA96",
"(  c #FECB96",
")  c #FFCB97",
"_  c #FFCA98",
"`  c #AFF3FF",
"'  c #B0F2FF",
"]  c #B1F3FF",
"[  c #D5D5D5",
"{  c #D7D6D4",
"}  c #D7D7D5",
"|  c #D5D7D6",
" . c gray84",
".. c #D7D7D7",
"X. c #D6D6D6",
"o. c #D6D6D8",
"O. c #D7D7D9",
"+. c #DEFEFD",
"@. c #DDFFFE",
"#. c #DFFFFE",
"$. c LightCyan",
"%. c #E0FEFC",
"&. c #FEFFFD",
"*. c #FFFFFD",
"=. c #FEFFFF",
"-. c white",
/* pixels */
"e e e e e e e t t t t t e t t t e w w w e w e t e e e w e e e w w t e w t t e p e e e e w e e e e e ",
"w e e e e w e e e t t e e e e e w w w w e e e e v g t e e e e e w t e e e e e p p k g e e w w w w e ",
"e e t t e e e e e e t e e e e e w e e e e e e e e w e e t e e e w e e e e e e e r j g t e w w e e e ",
"e e t t e e e e e e w w w e e e w t t e               d t e 9 9 w w e e e e e e e r t e w w e e w e ",
"w e e e e e w w w w 9 9 9 e e e e t g e               t p p p k w w e e e e e e r e e e e e e e e e ",
"e e e e e e e w w w 9 9 w e t e e t d   J J ! ! ! J J   e e 0 9 w e e e e e w 0 e 0 9 w e e e e e t ",
"e e w w w w w w w e e w w e e e t     > > > > J J > > >     e 9 e d p e e     9 9 8 9 w e e e t e e ",
"e w 9 8 8 8 9 8 e e t e e e e t g     > > > > J J > > >     p e e n k e e     9 8 8 9 e e e w e e e ",
"e t w 9 w w 9 e e e p d t e e w   ; ; ; T I I -.-.I I I < <   e w w e 8   #.#.    t e e e t t e e e ",
"e e e w e e e e e t t t e e e e   ; ; E I I -.M M N N o.< <   9 w w e 9   #.#.    d r t t p t e e e ",
"e t g t e t t e t t t e w w w e   ; ; I I R -.N N N N o.< <   9 e e e e   #.#.    i u t e t e w e t ",
"e e d t e e t w e e e e e w w e   ; ; q q q N N N N N N q q   e e e p e   #.#.    u t e e t e e e e ",
"e t d t e t p w w e e t t e e e   ; ; q 3 3   3 3 3 3   3 3   l p t k p   #.#.    9 9 9 9 9 w w e e ",
"e t t e e t t e e e e t t e t d   ; ; q 3 3   3 3 3 3   3 3   x p t p r   #.#.    7 7 6 6 8 9 9 e e ",
"w e w 9 w e w 9 w e e t t e t d   ; ; q / /   / / / /   S S   i p e     #.' ' %.#.  e u e e e t e e ",
"e t e w e e 9 0 9 9 e d p e e e   ; ; q / /   / / / /   S S   u t w     #.' ` %.#.  t d d t t t j j ",
"e t t e i r 9 6 7 9 9 e e e     q q q q / _ / / / / / / D S q     e     ' Q Q ' '   7 t x t 0 u t t ",
"e t e e i i 0 8 6 8 0 e e e           / / / _ / / / / / D F       t r t   Q Q     6 6 9 9 9 0 x 9 w ",
"e t e 0 e u e 0 9 0 t d e e           / / / _ _ / / / / S S       p d p   Q Q     6 7 9 0 9 e d w e ",
"e e 9 8 9 e u u 0 0 t d e e g t e     . 3 3 + + + + + 3       0 r p j p   m N     8 9 e i d t e e e ",
"e e e 9 e e t d d e t d           q q ; ; ; 3 3 3 3 3 ; ; ; q       e e   % &     u 0 e t j t e t t ",
"w e e e r p r r i e e t           q q ; ; ; 3 3 3 3 3 ; ; ; q       0 e   & &     i t e 0 e u e 9 9 ",
"e e w e r r e e 0 9 9    . .-.-.-.N N ; -.-.-.-.-.-.-.-.; ; N  . .I       4 4     r t t e 9 0 e t t ",
"t e w w e e e e e     I  . . . . .N N ;  . .-.-.-.-.-. .; ; q I I I < <   4 4     u e e 0 0 e e t e ",
"e t t w 9 e e w e     I  . . .o.o.N N ;  . .-.-.-.-.-. .; ; q I I I < <   4 4     t t e e e p g p t ",
"e e e 9 9 9 9 9 e     I I I I I M q q ;  . . .-.-. . . .; ; q N N < < < q 4 4     r e e w e e e t e ",
"e e w w w 9 9 w e     Y R I I I N q q ;  . . .-.-. . . .: ; q N N < < < q 4 4     d p e e e e t e e ",
"e e e e e e e t e     ;  . . . .q . . ; I I  . . . . .I ; ; . q q N N m . 4 5     0 e e e e e e e e ",
"w t e e e t t t   q q q N M N N q . X ; I I I  . .I T I ; ; X . . G - - $ $ $       w u t e e w e e ",
"e t t e e t t e   q q q N N N m q . . ; T I I  . .I T I ; ; . . . G - - $ $ #       e p d t e e w w ",
"t u e e e e e w e     - H H - - * . . X 1 1 I I I T I < . . . - - - J J $ $ $ O O   e e e e w w e t ",
"t e w w w w w w w w w   J J J J > . . . < < I I I R I < . .       > 2 2 # O O O O   u t u e e e e e ",
"e t p t e w w e w e e   J J J J > . . . < < T I I R Y < . .       > 2 2 $ O O O O   e t t e e u t t ",
"e e 9 9 w e e e e e e   $ $ $ $ $ O O $ $ $ 4 N N q q $ O O   p p   > > , & %     e e e e 9 8 w e t ",
"t t e e w w e e t u u   # $ $ $ $ O O $ $ $ 4 q q N N $ O O   p e e       4 4     e e e 9 8 9 w e e ",
"d h h t w w w e t t u   $ $ $ $ $ O O $ # $ 5 q q N N $ O O   e w 9       4 4     e e e w 9 w e e e ",
"p u 9 9 w e w 9 e e e   $ $ $ $ $ . . . . X < I I < < . X .   e e e e e   4 4     e e e e e e e e t ",
"e 9 8 8 7 8 9 9 9 e u e     O O O . . . . . < I Y < < . X X   p t t e t   4 4     e e t t t e e 9 9 ",
"e e e 9 8 8 9 9 0 e r r     O O O . . . . . < I I < < . . X   d t t t t   4 4     e e e t t e e w w ",
"e e 0 e e e 9 9 9 e e t p p       2 2 J . . < I I < < . J J   d t e e e   & &     e e e e e e e e e ",
"e e e e p d 0 e e 0 e p p e       2 2 L X . < I I < < . J J   9 e w 9 e   & &     w e t e e e p 9 w ",
"e r p e d k e e 9 9 e e e e e e   > > > * * < < < < < * > >   d w e e e   & &     t t w 9 e p e u e ",
"e p k e p k e 9 8 9 9 e e e e e   * * * * *           * * *   v e e p t   & &     d d d t t t t p u ",
"r p j e e p 0 9 9 9 9 0 e r r e   * * * * *           * * *   r w p k t   & &     e e t e e e e t e ",
"k e e e e e 0 e e e 9 9 e d d t   * * o       e 9     * * =   d e t p e   & &     t e 8 6 w u e e e ",
"k 0 e e 9 9 8 9 0 9 8 7 9 u u 0   # $ $     e e e     $ $ $   r e e e e   & &     e e 9 9 9 e e e w ",
"p 9 e e 9 8 7 9 9 9 8 7 7 9 9 9   $ # $     e e r     $ # $   e e e e e   & %     8 9 e e 8 6 w t e ",
"e 9 e e 0 u e 0 0 0 0 9 9 7     @ @ @ @     e e e     @ @ @ @     e e t   & %     9 w w w 9 w e r e ",
"t 9 e e 9 e e e 0 9 e p 9 t                 t e e                 r r p           9 e t r k j r r r ",
"d w e e e t j k r e j k e j                 t e e                 j j p           w e t e p e e r r "
};
