/* XPM */
static char *a9be510609c04f908c1829c694c5c71a1705588504[] = {
/* columns rows colors chars-per-pixel */
"50 50 185 2 ",
"   c #0E0300",
".  c #0F0B05",
"X  c #130500",
"o  c #1A0701",
"O  c #160B04",
"+  c #1A0C05",
"@  c #170D09",
"#  c #1C0E09",
"$  c #1C1006",
"%  c #1D120B",
"&  c #1F1611",
"*  c #1F1810",
"=  c #210500",
"-  c #210C06",
";  c #220E09",
":  c #23130D",
">  c #28150E",
",  c #23190F",
"<  c #2A180E",
"1  c #2C1203",
"2  c #311B0D",
"3  c #241511",
"4  c #291712",
"5  c #261A14",
"6  c #2B1B15",
"7  c #271C19",
"8  c #2C1D19",
"9  c #311E17",
"0  c #321E1B",
"q  c #2B2016",
"w  c #2E221B",
"e  c #33231C",
"r  c #38251E",
"t  c #32281F",
"y  c #3D2211",
"u  c #2C2721",
"i  c #342621",
"p  c #392622",
"a  c #362A23",
"s  c #3B2B25",
"d  c #3D2D29",
"f  c #3C3026",
"g  c #3E312A",
"h  c #401F0E",
"j  c #512816",
"k  c #5D2E1C",
"l  c #61371E",
"z  c #6E3D1D",
"x  c #402C26",
"c  c #412E2A",
"v  c #4B2F2B",
"b  c #43332D",
"n  c #49312F",
"m  c #443531",
"M  c #493732",
"N  c #463932",
"B  c #4B3B35",
"V  c #4D3D39",
"C  c #503C36",
"Z  c #533F3A",
"A  c #4D413B",
"S  c #53433D",
"D  c #59443E",
"F  c #69483F",
"G  c #544541",
"H  c #5A4641",
"J  c #554942",
"K  c #5B4B44",
"L  c #5C4E49",
"P  c #5E524B",
"I  c #634B44",
"U  c #624E4A",
"Y  c #64534D",
"T  c #6C554D",
"R  c #61584F",
"E  c #6A584E",
"W  c #71554D",
"Q  c #655551",
"!  c #6A5652",
"~  c #655A52",
"^  c #6C5B55",
"/  c #6D5D59",
"(  c #715C56",
")  c #725E5A",
"_  c #795D59",
"`  c #6E6057",
"'  c #6D615B",
"]  c #74635C",
"[  c #79635D",
"{  c #75685F",
"}  c #6F6661",
"|  c #756561",
" . c #7A6661",
".. c #756962",
"X. c #7C6B64",
"o. c #7D6E69",
"O. c #7E716B",
"+. c #985D3B",
"@. c #976544",
"#. c #96644D",
"$. c #916E52",
"%. c #9C7053",
"&. c #A96F57",
"*. c #A8745C",
"=. c #806460",
"-. c #816B65",
";. c #896E66",
":. c #826E69",
">. c #886F68",
",. c #827167",
"<. c #83726C",
"1. c #89736D",
"2. c #86786F",
"3. c #8D7364",
"4. c #907967",
"5. c #9D7262",
"6. c #847571",
"7. c #8B7672",
"8. c #867A73",
"9. c #8B7B75",
"0. c #8E7D79",
"q. c #927B76",
"w. c #927E7A",
"e. c #987C7B",
"r. c #A77E68",
"t. c #8F817B",
"y. c #928076",
"u. c #94827D",
"i. c #9B837F",
"p. c #A58B7E",
"a. c #AA917D",
"s. c #BE9577",
"d. c #B4947D",
"f. c #958581",
"g. c #9C8682",
"h. c #958982",
"j. c #9C8A84",
"k. c #9D8E89",
"l. c #9D918A",
"z. c #A28684",
"x. c #A28B85",
"c. c #A48D8A",
"v. c #A98F8B",
"b. c #A59185",
"n. c #A4928C",
"m. c #AA938D",
"M. c #A79B8F",
"N. c #AC998F",
"B. c #A59591",
"V. c #AB9591",
"C. c #A69A93",
"Z. c #AB9B94",
"A. c #AB9D99",
"S. c #B09B95",
"D. c #B29E9A",
"F. c #B29492",
"G. c #ADA39B",
"H. c #ACA296",
"J. c #B3A39C",
"K. c #BAA39D",
"L. c #B4A99F",
"P. c #B8AA9F",
"I. c #B4A5A1",
"U. c #BCA5A1",
"Y. c #B4A9A3",
"T. c #BCACA5",
"R. c #BDAFA9",
"E. c #BDB3AB",
"W. c #C0ADA6",
"Q. c #C1AEA9",
"!. c #C4B2AC",
"~. c #C9B4AE",
"^. c #CDB1A5",
"/. c #D7BCAA",
"(. c #C4B5B0",
"). c #CBB5B2",
"_. c #C6BCB2",
"`. c #CCBBB4",
"'. c #CDBCB8",
"]. c #D2BCB4",
"[. c #D3BFB9",
"{. c #C9C0B7",
"}. c #CEC1B9",
"|. c #D2C0BB",
" X c #DDC6C0",
/* pixels */
"v.B.U 4 ) -.:.:.-.;.>.-.M x l.k.z.F.z.v.v.x.c.c.7.Z p  .! 0 Q B.B.c.j.B.l.e 7 i 4 8 7 8 : w g b m n ",
"w. .G 3 e H Y I I Z v b > p ' 0.g.c.v.z.j.c.k.k.7.i 7 m e 8 w.c.k.x.j.f.0.4 3 m L G J B , O # O # # ",
"8 7 3 % O , w e 6 9 4 : o 7 w w p e s d d a i i i & @ @ . @ i d s d p p p 4 I.B.6.w.9.9.A 6.G.T.D.Z.",
"Y.A.f.k.X.t b D ) ..<.<.9.O./ 7 + a m V G V g i J G } E.I.A.6./ K Z B > L | ../ | L / } i `.f.t.:.:.",
"^ ] ~ Y f L J.J.D.g.q.:.| Q V 8 `.R.A.B.f.| V o.k.B.c.w.<.6.-.0.j.y.K D ] ^ ` ] X.] ,.] 5 u.,.X.-.-.",
"^ ! ( Y : ^ n.x.v.c.v.g.w.:.m s X./ ) ! / ! 0 q.k. .) ) _ ( ( ( ^ Y 9 s N.,.:.,. .6.X.] a q X.X.-. .",
"T ! Y C - X.Z.F.m.v.v.x.m.v.H > 6.) ) / / L 0 g.w. .-.:._ -.-._ _ K c 4 Q.9.<.X.,.o.O.E b o Y -.:.X.",
"U H n c + U i.y.q.q.e.7.>.-.! + ! / / Q L n 8 ^ :.6.-._ -. ._  .^ D c - 0.^ ^ E ! ! Y K c + s B B M ",
"; 4 # + O * 3 w 8 8 , > : : + + @ & @ @ &   # & d 0 e 0 e 8 4 6 4 , 6 ; 4 8 e e 8 e p e r - X ; # # ",
"B.B.C.T._.E.O.@ O.t.n.n.l.j.h.n.O.G J A.Y.I.l.C.k.t./ 8 l.J.R.`.`.J.N.j.K N Y <.i.y.! 0 Z 0.D.Z.B.k.",
"{ { o.O.o.} o.3 k.| ] ^ [ ] ^ ' ~ u 8.' R / Q L Q L V J M.o.9.X./ ^ ^ Q C ,.j.2.X.` U C  .! /  ...] ",
"1.X...o.X.' o.3 (.:.) _ [ [  .) / u } / / Q ) ) Q | Z L ] ^ E ` ^ ~ ~ Q C D ^ ` ! ! K C A.n.B.z.v.v.",
"[ [ [ [  . .) 4 U.v.e.z.z.g.v.v.k.G :.:.X.1.-. .-. .<.3 ! ^ Q Y J G B g e A | | o.o.~ B I.g.c.c.v.v.",
"I I D S B B c # 7.D.z.c.v.v.x.c.f.3 )  .X.-._ 6.6.| o.7 3 d d d g d m B # b o.O.X.o.H 8 f.c.B.B.v.x.",
"r w w t 5 % 5 # G 6.7.7.7.-.[  .X.8 e m B K Q L D ^ J & @ q a d m m B A : i L G S G b : V L Q ) Y L ",
"+ - < b B N m O 3 : 8 8 4 : 4 0 r d S S c i 4 ; 3 # % @ G J g a : # + + # % V G G A V A Z n 3 # ; 3 ",
"S j.].`.].]. X|.T.c.6.L 7 k.).(.J.N.k.j.f.6.d B.'.f.M !.(.].].].].U.z.7.X.M W.7.1.y.k.n.c.A.6.4 Q.[.",
", P.K.b.p.q.W T U Q L G 7 m | / ^ ^ ) ) ! G i B.6.G K U.B.m.z.;._ W I I H r ] ^ E ` ^ ^ / Y V p z.K.",
"+ P.K.n.i.x.m.z.6.X./ u Q f.d G P S B m g u 7 / Q g J B.M.b.b.F.V.x.m.u.>.p S A L G S B g d i 3 w.X.",
"$ L.H.x.F.z.m.b.b.k.8.7 J / V & + + # % & @ @ 7 u # i C.N.N.N.x.x.Z.j.c.v.<.+ 6 B V G J G K A # g.) ",
"O ..y.h.x.n.b.b.c.C.^ % V / m L V.V.U.Q.Q.!.D.B.o.H o I I _ 1.1.q.n.l.n.l.b.6 8 S K A D J S G 7 i s ",
"O N D S E ( ^ ] ~ S S 7 Q L & o.6.X.X.:.X.<. .) ^ D - s I T I T ! Q ] ^ ^ Y N X A D A D A A L d # 3 ",
"* % g g b s b d a s X w M # # m c d b f d g N m b 8 o - - < 2 6 e s s s e d , : 5 q r f a f N e # O ",
"{ O...{ ] D 6 M S Y ] ! | | | o.o.<.:.X.<./ J 7 # P o.j.n.n.y.-.P B + 8 B B Y K L J N : % o X c ) w.",
"k.2.9.o.~ K > ).y.[ |  .| X.7.w.6.,.8.8.8.8.8.s n.}.(.u.{ ` Y { o.| 4 '.'.T.I.Z.V.n.K.T.Z.X.) [.!.(.",
"Q ..~ | ! B ; Z.7.x.f.q.g.g.f.g.,.X.X.X.O.o.G X R.O.Y [ ] ^ ` ( U i p I.) ^ ^ ^ ^ Y ) Q C c <.u.1.7.",
"X.:.<.[ ..! > n.x.F.x.m.B.c.B.:.X.X.X.-.[ ) r - T.g.1.,.-.:.:.X.:.i n 6. .| ( [ ` [ ) [ ^ 0 ] <.1.1.",
"<. .| <...K o 9.Z.z.v.N.v.w.:.:.-.,.:.[ Y S < 6 Q.S.q.] -.:. .,./ r i o.:.>.:.o.:.,.X.-.X.Z ] <.1.1.",
"] ! ] ~ ! b + M ] [ ( [ ^ E ~ D J A f e 5 5 : , 8...{ ] ] { ~ R A e # G Y ( { { ..X.-.X.X.D q ' ] _ ",
"> 4 : % q , t t n n r 9 : : , % + O $ % q a A A A f , $   O % + 3 & # # 4 9 e x c r t e f t O t r r ",
"V.g.6 b.b.H.H.M.M.b.y.< 2.n.g S <.y.k.n.b.j.k.u.9.{ e ( l.l.n.A.A.A.k.J 8 b f N S Y ` ^ ' 5 A { o.<.",
"^ ! % O.{ { ` { ] ( ^ > J.E t o.X.:.:.:.:.-.-.X.[ X.e <.n...] ^ / / Q , 0.[.!.H.i.<.,.{ R O H.R ^ ] ",
"X.G #  .| X.|  . .! / p w.J a o.:.-.;.-.=.>.-.X.] D e B ^ / / / ( ] S e ).D.g.7.,.-.;.[ S $ E.o.)  .",
"B d O B M i c s s p 4 # ^ G 3 Y W _ [ _ ! I C M b d - - > 7 7 6 > 6 X ,.F.m.x.b.m.v.z.z.( + R.y.-.X.",
". % % @ & & # # 5 & O 5 N % O 7 6 w < 9 e , > % 6 B ` u.B.B.k.h.u.o.A u.j.x.N.b.i.N.p.=.b O A.u.9.w.",
"E.Y.G.l.G G 8.A.h.I.A.8...P w R o.u.8.2.<.<.] b ,.y.j.Z.c.g.f.h.u.2.A f [ 7.7.2.E S v C g # G L Y S ",
"~ ' | Q P t.) ^ / Q Q K P A L }.].T.x.M.g.<.X.b ..<.O.O.O.t.l.l.l.h.g @ & # + : ; c p p e 8 3 7 : X ",
"/ ^ Y K / | Q Q ! Q ^ Q L g / 8.-.:.[ X...,.{ 6 A L R R P ` ' ' } ' & o.8.t.2.M V B.D.(.Y.I.A.D.A.2.",
"G C M 4 0.g.X.:.-.:.-.6.X.| m  .=.-.=.-. .[ Y 6 O : $ % $ % @ 7 * @ @ ..] [ { q n | | o.o.O.O.6...R ",
"d s M ;  .6.6. .o. . .| ) U > C C D C B D C b 6 f U ] o.O.t.' P V 7 g J B A f $ % % i u d g p i r : ",
"# O # O & & 3 % 3 3 7 8 7 7 X % + + + + o + 6 g.[.[.'.c.:.) ! ( / Z [.~.W.H.T.J.l.8...J q q A ^ :.o.",
"/ / ..8.f.J i } } ~ V # A ~ O.j.C.l.b.G.b.] U 6.-._ 1.e.e.z.c.c.| d ) ! [ ^ E ..8.O.O.' * M.a.{ ] _ ",
"B.k.| ~ V g O.l.B.k.O.3 E.O.O.0.h.b.b.i.u.+ i.c.c.B.V.c.c.v.w.6.Z 0 ( ) ( [ ] ] ' ~ ~ P + /.a.4.-.] ",
"g.6.6.9.o.G G g.f.f.X.7 Q.n.n.j.b.h.n.x.g.+ v.b.c.c.c.c.B.0.| } 7 V i.,.,.,.,.:.O...{ g 1 /.d.d.N.b.",
"c.c.V.c.n.! ; Q X.) I 4 ).z.g.V.x.x.m.v.q.- z.n.c.c.V.f.<.' } L 7 Q D.z.,.o.1.-.<.,.K 2 y r.s.$.a.x.",
"V.n.c.e.o.G ; r c m 0 8 ! >.7.6.:.] E Y ! - 9.q.0. .Q G A g d & . } e.0.h.t.X.-.) Y Y 2 j @.@.%.3.,.",
"n c c i d d X # # : % # 7 8 r 8 , w w e 9 ; ; 4 4 p 3 : # ; # O . u u p s e p 0 p 9 - = k &.+.z h t ",
"} V 7 L ..o.A.R.'.R.I.I.j.0.! # L._.L.L._.~.R.J.b.^ b :.w.c.N.J.G.f.w.6.J 4 ) z.K.~.!.^.5.*.*.l ( j.",
"6.| w <.o.8.2.X.] ] ] { [ ^ m # | Q R Y Y ` { ` K 7 S / ! Y Y Y P P Q G u Q '.g.-.( T T W F F < I R ",
"/ L + ..] ] [ ` ] ] ( ] ^ U d X Y K U Y L Y R K V : B Q Q Y E Y ~ L P d # } A. .-.[ [ ] [ _ ^ e M S "
};
