/* XPM */
static char *_02f231e75f5447b926091aee3d7ef2b3KxQNJfRjJYcgjco[] = {
/* columns rows colors chars-per-pixel */
"50 50 113 2 ",
"   c black",
".  c #DD2112",
"X  c #DE2112",
"o  c #8E140C",
"O  c #7E6502",
"+  c #FECD04",
"@  c #FBCA04",
"#  c #CE1F11",
"$  c #290603",
"%  c #4E0C06",
"&  c #DC2112",
"*  c #FF4826",
"=  c #D21F11",
"-  c #85140B",
";  c #650F08",
":  c #DD2112",
">  c #DD2112",
",  c #DD2112",
"<  c #DD2112",
"1  c #DD2112",
"2  c #DD2112",
"3  c #DD2112",
"4  c #DD2112",
"5  c #DD2112",
"6  c #DE2112",
"7  c #DE2112",
"8  c #E52213",
"9  c #CE1F11",
"0  c #CC1E11",
"q  c #8A150B",
"w  c black",
"e  c #7E6502",
"r  c #FECD04",
"t  c #FBCA04",
"y  c black",
"u  c #290603",
"i  c #250603",
"p  c #060100",
"a  c black",
"s  c #7E6502",
"d  c #FECD04",
"f  c #FBCA04",
"g  c black",
"h  c #4E0C06",
"j  c #480B06",
"k  c #0E0201",
"l  c black",
"z  c #7E6502",
"x  c #FECD04",
"c  c #FBCA04",
"v  c black",
"b  c #DC2112",
"n  c #DC2112",
"m  c #D62011",
"M  c #7E6502",
"N  c #FECD04",
"B  c #FBCA04",
"V  c black",
"C  c #DE2112",
"Z  c #DD2112",
"A  c #DD2112",
"S  c #DD2112",
"D  c #DD2112",
"F  c #DD2112",
"G  c #DD2112",
"H  c #DD2112",
"J  c #DD2112",
"K  c #DD2112",
"L  c #DD2112",
"P  c #DD2112",
"I  c #DD2112",
"U  c #DD2112",
"Y  c #DD2112",
"T  c #DD2112",
"R  c #DD2112",
"E  c #DD2112",
"W  c #DD2112",
"Q  c #DC2112",
"!  c #4E0C06",
"~  c #4E0C06",
"^  c black",
"/  c black",
"(  c black",
")  c black",
"_  c #DD2112",
"`  c #E52213",
"'  c #91160C",
"]  c #2E0704",
"[  c #450A06",
"{  c #EB2313",
"}  c #DD2112",
"|  c #DD2112",
" . c #DD2112",
".. c #DB2112",
"X. c None",
"o. c #D52011",
"O. c #DD2112",
"+. c #DD2112",
"@. c #DD2112",
"#. c #DD2112",
"$. c #DD2112",
"%. c #DD2112",
"&. c #DE2112",
"*. c #CE1F11",
"=. c #290603",
"-. c black",
";. c #7E6502",
":. c #FECD04",
">. c #FBCA04",
",. c #4F0C06",
"<. c #DC2112",
"1. c #4E0C06",
"2. c white",
/* pixels */
"                                                                                                    ",
"                                                                                                    ",
"                                                                                                    ",
"                                                                                                    ",
"            . . . . . .                                                     . . . . . .             ",
"            . : > , < .                                                     . < , > : .             ",
"            . 1 %.2 3 .                                                     . 3 2 %.1 .             ",
"            . 4 %.5 3 .                                                     . 3 5 %.4 .             ",
"            . 4 %.5 3 .                                                     . 3 5 %.4 .             ",
"            X 6 &.7 8 o O + @ @ + O         O + @ @ + O         O + @ @ + O o 8 7 &.6 X             ",
"            # 9 *.0 q w e r t t r e y y y y e r t t r e y y y y e r t t r e w q 0 *.9 #             ",
"            $ u =.i p a s d f f d s a a a a s d f f d s a a a a s d f f d s a p i =.u $             ",
"              g -.-.-.-.;.:.>.>.:.;.-.-.-.-.;.:.>.>.:.;.-.-.-.-.;.:.>.>.:.;.-.-.-.-.g               ",
"              g -.-.-.-.;.:.>.>.:.;.-.-.-.-.;.:.>.>.:.;.-.-.-.-.;.:.>.>.:.;.-.-.-.-.g               ",
"              g -.-.-.-.;.:.>.>.:.;.-.-.-.-.;.:.>.>.:.;.-.-.-.-.;.:.>.>.:.;.-.-.-.-.g               ",
"              g -.-.-.-.;.:.>.>.:.;.-.-.-.-.;.:.>.>.:.;.-.-.-.-.;.:.>.>.:.;.-.-.-.-.g               ",
"            % h ,.j k l z x c c x z v v v v z x c c x z v v v v z x c c x z l k j ,.h %             ",
"            & b <.n m * M N B B N M V V V V M N B B N M V V V V M N B B N M * m n <.b &             ",
"            . 4 %.5 C = O + @ @ + O         O + @ @ + O         O + @ @ + O = C 5 %.4 .             ",
"            . 4 %.5 3 .                                                     . 3 5 %.4 .             ",
"      . . . . Z %.5 A . . .                                             . . . A 5 %.Z . . . .       ",
"      . S D F G %.H J K F .                                             . F K J H %.G F D S .       ",
"      . L P I U %.Y T R E .                                             . E R T Y %.U I P L .       ",
"      . 3 W %.%.%.%.%.%.1 .                                             . 1 %.%.%.%.%.%.W 3 .       ",
"      . 3 5 %.%.%.%.%.%.4 .                                             . 4 %.%.%.%.%.%.5 3 .       ",
"      . 3 5 %.%.%.%.%.%.4 .                                             . 4 %.%.%.%.%.%.5 3 .       ",
"      . 3 5 %.%.%.%.%.%.4 .                                             . 4 %.%.%.%.%.%.5 3 .       ",
"      . 3 5 %.%.%.%.%.%.4 .                                             . 4 %.%.%.%.%.%.5 3 .       ",
"      . 3 5 %.%.%.%.%.%.4 .                                             . 4 %.%.%.%.%.%.5 3 .       ",
"      . 3 5 %.%.%.%.%.%.4 .                                             . 4 %.%.%.%.%.%.5 3 .       ",
"      . 3 5 %.%.%.%.%.%.4 .                                             . 4 %.%.%.%.%.%.5 3 .       ",
"      . 3 5 %.%.%.%.%.%.4 .                                             . 4 %.%.%.%.%.%.5 3 .       ",
"      & Q n <.<.<.<.<.<.b &                                             & b <.<.<.<.<.<.n Q &       ",
"      % ! ~ 1.1.1.1.1.1.h %                                             % h 1.1.1.1.1.1.~ ! %       ",
"        ^ / -.-.-.-.-.-.g                                                 g -.-.-.-.-.-./ ^         ",
"        ^ / -.-.-.-.-.-.g                                                 g -.-.-.-.-.-./ ^         ",
"        ^ / -.-.-.-.-.-.g                                                 g -.-.-.-.-.-./ ^         ",
"  . . - ( / -.-.-.-.-.-.) ; . . .                                 . . . ; ) -.-.-.-.-.-./ ( - . .   ",
"  . _ ` ' ] =.=.=.=.=.=.[ { } K .                                 . K } { [ =.=.=.=.=.=.] ' ` _ .   ",
"  . |  ...X.*.*.*.*.*.*.o.O.+.@..                                 . @.+.O.o.*.*.*.*.*.*.X... .| .   ",
"  . 4 %.%.&.&.&.&.&.&.&.%.%.H 3 .                                 . 3 H %.%.&.&.&.&.&.&.&.%.%.4 .   ",
"  . 4 %.%.%.%.%.%.%.%.%.%.%.5 3 .                                 . 3 5 %.%.%.%.%.%.%.%.%.%.%.4 .   ",
"  . 4 %.%.%.%.%.%.%.%.%.%.%.5 3 .                                 . 3 5 %.%.%.%.%.%.%.%.%.%.%.4 .   ",
"  . 1 %.%.%.%.%.%.%.%.%.%.%.2 3 .                                 . 3 2 %.%.%.%.%.%.%.%.%.%.%.1 .   ",
"  . : > #.#.#.#.#.#.#.#.#.$., < .                                 . < , $.#.#.#.#.#.#.#.#.#.> : .   ",
"  . . . . . . . . . . . . . . . .                                 . . . . . . . . . . . . . . . .   ",
"                                                                                                    ",
"                                                                                                    ",
"                                                                                                    ",
"                                                                                                    "
};
