/* XPM */
static char *template__3_1705589684[] = {
/* columns rows colors chars-per-pixel */
"50 50 227 2 ",
"   c #2E2719",
".  c #332F17",
"X  c #2B2B2A",
"o  c #272826",
"O  c #342F23",
"+  c #353323",
"@  c #383928",
"#  c #333332",
"$  c #393A36",
"%  c #2E3127",
"&  c #473B13",
"*  c #423E2B",
"=  c #453827",
"-  c #563B22",
";  c #423B33",
":  c #46461B",
">  c #594D19",
",  c #59561A",
"<  c #545E16",
"1  c #5C6D1C",
"2  c #57621C",
"3  c #5B7215",
"4  c #687E0F",
"5  c #636818",
"6  c #647C16",
"7  c #667818",
"8  c #717E1D",
"9  c #464629",
"0  c #564527",
"q  c #4B5522",
"w  c #4C4533",
"e  c #474934",
"r  c #584A36",
"t  c #4A5030",
"y  c #55503B",
"u  c #5A533A",
"i  c #5A5D38",
"p  c #525C21",
"a  c #6E492A",
"s  c #654729",
"d  c #734A2C",
"f  c #655525",
"g  c #654D34",
"h  c #67553A",
"j  c #755938",
"k  c #72532B",
"l  c #596724",
"z  c #67612C",
"x  c #69762A",
"c  c #627424",
"v  c #747B26",
"b  c #656E32",
"n  c #766535",
"m  c #6C7637",
"M  c #757C36",
"N  c #5C5746",
"B  c #554F40",
"V  c #625C42",
"C  c #6A5A43",
"Z  c #655A4A",
"A  c #725C44",
"S  c #715F4A",
"D  c #696246",
"F  c #6C654A",
"G  c #656348",
"H  c #736B4D",
"J  c #7C664A",
"K  c #6D784B",
"L  c #727441",
"P  c #787B46",
"I  c #6A6451",
"U  c #736B53",
"Y  c #786C54",
"T  c #7C7453",
"R  c #777557",
"E  c #6C7654",
"W  c #716F61",
"Q  c #797669",
"!  c #7B7767",
"~  c #9C7E07",
"^  c #887D3D",
"/  c #826847",
"(  c #89754C",
")  c #827955",
"_  c #837B5B",
"`  c #857257",
"'  c #977A5A",
"]  c #847D61",
"[  c #847B6A",
"{  c #837F71",
"}  c #66830C",
"|  c #7B9C0C",
" . c #769609",
".. c #6C8415",
"X. c #6B8A11",
"o. c #698319",
"O. c #748917",
"+. c #749313",
"@. c #7C9D14",
"#. c #7C991B",
"$. c #799718",
"%. c #7DA20C",
"&. c #7CA205",
"*. c #7FA11B",
"=. c #778927",
"-. c #7A9324",
";. c #7C8B3B",
":. c #829E18",
">. c #82AC05",
",. c #80A30A",
"<. c #85AC0A",
"1. c #86B501",
"2. c #89B603",
"3. c #87B900",
"4. c #8CBC01",
"5. c #8BB30C",
"6. c #8DBA0A",
"7. c #90BE02",
"8. c #90BD09",
"9. c #83A315",
"0. c #84A51A",
"q. c #88AD13",
"w. c #91BA16",
"e. c #8BB211",
"r. c #819D20",
"t. c #84983B",
"y. c #848D38",
"u. c #88A722",
"i. c #D4AA03",
"p. c #E4B702",
"a. c #8FC100",
"s. c #93C402",
"d. c #98C706",
"f. c #96C905",
"g. c #99CA06",
"h. c #95C30A",
"j. c #9AC709",
"k. c #97C909",
"l. c #9BCB09",
"z. c #9AC910",
"x. c #F0C001",
"c. c #8C835C",
"v. c #868755",
"b. c #97835F",
"n. c #8E9A59",
"m. c #A3845C",
"M. c #8B8463",
"N. c #898668",
"B. c #938962",
"V. c #998F66",
"C. c #958C6A",
"Z. c #978568",
"A. c #9B9067",
"S. c #9E9369",
"D. c #959E60",
"F. c #8A877B",
"G. c #8D8A7E",
"H. c #878474",
"J. c #938B7C",
"K. c #9B9777",
"L. c #8D9D61",
"P. c #AB8965",
"I. c #A98966",
"U. c #B18E6A",
"Y. c #A0956A",
"T. c #A3986E",
"R. c #A49466",
"E. c #B5906B",
"W. c #A49A71",
"Q. c #A69B77",
"!. c #B79774",
"~. c #A2A974",
"^. c #C29C75",
"/. c #C59F76",
"(. c #C6A179",
"). c #C9A37B",
"_. c #CCA277",
"`. c #D4AA7E",
"'. c #918E83",
"]. c #949286",
"[. c #9B998E",
"{. c #97958A",
"}. c #9E9C91",
"|. c #899285",
" X c #A09E94",
".X c #A59F99",
"XX c #A29B8E",
"oX c #B8A289",
"OX c #A3A196",
"+X c #A6A49A",
"@X c #A8A69C",
"#X c #ABAA9E",
"$X c #ACA894",
"%X c #B2AE8D",
"&X c #9CA6A0",
"*X c #A8A7A3",
"=X c #B0AFA5",
"-X c #B4AFAB",
";X c #B2B0A6",
":X c #B5B4AB",
">X c #B8B7AD",
",X c #BDBCB3",
"<X c #BBBAB8",
"1X c #CCA984",
"2X c #D4AD83",
"3X c #DAB38A",
"4X c #C2BB9F",
"5X c #E2B68A",
"6X c #EABD8D",
"7X c #E2B587",
"8X c #E4BE97",
"9X c #C0BEB7",
"0X c #C6BFA5",
"qX c #EFC191",
"wX c #F3C494",
"eX c #F9C997",
"rX c #FFCE9B",
"tX c #F2C89D",
"yX c #C4C2B9",
"uX c #C9C8BF",
"iX c #CCCBC3",
"pX c #C7C7C7",
"aX c #D4D2CA",
"sX c #DCDBD3",
"dX c #D9D7D0",
"fX c #D1CFC8",
"gX c #E2E1DA",
/* pixels */
"s.s.s.s.s.a.s.f.f.f.f.f.s.f.f.f.a.a.a.a.a.a.a.f.f.a.a.a.a.f.a.a.a.f.f.a.f.f.f.f.f.f.f.s.a.s.f.f.a.a.",
"a.s.s.s.s.a.a.s.s.f.f.f.s.s.s.s.s.a.a.s.f.a.f.f.l.l.f.a.f.a.s.a.a.f.s.a.s.f.f.f.f.f.f.f.s.s.a.a.a.s.",
"a.s.f.f.s.s.a.s.s.s.s.s.s.s.a.s.a.a.f.a.s.a.s.s.a.a.a.f.f.s.f.s.a.a.s.s.s.s.s.f.f.f.g.f.a.a.a.a.a.a.",
"a.s.s.f.s.s.a.a.a.s.a.4.a.s.s.a.a.f.f.f.a.s.s.a.f.f.f.f.f.a.a.a.a.a.a.f.s.a.s.f.f.f.f.s.a.a.a.f.a.s.",
"a.a.a.s.s.s.s.a.a.a.X.q y V l ..f.f.l.s.a.s.a.a.a.s.s.s.f.f.f.l.a.a.s.f.s.s.s.7.f.s.s.a.s.a.s.a.a.f.",
"s.a.s.a.s.s.s.s.a.} ~ x., M.Q.M.i o.f.f.s.a.a.a.s.s.s.g.f.a.a.a.a.s.s.s.s.s.7.7.s.s.4.a.s.s.s.f.f.f.",
"s.s.a.a.a.a.&.%.+.& p.i.> c.Y.Y.~.] 1 a.a.a.3.a.3.4.s.s.g.g.s.a.s.g.f.s.s.7.7.4.4.2.4.7.s.s.s.f.f.f.",
"s.a.4.3.1.3 t t w * : 0 ) Y.Y.Y.S.K.N.c a.a.3.a.a.a.s.s.g.l.g.s.s.l.g.s.d.s.7.7.1.4.4.7.a.a.a.s.s.a.",
"f.f.a.a.X.9 u r u u u w c.S.S.Y.Y.Y.W.R ..s.s.7.s.s.s.l.j.7.l.s.a.a.s.3.f.s.7.7.s.s.s.4.a.f.f.s.a.a.",
"a.s.s.a.} w r 9 +   O @ w _ S.S.Y.T.T.W.i 2.s.s.s.s.7.j.d.s.j.7.a.a.s.4.f.7.s.s.j.j.d.f.f.l.k.s.s.f.",
"s.f.f.f.6.:   = qXrX5XI.r 9 ` B.S.Y.S.T.D  .s.g.d.s.7.s.s.7.s.7.s.s.s.s.l.s.h.s.h.j.k.f.f.f.s.a.f.f.",
"a.s.l.f.7. .O # b.rXrX3X1X' r Y v.b.S.S.] +.d.j.d.s.s.7.7.s.7.s.s.f.f.s.j.s.7.7.s.h.h.h.a.s.s.s.s.a.",
"s.f.l.f.a.s.x Z ; rXU.; ; ; ^.C V F ) R._ X.d.s.s.7.7.7.7.7.7.l.g.g.g.g.j.7.7.4.2.7.4.2.4.4.4.a.a.a.",
"s.f.f.s.a.k.~.<XZ rXO - E.1XrX6XV V V S.C n >.7.7.7.7.2.7.4.j.z.g.d.g.g.7.7.7.2.2.2.2.2.2.3.4.a.s.a.",
"a.a.a.a.a.8.%X9X$XrX[ 9X.X!.rXrXeXw u F h !.n 4.s.j.2.2.7.2.7.j.g.s.s.d.7.7.7.4.4.7.s.h.h.a.a.f.f.g.",
"s.f.a.a.f.s.L.:X[ rXJ.*XpXoXrXrXrX1Xw 9 = / P./ :.l.2.2.2.4.8.8.g.7.7.s.7.s.7.4.2.7.d.j.z.h.f.l.l.l.",
"s.d.7.>.=.v.f s 8XrXoXpX-X3XrXrXeX2X` = + U 1X).^ l.j.7.4.4.7.8.s.7.7.s.j.s.4.4.7.>.$.U @ . %.a.f.f.",
"s.g.d.:.m.1X3XtXrXrX2XoX1XeXrXrX6XP.H h _ Q.!.5X/ 7 7.7.2.7.8.7.s.d.d.d.l.j.7.4.$.H H.F.W % : h.a.a.",
"s.d.s.7.$.j 2XeXeX6X' 7XrXrXrXrX' ) B.Y.T [ Q.R.- d 5 7.7.8.7.7.7.g.l.f.j.l.7.8 *X+X'.'.Q { G u.a.a.",
"d.s.7.2.7.w.4 s ' P._.rXrXrXrXwXF S.Y C J m.,.d.@.0 d ..j.7.7.7.j.g.l.d.j.8.r.J.Q }.iX}.{ H.G.;.s.f.",
"s.s.7.4.s.h.h.g P.J / 6XrXrXwX' B.H ( wX/.' | j.f.6., a 5 8.7.s.g.s.s.f.6.;.yX[.iX XQ  XyX}.Q n.f.f.",
"s.s.s.s.j.j. .` 1X%XZ.5XrX6X).Y S.D & n j 5 s.f.a.s.h., a , <.7.f.4.s.4.m =X+X-XsX XgXQ @X;XH.K a.a.",
"a.s.4.s.h.e.> Y T Z.' wX3X).^.H S.N o.&.| 7.s.f.a.s.s.<.5 B q ,.f.s.f.t.>X@XF.+X{.dX:X=X].].@XN.f.f.",
"f.s.a.5.5 ( U.U.I.J P.`.(./.I.T S.h 3 a.s.s.f.s.s.a.4.3.<.K &XP s.6.1 I ,X'.dX.X,X}.F.sX@X@X}.$Xs.f.",
"s.s.s. .b.)._.(.).E.(.).).)./ S.Y.* *.k.s.s.s.s.s.a.a.a.a.6.;.&XE 0 d d s u '.9XgX+XG.:XyX#XXX{.j.f.",
"s.s.s.,.( _.(.).(.(.!.).E.j F Y.b.@ 4.s.s.s.s.s.a.a.a.a.a.s.a.+.|.w Q N Y a d C ;XG.gX].fX].sXE f.f.",
"s.s.s.4.7 / !._.!.).U.j . * Y.S.V _ } 7.a.a.2.1.4.a.f.f.f.a.a.a.L.|.:X{.<X[.I d - J.sXOXG.@XgXK.s.a.",
"s.s.s.s.7.| 5 k J f > T y _ R.Y T S.M 4.a.a.4.7.a.a.k.l.f.k.a.a.#.y G.sX X*XsXF.h s I uX}.OXgXn.s.s.",
"a.s.f.s.s.g.l.<.<.6.*.H.V U ] b S.S.T &.7.s.s.7.a.s.f.f.f.f.f.f.f.z { gX X+XfX>XiXu d [ ].;XuXt.s.a.",
"a.f.f.a.s.f.f.s.f.f.| M.D V y S.S.T.A.x d.s.d.s.k.k.s.f.f.f.f.s.f.q.j ].yXsX].>XgX@XS s F.iX}.0.a.a.",
"f.f.f.a.a.f.f.s.a.s.>.v.Y S.S.Y.S.Y.Y.T @.d.j.f.k.h.a.a.a.f.f.a.f.f.#.A 9XsX*X;X=X=XdXh r yX! <.f.f.",
"f.s.a.a.a.a.a.a.a.a.6.L N K.4XS.T.S.T.A.c s.7.4.7.4.3.3.a.a.a.a.s.s.h.8 j [.uXgX'..XiX! a ! n.a.f.s.",
"s.f.f.f.s.a.a.a.a.s.f.b R [ yXR.Y.Y.Y.W.l 6.2.2.1.4.2.2.s.s.d.g.s.s.a.2.c g [.,X9XaX#X[ g 0 #.h.f.s.",
"s.a.4.a.a.a.s.a.s.s.a.=.R R Y.R.Y.Y.Y.N.1 7.7.7.4.s.s.7.s.d.s.g.f.s.s.f.a.=.g U sXgX.XgXS f >.7.f.f.",
"f.f.s.s.a.a.a.s.f.k.s.#.! G b.S.S.Y.W.I p s.s.s.7.f.s.s.d.g.d.g.s.a.4.s.f.a.*.f S '. XfXh k &.a.s.a.",
"l.l.l.f.s.a.a.s.f.s.s.<.P H B.T.W.W._ _ b f.j.h.7.c 9.s.s.g.s.d.a.4.a.s.f.s.s.k.+.f r 0 s ..a.s.s.s.",
"k.h.4.4.s.a.4.4.8.s.s.s.l U U N.R Z V C.=.d.j.j.e.o # 9.s.s.s.d.s.s.a.s.f.s.a.a.a.a.w.0.w.s.s.a.f.k.",
"a.4.4.1.3.4.4.4.4.s.s.f.6.1 F F T _ V._ $.h.j.e.l o X @ 6 2.s.j.f.f.f.f.f.s.s.a.f.f.s.f.f.f.s.s.4.a.",
"s.s.s.4.4.1.4.7.a.s.f.j.0.P u V.W.] F R.M 8.7.m R X X # X l s.j.f.f.f.f.f.f.s.s.s.s.s.f.f.f.s.s.a.a.",
"s.a.4.s.s.s.4.4.4.s.d.r.v.S.m 3 7 ,.q.v.B.x L H $Xt < # X % %.k.f.s.s.s.s.s.s.a.a.a.s.a.s.a.s.a.a.s.",
"s.s.s.s.f.j.4.s.s.7.8.P v.=.4.d.7.d.s.0.c.b._ M H...s.1 e 7 2.2.s.a.a.a.s.s.a.s.s.a.s.f.s.a.s.f.4.a.",
"7.d.g.s.l.l.s.s.4.4.,.v.P 6.s.d.7.s.s.g.#.x 9.j.:.j.f.7.s.7.d.l.a.a.s.f.s.a.a.s.s.f.f.a.a.s.f.f.s.a.",
"d.g.l.d.f.l.<.%.2.<.y.b.O.s.s.s.7.7.7.s.s.d.s.s.g.g.d.s.s.7.d.l.a.f.g.g.s.a.a.a.s.g.l.l.f.f.f.f.k.s.",
"d.g.g.d.d.9.@ $ o.r.F.y +.d.g.s.d.g.s.s.7.s.s.s.s.d.d.s.7.s.h.d.a.f.l.g.s.a.s.a.a.a.s.f.f.a.a.s.f.s.",
"g.s.d.s.s.+.X # e 9 R K.;.j.j.d.f.h.s.s.s.7.7.s.4.s.d.d.s.d.d.d.s.f.f.f.s.a.s.a.a.a.a.3.3.a.s.a.a.a.",
"l.s.7.s.a.1.p o X o $ o.6.d.h.7.4.4.s.7.s.7.s.s.s.d.d.d.d.s.d.d.a.s.s.s.a.a.a.a.a.f.a.a.a.3.a.s.s.7.",
"j.7.s.7.6.4.5.q % X + &.2.7.4.2.4.4.7.7.s.7.s.s.g.g.g.d.s.s.s.s.s.a.a.s.a.a.a.a.a.3.3.a.h.3.3.a.d.s.",
"7.7.s.s.a.a.a.6.3 % < 7.2.2.4.4.7.4.s.7.s.7.g.s.s.d.d.s.s.s.7.s.s.a.s.f.s.a.a.a.6.a.a.a.a.a.a.s.j.7.",
"d.4.s.a.a.a.s.s.s.+.,.g.7.d.s.s.s.s.s.a.a.s.f.s.s.s.s.s.s.a.s.a.s.f.g.g.f.f.a.s.f.a.a.f.f.l.f.g.d.d.",
"j.s.s.s.s.f.l.l.g.s.g.l.s.l.d.f.s.a.a.a.a.s.f.s.f.s.s.s.s.a.s.a.g.l.g.g.f.f.a.g.l.a.s.f.f.g.g.s.d.g."
};
