/* XPM */
static char *b52725f3fe7c4745cd50a14aa34eba31jr73qJhEnsDijKuB[] = {
/* columns rows colors chars-per-pixel */
"50 50 240 2 ",
"   c #160D18",
".  c #0D1319",
"X  c #151115",
"o  c #1C1315",
"O  c #14131B",
"+  c #1B141B",
"@  c #1B1A1C",
"#  c #161C19",
"$  c #0F0E0E",
"%  c #251919",
"&  c #220D1D",
"*  c #26251D",
"=  c #2C341D",
"-  c #363919",
";  c #150D24",
":  c #0B1729",
">  c #141424",
",  c #1C1223",
"<  c #161B23",
"1  c #1B1B23",
"2  c #14162C",
"3  c #141A2C",
"4  c #1A1C2A",
"5  c #1F132B",
"6  c #0C1A34",
"7  c #0B1C3A",
"8  c #091834",
"9  c #131633",
"0  c #141C35",
"q  c #181A37",
"w  c #0F0D2D",
"e  c #291C25",
"r  c #24192A",
"t  c #241934",
"y  c #2D1534",
"u  c #1B2727",
"i  c #0C223C",
"p  c #192637",
"a  c #2C232B",
"s  c #282527",
"d  c #322A25",
"f  c #382B2B",
"g  c #283528",
"h  c #252838",
"j  c #352B38",
"k  c #243236",
"l  c #393739",
"z  c #3E3A2E",
"x  c #44372C",
"c  c #473B39",
"v  c #523E35",
"b  c #394318",
"n  c #3D5819",
"m  c #29452C",
"M  c #394927",
"N  c #385324",
"B  c #2B4738",
"V  c #434C1B",
"C  c #47551A",
"Z  c #535C14",
"A  c #5A7415",
"S  c #4F6716",
"D  c #647B1A",
"F  c #647F09",
"G  c #48433B",
"H  c #53433C",
"J  c #56483A",
"K  c #575339",
"L  c #495426",
"P  c #546A30",
"I  c #6A7731",
"U  c #011E46",
"Y  c #0B2749",
"T  c #192846",
"R  c #1A314D",
"E  c #1B2F53",
"W  c #1B385A",
"Q  c #0F335B",
"!  c #282441",
"~  c #26354C",
"^  c #3A3B45",
"/  c #283956",
"(  c #363E57",
")  c #352D4B",
"_  c #293C61",
"`  c #463B45",
"'  c #503C55",
"]  c #402B52",
"[  c #3B4448",
"{  c #2C4459",
"}  c #38475A",
"|  c #2F484E",
" . c #2A4769",
".. c #3B4B6B",
"X. c #364867",
"o. c #3B5466",
"O. c #324E76",
"+. c #3F637B",
"@. c #4C4A4C",
"#. c #484547",
"$. c #534A45",
"%. c #544B4B",
"&. c #5A4C4C",
"*. c #564748",
"=. c #5C534E",
"-. c #55534C",
";. c #454D53",
":. c #474857",
">. c #534858",
",. c #5A5758",
"<. c #485256",
"1. c #64564B",
"2. c #645452",
"3. c #635A54",
"4. c #6A5B54",
"5. c #6C5C5B",
"6. c #6A585A",
"7. c #6C544D",
"8. c #6C635B",
"9. c #686257",
"0. c #73645B",
"q. c #766859",
"w. c #736A52",
"e. c #474B67",
"r. c #594F6D",
"t. c #445667",
"y. c #595867",
"u. c #485A7A",
"i. c #5A5779",
"p. c #594C71",
"a. c #65587B",
"s. c #645A61",
"d. c #5A6369",
"f. c #4B667A",
"g. c #576875",
"h. c #54707E",
"j. c #6C6563",
"k. c #6B656B",
"l. c #696766",
"z. c #7C6C63",
"x. c #7B6E6C",
"c. c #736A67",
"v. c #7A7365",
"b. c #7C726B",
"n. c #787568",
"m. c #656B76",
"M. c #736777",
"N. c #747374",
"B. c #7E7574",
"V. c #7C7B73",
"C. c #6B7479",
"Z. c #856B5A",
"A. c #8C775F",
"S. c #816C68",
"D. c #83746C",
"F. c #847B6C",
"G. c #8B7A6B",
"H. c #867568",
"J. c #837573",
"K. c #837A74",
"L. c #8A7B73",
"P. c #867979",
"I. c #917B7D",
"U. c #69880A",
"Y. c #769B0B",
"T. c #779B07",
"R. c #6A8512",
"E. c #6F9409",
"W. c #7CA507",
"Q. c #78862C",
"!. c #7F806E",
"~. c #7A845A",
"^. c #81AB07",
"/. c #89B700",
"(. c #87B900",
"). c #8CBC00",
"_. c #87B504",
"`. c #90BF01",
"'. c #8FC100",
"]. c #93C402",
"[. c #99C705",
"{. c #96C805",
"}. c #9ACA06",
"|. c #95C30A",
" X c #9BCB09",
".X c #99C809",
"XX c #82826D",
"oX c #88827A",
"OX c #938476",
"+X c #3B5C88",
"@X c #3D658B",
"#X c #4B5F80",
"$X c #6A5C80",
"%X c #486786",
"&X c #566888",
"*X c #467288",
"=X c #557489",
"-X c #456394",
";X c #556F90",
":X c #5C7493",
">X c #5B7799",
",X c #6B6985",
"<X c #776884",
"1X c #787A84",
"2X c #67799A",
"3X c #797496",
"4X c #6C718F",
"5X c #4F6EA5",
"6X c #667DA3",
"7X c #827C80",
"8X c #8479A1",
"9X c #708399",
"0X c #5E80AD",
"qX c #6D82A3",
"wX c #6887A7",
"eX c #7389A9",
"rX c #678BB2",
"tX c #778EB3",
"yX c #7796B9",
"uX c #7B90AF",
"iX c #7DA2BF",
"pX c #7F9DC3",
"aX c #7CB2CD",
"sX c #908783",
"dX c #8898B9",
"fX c #8A98AE",
"gX c #8BA9BB",
"hX c #849DC3",
"jX c #89A7CA",
"kX c #95B7CA",
"lX c #93AED2",
"zX c #88B7D4",
"xX c #97B5D7",
"cX c #8EABCC",
"vX c #96BAE4",
"bX c #8CB6E1",
"nX c #9AC7D7",
"mX c #A6C2D4",
"MX c #A8CFE7",
"NX c #95C1E4",
/* pixels */
"].].].].].].].{.{.{.{.{.{.{.{.{.].'.'.'.].'.].{.].].].'.].].].'.'.{.].'.{.{.].}.].].].].'.].].].].].",
"'.].].].].'.].].].{.{.{.].].].].].'.'.'.].'.].]. X X{.].].].].].'.{.].].].].].}.}.}. X{.].'.'.'.].].",
"].].{.{.].].].].].].{.].].].].].'.].].].'.'.].].].].].].{.].].].'.].].].].].].].[. X X{.].'.'.].].].",
"].].{.{.].].].].].].].'.'.].].].'.{.{.].'.'.].].'._.). X{.].).).'.'.].].].].].].].{.{.].'.'.].].'.].",
"'.].].].].].].'.'.'.).).).].].].].{.}.W.R.v.z.z.N.N.M.M.~.}.}. X'.'.].].].].].].{.].].].].].'.].].].",
"].].].].].].].'.'.'.).).'.].].].].{.Y.U.%.$.x d [ | ^ j #.-.U.).'.].].].].].].'.].`.).'.].].].].].{.",
"].].'.'.'.'.'.'.'.].].'.].].].]._.D l ,.c.9.c g.nXnXg.#.0.0.c.#.C `.}.].].].).).(.(.).].].].].{.].].",
"].'.).(.(.(.(.(.].].{.].].].].Y.P B.c.8.8.n.#.g.aXaXg.$.q.Z.B.N.,.` a * C D ).(.(.(.).].].'.'.].].].",
"].{.'.).'.'.).].].].}. X{.Q.3.oXq.z.z.z.z.4.s.e.*X*X<.5.7.Z.0.c.K.B.P.3.8.H x.A ].].].].].{.{.].].].",
"].].].'.].].].].{.{.{.Q.P 5.OXF.G.J z.L.D.2.J.^ { { ^ S.Z.A.1.K.q.4.z.OX3.c @.k.-  X[.{.{. X{.].].].",
"].{. X{.].{.{.].{.{.P t.t.[ b.G.F.K H *.&.f 6.P.1X1XM.5.x J -.n.F.4.Z.F.[ t.o.o.k.C .X{.{.{.].'.{.{.",
"].]. X{.].].{.'.].P f.kXnX=Xl.L.F.q.$.e + + % %   r e % o o @ l w.A.OX9.g.nXnXf.;.j.V ].].{.].].].].",
"].{. X{.].{.}.'.I :.+.aXaX*X#.I.4.% , W.].1 b e r e a a s 1 4 O % 4.F.G f.zXaX@X[ -.c.(.(.).'.'.].].",
"].{.{.].].{.{.].P.y.o.*X*Xo.l 5.f % ^.M h h u a >.<XM.M.r.^ ! 0 4 g j.l t.*X%Xo.l.B.,.E./.(.).).].].",
"'.].'.).'.].'.).x w.V.l.[ #.=.*.+ Y.< k k / p u g M L -.,XdXdX:XR 6 :.@.[ [ l.B.4.x o A ].].].{.].].",
"].{.].'.].].).T.F.K G 8.P.j.H % @ > 3 } u.~ g k m N N N L N O.jXzX%X6 y.j.L.4.v 7.G.e g  X{.{.{. X}.",
"].{.].]. X[.).,.oXv.z.*.#.#.1 < p } o.&Xg g p T ;XrXyXwXX.N S P yXvX>X8 ;.G 1.q.Z.F.,.X |.{.`.].].{.",
"].{.].]. X X].oXB.J.P.c.a = > 3 ..e.=Xu k k &XqXyXyXrXrXlXeXS S | rXNX>X: s 0.G.H.v.sXs C ).`. X).'.",
"].{.].).].{.Z H D.D.J.`   , r ( ( cXT u h 4X~ ~ / W W B  .6XeXn N Q pXcX~ : c 1.8.,.k.j O (.]. X'.].",
"].].).(.).S f H H.H.z.% r t ' e.qX:X9 2 :.h 0 0 t.dXjXyX+X .eXu.m m O.xX2X6 1 c.K.B.N.k.+ d {.].].].",
"].].].T.j -.sXL.G.G.J % 5 ! $Xe.xXY 9 4 2 3 ( fX9X4XqXtXbX@XW 2XM g i tXlXR > ,.K.L.B.P.2.e S ].{.{.",
"'.].^.S l.$.j.K.K.oXx $ r a.i.( xXY 0 W.9 } 2X~ :.M B W bXvXW _ i.b u X.vX%X: ` K.OXK.x.H j.1 _.).).",
"].].S @ c.l ^ ^ <.c.b.d j ,X/ 2XvXW 0 2 0 e...u.! p u.>X@XrX;X7 ,Xh g T pXqXp 1XN.%.l l v 0.$ A {.{.",
"{.].4 O j.G g.fXg.^ 9.% >.,XT >XxX+XR 9 ~ dX>XE t.} 2X>X0XO.qXT :.e.9 8 hX%Xp d.l m.fXd.c 0.X b ].{.",
"].{.s   j.;.gXMXjXo.l.s ' r.9 u.xXO.u.8 E hX-XrXeXeX6X6XjXE f.X.&X2XT 8 yX&Xp g.t.gXMXjX;.j.X = }.{.",
"].].* + k.;.=XwX=X{ l.a ' a.2 ~ lX .&X..W jX+XvX6X&X;XO.cXT 9 ( &XqX/ Y eX&Xp d.} :XwX=X;.j.X = {.{.",
"].].V , k.^ :.y.:.y.k.a ' i.9 7 6X%XW eX .6X5X-XO.>X/ qXhXT 2 h 4X:X..R lXf.k m.t.} f.} ^ N.. A ].].",
"].].R.; M.#.>.s.P.P.6.& <Xi.T 6 E dX7 2X6X .5X-XY W ;X2X#X0 2 > ( 4X..u.xXX.3 ,.C.V.d.;.#.,.. Y.].].",
"].{.^.; M.N.b.0.v H c & <X8X) 9 7 &Xf.Y hXhX .Q U W  .uXe.0 0 4 h ,X~ qXyXi . l $.G 0.J.x.j.n ).].].",
"].{.{.1 j ` H 1.q.H.J.a ! 3Xp.q 6 p fXX.X.cXjXjXhXdXcXu.8 6 w 2 t m...xXX.6 u K.z.z.1.v *.f E.].'.'.",
"{.{.].).> @ d n.v.v.P.j , >.<X) 2 : ( dXu.X.:X6X6X#XT 7 R f.p w e.i.2X&X: > l 4.L.L.S.f o @ '.'.].{.",
"{.].'.'.'.. * 8.b.K.j.oX+ r M.a.q 0 9 e.i.i.7 ..X.../ T 9X~ : T &X..&X6 3 @ K.F.1.4.&.e X ].].].].].",
"].{.{.{.].C X &.J.x.F.!.$.+ >.8X&X7 9 t r.,Xa.3XdXdX&X:.1 < p {  .&X0 4 O $.z.q.G.OX&.$ * ].].{.].{.",
"].].).).'.].X f x.K.q.XXoX#., p.dX6X7 q w ! p.i.u.X.q 5 + , ( ( &XR > + %.P.L.0.G.0.s 1 '.(.(.'.].{.",
"{.{.].].].'.r o &.D.L.V.,.,.2.r t.xXyXX.i 8 6 7 7 8 9 r y ] ) 9 6 : X 2.=.%.K.sXL.4.$ > ).(.).'.].].",
" X X X{.].'.+ o &.K.<.;.;.#.5.&.3 / eXxXcXwX:XR W 7 0 ; ) y 5 t > 4 3.4.#.,.[ ,.x.2.+ t '.).'.].].].",
".X].).).'.].- ,.&.#.t.mXMXh.@.K.a > q / O.wXlXxXxXqXT 3 4 > , r @ d z.$.C.mXkXf.l 3.-.X ].].].].].{.",
"].).(.(.(.(.S c.%.^ f.iXzX=XN.2.3.%., 2 : 7 T i Y i 0 > # # 1 X $.2.4.c.g.kXzXf.#.G 8.+ {.{.].].).'.",
"].].].).(.(.U.C c.>...;X>Xt.B.H H.G.P.%.a O O j h h j * $ = G K.L.H.v 7Xg.;X%Xo.@.b.% o {.{.].].'.'.",
"].].`.].].].).F V M.:.( / m.3.1.q.G.D.L.OXb.5.,.y.d.,.=.v.XXn.n.H.G.4.,.m.{ { } m.* % T.].].].].].].",
"].].].].}. X).].T.C M.>.#.oXz F.v.F.F.D.v.=.c.[ t.t.#.c.q.G.v.b.8.q.D.x 1X;.<.m.4 1 V {.].].].}.).'.",
"].].}.]. X X].].).).A M.x.-.* -.j.8.9.F.F.8.,.g.nXkXg.,.4.S.L.D.9.3.,.d $.N.k.s 4 4 {.'.).].{.].].].",
"].}. X].}. X].).(.(.).R.K @ # # a @.5.b.c.l.[ &XaXzXf.;.x.D.b.8.@.s X @ * l d @ < }. X X{.{.{.{..X].",
"}.}. X].].[.].).).`.).`.].|.E.3 1 O % d =.c.^ t.*X*Xo.^ j.2.d s @ 1 < = O @ X b '.].].{.].].].].{.].",
" X].].].].].`.|.|.].`.).]. X X{.{.* @ o x J f j ^ k l c *.v X + b {.}.].].].].'.).].].(.(.'.].].].].",
" X`.].].).).(.`.`.).)./.).|.|.).).)._.+ d $.&.%.@.:.*.*.c z @ A ].].].].].].'.'.].].].).).).].].].'.",
"}.).].].).(./.(.).).(./.(.).).(.(.(.].D < O $ O . >   + O . < ].].'.].].].'.'.'.).(.).].].(.(.'.].].",
"].).].{.`.].].).).`.].).).(.(.).'.).].).].U.C C C C C C A W.].].].].].{.].'.'.].).).'.].'.).'.].[.].",
"{.).].].).].].].`.(.].[.).{.].{.].'.].].'.].{.].].].].].].].].].].}.}.}.].{.).].].).].{.[. X X[.[.[.",
" X'.].].].{.}. X}.].}. X]. X].}.].'.].].'.].{.].].].].].].].].].[.}.}.}.].{.'. X X'.].{.].}.].].[.[."
};
