/* XPM */
static char *_54fd2538af34ccf8f259a1cefc56914xjWS5WiS7BzB4uIV[] = {
/* columns rows colors chars-per-pixel */
"50 50 250 2 ",
"   c #010502",
".  c #020C02",
"X  c #090C08",
"o  c #021302",
"O  c #03150B",
"+  c #0C1C0D",
"@  c #061708",
"#  c #181906",
"$  c #051C12",
"%  c #0C1A19",
"&  c #151C14",
"*  c #150F01",
"=  c #231B07",
"-  c #200F00",
";  c #0B2406",
":  c #142B0B",
">  c #19360A",
",  c #0B2318",
"<  c #172618",
"1  c #193617",
"2  c #0E301F",
"3  c #272909",
"4  c #262718",
"5  c #273B18",
"6  c #363617",
"7  c #2D300E",
"8  c #141F23",
"9  c #142423",
"0  c #152A23",
"q  c #1C2D2A",
"w  c #1A2C24",
"e  c #1A3327",
"r  c #0F2F20",
"t  c #253627",
"y  c #3A3A28",
"u  c #2D3B3A",
"i  c #263733",
"p  c #2E3932",
"a  c #453B1A",
"s  c #55361E",
"d  c #472911",
"f  c #493B23",
"g  c #583A27",
"h  c #5A2817",
"j  c #2A441A",
"k  c #334F19",
"l  c #2A4725",
"z  c #364827",
"x  c #385529",
"c  c #2B4238",
"v  c #35453B",
"b  c #3E6137",
"n  c #474913",
"m  c #484224",
"M  c #584629",
"N  c #474736",
"B  c #554C39",
"V  c #4A5836",
"C  c #575837",
"Z  c #4D5929",
"A  c #645529",
"S  c #684834",
"D  c #685737",
"F  c #735036",
"G  c #496537",
"H  c #596C37",
"J  c #51682A",
"K  c #6C6837",
"L  c #384744",
"P  c #414D4B",
"I  c #45544C",
"U  c #5A5947",
"Y  c #495754",
"T  c #515C5C",
"R  c #795C45",
"E  c #695B46",
"W  c #566947",
"Q  c #5B7748",
"!  c #54674E",
"~  c #79694A",
"^  c #787649",
"/  c #7B6955",
"(  c #6E744E",
")  c #5C6E67",
"_  c #69736F",
"`  c #8D4F38",
"'  c #965E49",
"]  c #866749",
"[  c #89784A",
"{  c #846E57",
"}  c #976A56",
"|  c #887659",
" . c #997958",
".. c #976F4E",
"X. c #A76B54",
"o. c #8A7D65",
"O. c #977B67",
"+. c #896E63",
"@. c #AB7F6B",
"#. c #70883A",
"$. c #788754",
"%. c #7B8966",
"&. c #758874",
"*. c #97845A",
"=. c #898C50",
"-. c #A98B5A",
";. c #978666",
":. c #9A8773",
">. c #9E9176",
",. c #918E67",
"<. c #A68668",
"1. c #AA9468",
"2. c #B59769",
"3. c #A58A75",
"4. c #B78C76",
"5. c #A89678",
"6. c #B89978",
"7. c #B08E68",
"8. c #94A970",
"9. c #A9A278",
"0. c #BBA27C",
"q. c #BAA378",
"w. c #BCA26F",
"e. c #C4977C",
"r. c #C2A77B",
"t. c #7A8784",
"y. c #8F968F",
"u. c #AB9885",
"i. c #B59C83",
"p. c #B79A86",
"a. c #B59D91",
"s. c #ADA388",
"d. c #BCA584",
"f. c #BDAA85",
"g. c #B4A38A",
"h. c #BAA38B",
"j. c #BDAB8C",
"k. c #B5A587",
"l. c #ACA492",
"z. c #B3A493",
"x. c #BCAB94",
"c. c #B4AD9B",
"v. c #BCAC9A",
"b. c #B8A695",
"n. c #BAB19D",
"m. c #9AA4A3",
"M. c #A4ADA8",
"N. c #BAB5A4",
"B. c #AEB6AF",
"V. c #97A29A",
"C. c #C39E85",
"Z. c #C49E95",
"A. c #C2AC8C",
"S. c #C7A588",
"D. c #D6A88B",
"F. c #C7B189",
"G. c #C2AC93",
"H. c #C2AD9B",
"J. c #CBAB96",
"K. c #D5A994",
"L. c #C5B294",
"P. c #CBB493",
"I. c #C4B29C",
"U. c #CBB59C",
"Y. c #CDBA9D",
"T. c #CCBA97",
"R. c #D6B699",
"E. c #DBB98D",
"W. c #E5B99B",
"Q. c #C9ADA4",
"!. c #C4B3A2",
"~. c #CAB5A3",
"^. c #CDBAA2",
"/. c #C3BDAC",
"(. c #CCBBAB",
"). c #C9B7A7",
"_. c #D3BDAB",
"`. c #D5BAA5",
"'. c #C9BCB4",
"]. c #D6BEB3",
"[. c #E7BAA6",
"{. c #BAC2BA",
"}. c #D4C09E",
"|. c #D8C3A8",
" X c #CCC3BA",
".X c #CBC6B5",
"XX c #D3C4B4",
"oX c #DBC4B4",
"OX c #D4C5BA",
"+X c #D3CBBB",
"@X c #DBCABC",
"#X c #DAC7B7",
"$X c #D0CBB5",
"%X c #E7C5AA",
"&X c #F3C7AB",
"*X c #E4CBB8",
"=X c #EAD1BD",
"-X c #F9D4BC",
";X c #F4CEB6",
":X c #EEC29F",
">X c #BDC6C6",
",X c #C9CBCB",
"<X c #D5CBC2",
"1X c #DACCC2",
"2X c #D5CECB",
"3X c #DCD2C3",
"4X c #DCD4CB",
"5X c #D7D6C9",
"6X c #CCD4D4",
"7X c #D3D4D3",
"8X c #DCD6D2",
"9X c #DCD9D5",
"0X c #DCDCDB",
"qX c #D6D8D8",
"wX c #CDD0D0",
"eX c #E3CBC3",
"rX c #E3D3C5",
"tX c #E2D5CA",
"yX c #E2DACC",
"uX c #EAD9CA",
"iX c #F5D9C7",
"pX c #E4DCD4",
"aX c #EADCD2",
"sX c #E3DEDA",
"dX c #E9DFDA",
"fX c #F2D9CF",
"gX c #DCE1DB",
"hX c #EBE2D5",
"jX c #E4E1DC",
"kX c #EBE3DB",
"lX c #E9E7DA",
"zX c #F2E4DC",
"xX c #F7E7D8",
"cX c #F9E3CE",
"vX c #E2DEE5",
"bX c #DDE3E1",
"nX c #E4E5E4",
"mX c #EBE5E2",
"MX c #E5EAE6",
"NX c #ECE9E5",
"BX c #E5EBEA",
"VX c #ECECEB",
"CX c #E5E6E9",
"ZX c #F5ECE6",
"AX c #F8F3EA",
"SX c #EDF3F1",
"DX c #F2F4F2",
"FX c #F7FEFE",
"GX c #ECEDEE",
"HX c #DEDCE1",
/* pixels */
"% % % % 8 8 % % q q 9 w w q i q q i i i i u u i u u u u u i w 9 9 9 9 9 0 0 , O o $ , @ o o .       ",
"9 9 9 i i 9 % q 9 9 9 i v L L L P P P P Y T Y P L L P P L u i i w q i i q , $ , $ $ $ $ + .         ",
", $ % i L i , % q u u T y.M.B.B.,X,X>X>X,X6X,X>Xm.y.t._ T L u i u u i w 0 w 0 , , $ , e t w < < + o ",
"$ , , , 0 w w t v _ y.M.7XbXMXBXBXSXSXBXBXBXBXBXSXBX0X6X>XV._ Y L v u i q q c I c c e w t v c t t < ",
", 2 2 , w e t i I M.qX0XjX0XsXnXnXBXNXBXnXnXBXBXDXSXDXFXFXBX6XB.t.Y i i i q L ) ) I e O O < w < l t ",
"r 2 2 e i e c Y V.qXMXjXjXmXAXNXVXnXnXBXSXDXDXDXSXBXBXBXnXMXDXFXBX>Xy.T v L Y ) T c , o . . o @ 1 1 ",
"e c c c i v &.{.bXVX0XwX7XnXZXjXVXnXnXNXDXDXDXDXDXDXDXDXMXgXnXVXBXFXnXV.Y v L L i < $ $ $ $ $ , ; : ",
"i c c Y t.B.wXgXqXqXqXqX7X9XNXmXNXNXVXVXNXnXNXDXZXVXNXnXjX0XnXNXBXnXBXSX6Xy.I t t w , O $ 0 e e : : ",
"_ y.m.M.6XBXbXqX7X,X,XqXqX0XNXnXNXmXNXNXNXmXmXNXmXNXNXmXjXjXjXmXnX0XCXBXGXMXM.P p t < O , 0 L , + + ",
"6XCXbXbXBXnX7X7XqX,XwX7XwX9XNXVXNXmXnXnXjXjXjXmXjXkXmXkXjXjXjXmXNX0XnXnXjXMXqXM.v < < < < $ $ O . . ",
"vXCXnXvXvXwX,X0XwXwX9XsX9X9XjXnXNXmXmXjXjXsXjXmXkXkXmXkXkXkXkXkXmX9XnXNXjXjXjX9Xy.p < & < % . O X X ",
"vXvX0XqXqX,X,XsX7X8XsXjXsX9X9XpX0XsXjXjXjXsXsXjXjXkXkXkXkXlXkXkXjX9XjXZXNXjX4X X{._ y & & < O O X X ",
"GXCXHXqX0X0XsXNXmXpX<XOX+X@X3XpX2X8X9X9X9XsXsXjXsXkXkXlXkXkXkXkXNXjXjXkXzXzXyX X/.V.U y 4 & + .     ",
"0XqX7X7X0XNXAXZXzXtX(.!.)._.XX@X2X8X9X9X8XpXkXzXkXkXlXlXkXhXhXlXkXNXNXjXhXlXhX4X.Xl.B t & @ X X X X ",
"bXqX7X9XjXNXzXaXuXrX^.U.`.`.U._.1X9XjXjXjXjXkXkXkXkXhXhXhXhXhXhXpXNXkXjXpXhXyXyX.Xu.N 4 < 4 X       ",
"bX7X7X0XjXlXhXtXuX=X`.`.%X[.R.`.<X9XNXNXmXkXpXtXpXpXyXyXyXyXyXyXpXjX4X5XyXyXuXuXv.l.o.U U ! < . X X ",
"0X9X,X9X4X<XpXrXrX|.U.S.C.R.K.J.OX8XsXpXsXpXtXtXtX1X@XtXtX3X3X4X@XrX+X+X5X+XtXiXY.;.5.^ $.z ; j <   ",
"vX7X'. X2X4X4XXX=XoXp.6.e.D.e.4.@XsX4X<XtX1X'.#X(.).(.#XrXyX4X4X*X*X+X$X5XyX=X=XS.<.,.^ $.x > Q V @ ",
"mX7X'./. X/.b.!._.=XS.K.K.D.@.] oX'.tXaX@X*X*XH.z.H._.@XrXyXyXtXuXtX+X$X+X$XU.R.<.6.5.C ,.8.Q V V   ",
"mX8X8X2X Xl.:.(.b.U.p.R.[.W.4.F `.).@X].u.u.5./ { u.(.#X@X3XyXpXhXzX5X5X.X>.5.6.7.2.5.K H Q Q %.! < ",
"dXsXkX4X<XN.u.^.`.J.p.S.W.E.D.F <.U.h.O.O.O.R ~ M { z.).XXrXhXzXaXAX5XlXN./ 3.S.e.7.9.^ 7 o > ! P < ",
"dXkX4X XOX#Xv.p.`.J.R.S.S.S.W.@.F <.3.<.p.h.i.p.{ :.v._.rXhXzXkXzXAXlXAX+Xo.4.K.:X6.*.n o > G ! < X ",
"kXaXOX).).).x.3.;.C.R.e.C.D.&X%X<. .4.J.J.`.|.H.Q.).#XrXhXZXZXNXAXAXAXAXaXG.C.D.W.2.[ Z 7 5 5 @ .   ",
"aXtX'.XX!.u.h.p.h.%XR.6.S.W.W.&X-XK.C.J.`.`.`.].'.OX1X4XpXkXAXAXAXpXAXZXxXiXS.D.E.2.=.$.%.%.! t < @ ",
"yXaX(.b.(.I.p.J.G.J.S.6.6.D.W.W.&X;Xp.p.`.].#X#X<XtXpX8XsXmXNXZXZXZXhXxXcXcX&XD.D. .A C W W c , < < ",
"hXaX).z.!.~.G.U.U.6. ... .7.6.R.;X-XJ.5.~._.OX1X4XsXdXsXsXsXdXzXfXfXcXcXcXcX-XW.S.[ n 3 : ; @ + + @ ",
"3X3X!.u.u.a.p.p.O.} } ] ] ] } S.;XiX`.O.H._.'. X2XsXmXmXkXdXdXzXfXiXiXoX-XiXiX&X%XA.( j j l < @ @ o ",
"3X3XXXb.5.3.:.{ R F S s S F ] 4.&X-X%XO.b.XX'.'.2X8XmXmXzXzXaX#XiX-X%XJ.K.`.&X[.4.j.9.%.Q v , + ; ; ",
"3X3X@X!.u.3.{ M S g s d s S R <.R.;XiX3.a.(.'. X<X4XpXtXeXeX~.3.4.D.D.Z.K.[.K.R.6.,.V x x 1 , t < : ",
"+X.X(.).!.v.O.S g g g s d s ] 4.6.R.iXi.3.b.(.OXOXOX1X#X~.~.p.] X.e.D.[.[.[.K.K.;.,.Q l 1 ; o + : 1 ",
"+X+XXXXX#X#XH.3.3.| S s d M <.4.7.S.%Xp.O.a.(.#X1XOXeX*XJ.C.4.} ' X.X.' } } '  .5.,.W l 1 1 +   ; : ",
"+XyX3XXXXX(.~.H.oX=XG.O.M R G.i.6.6.R.p.O.b.#XXXfXeXfXiXQ.p.p.4.' ` h d g S O.G.| C x b x 1 @ @ o o ",
"5X+X+X X'..X#XXX#X_._.I.5.5.G.U.R.i.i.p.5.x.#X(.rXuXuXeX]._.Q.Z.@.} F S g :.uXs.H Z J k x G 5 ; o ; ",
"4X4X4X1XOX<X1XXXXX(.^.I.k.k.A.A.%X*XG.;.5.H.~.H.#X*XrXeXeX].Q.b.Z.p.@.+.u.3X.X( $.$.H k k G x 1 x W ",
"<X4XyX1X+X3X1X/.XX).I.G.h.d.d.6.%XR.<.] ;.i.h.U.I.(.(.v.a.a.Q._.].u.+./ c..X%.W Q H Z k j : 1 l V G ",
".X X<X+X+X1X+X!.XX~.G.j.d.d.6.1.r.*.] ] [ ;.5.d.Y.|._.g.u.h.H.H.O.E B E y.%.z V j H J k > > x x 5 > ",
".XN./. X+X+X.X).~.~.I.G.d.6.1.<.-.*. .*.*.*. .[ 5.d.d.i.j.x.o.f - - = 4 4 4 # : ; k G Q G j l 1 l t ",
"/.N.N..X/././.!.x.U.Y.U.P.q.1.1.-.-.-.-.2.*.[ -.2.f.A.A.Y.Y.| 3 - # * *   o 5 5 5 k G Q x o o 5 1 : ",
"N.N.N.N.c.c.c.v.g.U.Y.T.P.0.1.2.2.-.-.2.w.1.1.F.0.F.F.A.T.L.;.M 4 = # 4 # 4 z z Q ( Q > . o 5 W j > ",
"N.N..XN.l.l.z.z.g.U.L.A.A.q.2.q.2.-.r.r.1.r.E.q.F.F.A.L.Y.L.| m B y f N N C W V V V z # o 5 z V k x ",
"N.n.n.N.c.l.z.x.x.L.P.P.P.r.6.6.q.2.2.r.r.r.F.E.F.f.f.d.Y.j.5.:.o.U y 6 6 y C V C V 6 3 3 3 6 Z n J ",
"c.c.c.N.c.l.l.x.x.I.L.A.A.0.6.0.r.6.6.r.r.0.0.r.F.F.T.L.U.I.^.n.XXl.B = 7 6 3 3 3 m m f m 7 = 6 J #.",
"l.l.c.N.n.z.z.x.L.U.L.A.A.0.q.d.d.d.d.d.A.S.0.q.A.f.L.j.I.^.#X.X@Xz./ E M a m a C / ~ E D m a D J J ",
"z.z.c.N.!.v.v.H.I.^.U.G.A.d.0.d.A.G.A.A.P.T.P.A.A.P.Y.j.L.u.s.z.:.:.5.u.| K ~ ~ D D D M M M A ~ Z 7 ",
"z.x.v.N.!.I.I.I.!._.^.L.L.A.f.f.U.U.U.L.T.R.Y.P.d.Y.T.5.;.M 7 f f | o.| *.*.*.| ;.| | { D K K A m 3 ",
"v.v.n.I.!.!.I.I.!.(.^.I.U.T.G.x.I.I.I.L.T.}.}.T.Y.|.T.5.5.~ M C { :.;.| *.1.q.0.;.| | { D ~ [ D B B ",
"v.I.I.!.!.!.H.v.!.^.I.L.^.|.Y.I.v.v.v.L.L.T.T.T.A.f.d.5.k.k.j.s.g.:.;.,.[ [ *.*.;.| { ~ A M A A ~ ,.",
"H.I.!.~.).!.v.b.!.~.H.x.^.|.`.U.I.I.I.L.L.A.A.A.A.j.L.;.~ | u.5.>.>.| ;.9.1.*.*.A ~ { | ] M n K D C ",
"~.I.)._._.I.H.U.~.I.G.G.U.U.^.^.^.^.I.Y.U.k.d.j.L.|.L.>.~ | g.x.u.;.k.5.5.5.>.>.:.o.| | ^ 1.=.=.K ^ ",
"_.~._.oX_.~.H.U.^.I.G.G.U.U.^.^.U.}.U.^.Y.k.k.h.G._.I.3.{ | g.v./ / x.k.9.9.5.k.z.z.g.s.,.9.=.=.=.8."
};
